%FSTAX44Y44*%
%MOMM*%
%SFA1B1*%

%IPPOS*%
%ADD25C,0.253999*%
%LNpcb1-1*%
%LPD*%
G54D25*
X00867142Y00524328D02*
D01*
X00865701Y00524278*
X00864267Y00524127*
X00862846Y00523877*
X00861447Y00523528*
X00860076Y00523082*
X00858738Y00522542*
X00857442Y0052191*
X00856193Y00521189*
X00854998Y00520382*
X00853861Y00519494*
X00852789Y00518529*
X00851787Y00517492*
X0085086Y00516387*
X00850013Y0051522*
X00849249Y00513997*
X00848572Y00512724*
X00847985Y00511406*
X00847492Y00510051*
X00847094Y00508665*
X00846794Y00507254*
X00846593Y00505826*
X00846493Y00504387*
X0084648Y00503666*
X01046484D02*
D01*
X01046434Y00505108*
X01046283Y00506542*
X01046033Y00507962*
X01045684Y00509362*
X01045238Y00510733*
X01044698Y0051207*
X01044066Y00513367*
X01043345Y00514615*
X01042538Y00515811*
X0104165Y00516948*
X01040685Y00518019*
X01039648Y00519021*
X01038543Y00519948*
X01037376Y00520796*
X01036153Y0052156*
X0103488Y00522237*
X01033563Y00522824*
X01032207Y00523317*
X01030821Y00523715*
X0102941Y00524014*
X01027982Y00524215*
X01026544Y00524316*
X01025823Y00524328*
X01046483Y00503665D02*
D01*
X01046433Y00505107*
X01046282Y00506541*
X01046032Y00507961*
X01045683Y00509361*
X01045237Y00510732*
X01044697Y00512069*
X01044065Y00513366*
X01043344Y00514615*
X01042537Y0051581*
X01041649Y00516947*
X01040684Y00518019*
X01039647Y0051902*
X01038542Y00519947*
X01037375Y00520795*
X01036152Y00521559*
X01034879Y00522236*
X01033562Y00522823*
X01032206Y00523316*
X0103082Y00523714*
X01029409Y00524013*
X01027981Y00524214*
X01026543Y00524315*
X01025822Y00524327*
X00846483Y00261025D02*
D01*
X00846534Y00259584*
X00846684Y0025815*
X00846935Y00256729*
X00847284Y0025533*
X00847729Y00253959*
X0084827Y00252621*
X00848902Y00251325*
X00849623Y00250076*
X00850429Y00248881*
X00851317Y00247744*
X00852282Y00246672*
X0085332Y00245671*
X00854425Y00244743*
X00855591Y00243896*
X00856814Y00243132*
X00858088Y00242454*
X00859405Y00241868*
X00860761Y00241375*
X00862147Y00240977*
X00863557Y00240677*
X00864986Y00240477*
X00866424Y00240376*
X00867144Y00240363*
X00846482Y00261025D02*
D01*
X00846533Y00259584*
X00846683Y0025815*
X00846934Y00256729*
X00847283Y0025533*
X00847729Y00253959*
X00848269Y00252621*
X00848901Y00251325*
X00849622Y00250076*
X00850429Y00248881*
X00851316Y00247744*
X00852281Y00246672*
X00853319Y00245671*
X00854423Y00244743*
X0085559Y00243896*
X00856813Y00243132*
X00858087Y00242454*
X00859404Y00241868*
X0086076Y00241375*
X00862146Y00240977*
X00863557Y00240677*
X00864985Y00240477*
X00866423Y00240376*
X00867144Y00240363*
X01025824Y00240362D02*
D01*
X01027266Y00240413*
X010287Y00240563*
X0103012Y00240814*
X0103152Y00241163*
X01032891Y00241608*
X01034228Y00242149*
X01035524Y00242781*
X01036774Y00243502*
X01037969Y00244308*
X01039106Y00245196*
X01040178Y00246161*
X01041179Y00247199*
X01042106Y00248304*
X01042954Y0024947*
X01043718Y00250693*
X01044395Y00251967*
X01044982Y00253284*
X01045475Y0025464*
X01045873Y00256026*
X01046172Y00257436*
X01046373Y00258865*
X01046474Y00260303*
X01046485Y00261024*
X01025824Y00240362D02*
D01*
X01027266Y00240413*
X010287Y00240563*
X0103012Y00240814*
X0103152Y00241163*
X01032891Y00241608*
X01034228Y00242149*
X01035524Y00242781*
X01036774Y00243502*
X01037969Y00244308*
X01039106Y00245196*
X01040178Y00246161*
X01041179Y00247199*
X01042106Y00248304*
X01042954Y0024947*
X01043718Y00250693*
X01044395Y00251967*
X01044982Y00253284*
X01045475Y0025464*
X01045873Y00256026*
X01046172Y00257436*
X01046373Y00258865*
X01046474Y00260303*
X01046485Y00261024*
X00867142Y00524328D02*
X00887801D01*
X01005162D02*
X01025823D01*
X01005161Y00524327D02*
X01025822D01*
X00887802D02*
X01005161D01*
X01046484Y00483007D02*
Y00503666D01*
X0084648Y00483006D02*
Y00503666D01*
X01046483Y00483006D02*
Y00503665D01*
Y00281686D02*
Y00483006D01*
X00846483Y00281686D02*
Y00483006D01*
Y00261025D02*
Y00281684D01*
X00846482Y00261025D02*
Y00281684D01*
X01046485Y00261024D02*
Y00281686D01*
Y00261024D02*
Y00281686D01*
X00867144Y00240363D02*
X00887805D01*
X01005164D01*
X00867144D02*
X00887805D01*
X01005164Y00240362D02*
X01025824D01*
X01005164D02*
X01025824D01*
X0109093Y00429254D02*
Y0041402D01*
X01098547*
X01101086Y00416558*
Y00419097*
X01098547Y00421636*
X0109093*
X01098547*
X01101086Y00424176*
Y00426715*
X01098547Y00429254*
X0109093*
X01113782D02*
X01108703D01*
X01106164Y00426715*
Y00416558*
X01108703Y0041402*
X01113782*
X01116321Y00416558*
Y00426715*
X01113782Y00429254*
X01121399D02*
X01131556D01*
X01126478*
Y0041402*
X01136634Y00429254D02*
X01146791D01*
X01141713*
Y0041402*
X01159487Y00429254D02*
X01154408D01*
X01151869Y00426715*
Y00416558*
X01154408Y0041402*
X01159487*
X01162026Y00416558*
Y00426715*
X01159487Y00429254*
X01167104Y0041402D02*
Y00429254D01*
X01172183Y00424176*
X01177261Y00429254*
Y0041402*
X01197575Y00426715D02*
X01200114Y00429254D01*
X01205192*
X01207731Y00426715*
Y00424176*
X01205192Y00421636*
X01202653*
X01205192*
X01207731Y00419097*
Y00416558*
X01205192Y0041402*
X01200114*
X01197575Y00416558*
X0121281Y0041402D02*
Y00429254D01*
X01217888Y00424176*
X01222966Y00429254*
Y0041402*
X0124328Y00429254D02*
X01253436D01*
X01248358*
Y0041402*
X01258515D02*
Y00424176D01*
X01263593Y00429254*
X01268671Y00424176*
Y0041402*
Y00421636*
X01258515*
X0127375Y0041402D02*
Y00429254D01*
X01281367*
X01283907Y00426715*
Y00421636*
X01281367Y00419097*
X0127375*
X01299142Y00429254D02*
X01288985D01*
Y0041402*
X01299142*
X01288985Y00421636D02*
X01294063D01*
M02*