%FSTAX44Y44*%
%MOMM*%
%SFA1B1*%

%IPPOS*%
%ADD26C,0.010000*%
%LNpcb1-1*%
%LPD*%
G54D26*
X0084521Y00281738D02*
D01*
X0084521Y00281728*
X0084521Y00281717*
X00845209Y00281706*
Y00281695*
Y00281684*
X00845207Y00483006D02*
D01*
X0084521Y00482918*
Y00482917*
X00867142Y00525602D02*
D01*
X00865612Y00525549*
X00864089Y00525389*
X00862582Y00525123*
X00861096Y00524753*
X0085964Y00524279*
X0085822Y00523706*
X00856844Y00523035*
X00855518Y00522269*
X00854249Y00521413*
X00853042Y0052047*
X00851904Y00519446*
X00850841Y00518344*
X00849857Y00517171*
X00848957Y00515933*
X00848145Y00514634*
X00847426Y00513282*
X00846804Y00511884*
X0084628Y00510445*
X00845858Y00508973*
X0084554Y00507475*
X00845326Y00505959*
X0084522Y00504432*
X00845207Y00503666*
X00887845Y00525601D02*
D01*
X00887837Y00525602*
X00887828Y00525602*
X00887819*
X0088781Y00525602*
X00887801*
Y00525602*
X01005162D02*
D01*
X01005154*
X01005146Y00525602*
X01005138*
X0100513Y00525602*
X01005122Y00525602*
Y00525601*
X01047758Y00503666D02*
D01*
X01047705Y00505197*
X01047545Y00506719*
X01047279Y00508227*
X01046909Y00509713*
X01046436Y00511169*
X01045862Y00512589*
X01045191Y00513965*
X01044425Y00515291*
X01043569Y0051656*
X01042626Y00517767*
X01041602Y00518904*
X010405Y00519968*
X01039328Y00520952*
X01038089Y00521852*
X0103679Y00522663*
X01035438Y00523382*
X0103404Y00524005*
X01032601Y00524529*
X01031129Y00524951*
X01029631Y00525269*
X01028115Y00525482*
X01026588Y00525589*
X01025823Y00525602*
X01047757Y00482963D02*
D01*
X01047758Y00482972*
X01047758Y00482981*
X01047758Y0048299*
Y00482999*
X01047758Y00483007*
X01047759Y00281686D02*
D01*
Y00281699*
X01047759Y00281712*
X01047759Y00281726*
X01047758Y00281739*
X01047757Y00281752*
X01025824Y00239089D02*
D01*
X01027355Y00239143*
X01028877Y00239303*
X01030385Y00239569*
X01031871Y00239939*
X01033327Y00240412*
X01034746Y00240986*
X01036123Y00241657*
X01037449Y00242423*
X01038718Y00243279*
X01039925Y00244222*
X01041062Y00245246*
X01042126Y00246347*
X0104311Y0024752*
X0104401Y00248759*
X01044821Y00250057*
X0104554Y00251409*
X01046163Y00252808*
X01046687Y00254247*
X01047109Y00255719*
X01047427Y00257216*
X0104764Y00258733*
X01047747Y0026026*
X01047759Y00261024*
X01005164Y00239088D02*
D01*
X01005168*
X01005171*
X01005175*
X01005179*
X01005182*
Y00239089*
X00867125D02*
D01*
X00867129*
X00867133Y00239089*
X00867137*
X00867141*
X00867144Y00239089*
X00845209Y00261025D02*
D01*
X00845263Y00259495*
X00845423Y00257973*
X00845689Y00256465*
X00846059Y00254979*
X00846532Y00253523*
X00847106Y00252103*
X00847777Y00250727*
X00848543Y00249401*
X00849399Y00248132*
X00850341Y00246925*
X00851366Y00245787*
X00852467Y00244724*
X0085364Y0024374*
X00854879Y0024284*
X00856177Y00242028*
X00857529Y00241309*
X00858928Y00240687*
X00860367Y00240163*
X00861839Y00239741*
X00863336Y00239423*
X00864852Y0023921*
X0086638Y00239103*
X00867144Y00239089*
X00845209Y00261025D02*
Y00281684D01*
X0084521Y00281738D02*
Y00482917D01*
X00845207Y00483006D02*
Y00503666D01*
X00867142Y00525602D02*
X00887801D01*
X00887845Y00525601D02*
X01005122D01*
X01005162Y00525602D02*
X01025823D01*
X01047758Y00483007D02*
Y00503666D01*
X01047757Y00281752D02*
Y00482963D01*
X01047759Y00261024D02*
Y00281686D01*
X01005182Y00239089D02*
X01025824D01*
X00884397D02*
X01005164Y00239088D01*
X00867144Y00239089D02*
X00884397D01*
X00867125D02*
X00867144D01*
M02*