%FSTAX44Y44*%
%MOMM*%
%SFA1B1*%

%IPPOS*%
%ADD10C,0.360999*%
%ADD11C,0.220000*%
%ADD12R,12.226276X0.200000*%
%LNpcb1-1*%
%LPD*%
G36*
X00887224Y00429705D02*
X00888724D01*
Y00429569*
X00889678*
Y00429432*
X00890496*
Y00429296*
X00891178*
Y0042916*
X00891723*
Y00429023*
X00892269*
Y00428887*
X00892814*
Y00428752*
X00893223*
Y00428614*
X00893632*
Y00428478*
X00894041*
Y00428342*
X0089445*
Y00428205*
X00894859*
Y00428069*
X00895268*
Y00427933*
X00895541*
Y00427796*
X00895813*
Y0042766*
X00896222*
Y00427523*
X00896495*
Y00427387*
X00896768*
Y00427251*
X0089704*
Y00427115*
X00897313*
Y00426978*
X00897586*
Y00426842*
X00897858*
Y00426706*
X00898131*
Y00426569*
X00898404*
Y00426433*
X0089854*
Y00426296*
X00898813*
Y0042616*
X00899085*
Y00426024*
X00899222*
Y00425887*
X00899494*
Y00425751*
X00899767*
Y00425615*
X00899903*
Y00425479*
X00900176*
Y00425342*
X00900312*
Y00425206*
X00900585*
Y00425069*
X00900721*
Y00424933*
X00900858*
Y00424797*
X0090113*
Y0042466*
X00901267*
Y00424524*
X00901403*
Y00424388*
X00901676*
Y00424251*
X00901812*
Y00424115*
X00901948*
Y00423979*
X00902085*
Y00423842*
X00902357*
Y00423706*
X00902494*
Y0042357*
X0090263*
Y00423433*
X00902766*
Y00423297*
X00902903*
Y00423161*
X00903039*
Y00423024*
X00903175*
Y00422888*
X00903448*
Y00422752*
X00903585*
Y00422615*
X00903721*
Y00422479*
X00903857*
Y00422343*
X00903994*
Y00422206*
X0090413*
Y0042207*
X00904266*
Y00421934*
X00904403*
Y00421797*
X00904539*
Y00421661*
X00904675*
Y00421388*
X00904811*
Y00421252*
X00904948*
Y00421116*
X00905084*
Y00420979*
X00905221*
Y00420843*
X00905357*
Y00420707*
X00905493*
Y0042057*
X0090563*
Y00420298*
X00905766*
Y00420161*
X00905902*
Y00420025*
X00906039*
Y00419889*
X00906175*
Y00419616*
X00906311*
Y00419481*
X00906448*
Y00419343*
X00906584*
Y00419071*
X0090672*
Y00418934*
X00906857*
Y00418798*
X00906993*
Y00418525*
X00907129*
Y00418389*
X00907266*
Y00418116*
X00907402*
Y0041798*
X00907538*
Y00417707*
X00907675*
Y00417434*
X00907811*
Y00417298*
X00907947*
Y00417025*
X00908084*
Y00416753*
X0090822*
Y00416617*
X00908356*
Y00416344*
X00908493*
Y00416071*
X00908629*
Y00415798*
X00908765*
Y00415526*
X00908902*
Y00415253*
X00909038*
Y0041498*
X00909174*
Y00414708*
X00909311*
Y00414435*
X00909447*
Y00414026*
X00909583*
Y00413753*
X0090972*
Y00413344*
X00909856*
Y00413072*
X00909992*
Y00412663*
X00910129*
Y00412254*
X00910265*
Y00411845*
X00910401*
Y00411436*
X00910538*
Y00411027*
X00910674*
Y00410481*
X0091081*
Y00409936*
X00910947*
Y00409391*
X00911083*
Y00408709*
X00911219*
Y00407891*
X00911356*
Y00406937*
X00911492*
Y00405301*
X00911628*
Y00402574*
X00911492*
Y00400939*
X00911356*
Y00399847*
X00911219*
Y00399165*
X00911083*
Y00398484*
X00910947*
Y00397802*
X0091081*
Y00397256*
X00910674*
Y00396848*
X00910538*
Y00396302*
X00910401*
Y00395893*
X00910265*
Y00395484*
X00910129*
Y00395075*
X00909992*
Y00394803*
X00909856*
Y00394393*
X0090972*
Y00393984*
X00909583*
Y00393712*
X00909447*
Y00393439*
X00909311*
Y00393166*
X00909174*
Y00392757*
X00909038*
Y00392485*
X00908902*
Y00392212*
X00908765*
Y00391939*
X00908629*
Y00391668*
X00908493*
Y0039153*
X00908356*
Y00391258*
X0090822*
Y00390985*
X00908084*
Y00390712*
X00907947*
Y00390576*
X00907811*
Y00390303*
X00907675*
Y00390031*
X00907538*
Y00389894*
X00907402*
Y00389622*
X00907266*
Y00389485*
X00907129*
Y00389213*
X00906993*
Y00389076*
X00906857*
Y00388804*
X0090672*
Y00388667*
X00906584*
Y00388531*
X00906448*
Y00388258*
X00906311*
Y00388122*
X00906175*
Y00387986*
X00906039*
Y00387713*
X00905902*
Y00387577*
X00905766*
Y0038744*
X0090563*
Y00387304*
X00905493*
Y00387168*
X00905357*
Y00386895*
X00905221*
Y00386759*
X00905084*
Y00386622*
X00904948*
Y00386486*
X00904811*
Y0038635*
X00904675*
Y00386213*
X00904539*
Y00386077*
X00904403*
Y00385941*
X00904266*
Y00385804*
X0090413*
Y00385668*
X00903994*
Y00385532*
X00903857*
Y00385395*
X00903721*
Y00385259*
X00903585*
Y00385122*
X00903448*
Y00384986*
X00903312*
Y0038485*
X00903175*
Y00384714*
X00903039*
Y00384577*
X00902903*
Y00384441*
X00902766*
Y00384304*
X0090263*
Y00384168*
X00902357*
Y00384032*
X00902221*
Y00383895*
X00902085*
Y00383759*
X00901948*
Y00383623*
X00901812*
Y00383487*
X00901539*
Y0038335*
X00901403*
Y00383214*
X00901267*
Y00383077*
X00900994*
Y00382941*
X00900858*
Y00382805*
X00900585*
Y00382668*
X00900449*
Y00382532*
X00900312*
Y00382397*
X0090004*
Y00382259*
X00899903*
Y00382123*
X00899631*
Y00381987*
X00899358*
Y0038185*
X00899222*
Y00381714*
X00898949*
Y00381578*
X00898813*
Y00381441*
X0089854*
Y00381305*
X00898267*
Y00381169*
X00897995*
Y00381032*
X00897722*
Y00380896*
X00897449*
Y0038076*
X00897177*
Y00380623*
X00896904*
Y00380487*
X00896631*
Y00380351*
X00896359*
Y00380214*
X00896086*
Y00380078*
X00895813*
Y00379942*
X00895404*
Y00379805*
X00895132*
Y00379669*
X00894723*
Y00379533*
X00894313*
Y00379396*
X00893904*
Y0037926*
X00893495*
Y00379124*
X00893086*
Y00378987*
X00892678*
Y00378851*
X00892132*
Y00378715*
X00891587*
Y00378578*
X00890905*
Y00378442*
X00890223*
Y00378306*
X00889405*
Y00378169*
X00888315*
Y00378033*
X00882998*
Y00378169*
X00881907*
Y00378306*
X00881089*
Y00378442*
X00880407*
Y00378578*
X00879725*
Y00378715*
X0087918*
Y00378851*
X00878771*
Y00378987*
X00878226*
Y00379124*
X00877817*
Y0037926*
X00877408*
Y00379396*
X00876999*
Y00379533*
X0087659*
Y00379669*
X00876317*
Y00379805*
X00875908*
Y00379942*
X00875635*
Y00380078*
X00875226*
Y00380214*
X00874954*
Y00380351*
X00874681*
Y00380487*
X00874408*
Y00380623*
X00874136*
Y0038076*
X00873863*
Y00380896*
X0087359*
Y00381032*
X00873317*
Y00381169*
X00873045*
Y00381305*
X00872772*
Y00381441*
X00872636*
Y00381578*
X00872363*
Y00381714*
X00872091*
Y0038185*
X00871954*
Y00381987*
X00871682*
Y00382123*
X00871545*
Y00382259*
X00871272*
Y00382397*
X00871136*
Y00382532*
X00870863*
Y00382668*
X00870727*
Y00382805*
X00870454*
Y00382941*
X00870318*
Y00383077*
X00870182*
Y00383214*
X00869909*
Y0038335*
X00869773*
Y00383487*
X00869636*
Y00383623*
X00869364*
Y00383759*
X00869227*
Y00383895*
X00869091*
Y00384032*
X00868955*
Y00384168*
X00868818*
Y00384304*
X00868546*
Y00384441*
X00868409*
Y00384577*
X00868273*
Y00384714*
X00868137*
Y0038485*
X00868*
Y00384986*
X00867864*
Y00385122*
X00867728*
Y00385259*
X00867591*
Y00385395*
X00867455*
Y00385532*
X00867319*
Y00385668*
X00867182*
Y00385804*
X00867046*
Y00385941*
X0086691*
Y00386077*
X00866773*
Y00386213*
X00866637*
Y0038635*
X00866501*
Y00386486*
X00866364*
Y00386622*
X00866228*
Y00386759*
X00866092*
Y00387031*
X00865955*
Y00387168*
X00865819*
Y00387304*
X00865683*
Y0038744*
X00865546*
Y00387577*
X0086541*
Y00387849*
X00865274*
Y00387986*
X00865137*
Y00388122*
X00865001*
Y00388395*
X00864865*
Y00388531*
X00864728*
Y00388667*
X00864592*
Y0038894*
X00864456*
Y00389076*
X00864319*
Y00389349*
X00864183*
Y00389485*
X00864047*
Y00389758*
X0086391*
Y00389894*
X00863774*
Y00390167*
X00863638*
Y00390303*
X00863501*
Y00390576*
X00863365*
Y00390849*
X00863229*
Y00390985*
X00863092*
Y00391258*
X00862956*
Y0039153*
X0086282*
Y00391803*
X00862683*
Y00392076*
X00862547*
Y00392348*
X00862411*
Y00392621*
X00862274*
Y00392894*
X00862138*
Y00393166*
X00862001*
Y00393439*
X00861865*
Y00393712*
X00861729*
Y00394121*
X00861592*
Y00394393*
X00861456*
Y00394803*
X0086132*
Y00395212*
X00861183*
Y0039562*
X00861047*
Y0039603*
X00860911*
Y00396439*
X00860775*
Y00396848*
X00860638*
Y00397393*
X00860502*
Y00397938*
X00860366*
Y0039862*
X00860229*
Y00399302*
X00860093*
Y0040012*
X00859957*
Y0040121*
X0085982*
Y00402437*
X00859684*
Y00405301*
X0085982*
Y00406664*
X00859957*
Y00407755*
X00860093*
Y00408573*
X00860229*
Y00409254*
X00860366*
Y004098*
X00860502*
Y00410345*
X00860638*
Y0041089*
X00860775*
Y00411299*
X00860911*
Y00411845*
X00861047*
Y00412254*
X00861183*
Y00412663*
X0086132*
Y00412935*
X00861456*
Y00413344*
X00861592*
Y00413617*
X00861729*
Y00414026*
X00861865*
Y00414299*
X00862001*
Y00414571*
X00862138*
Y0041498*
X00862274*
Y00415253*
X00862411*
Y00415526*
X00862547*
Y00415798*
X00862683*
Y00416071*
X0086282*
Y00416207*
X00862956*
Y0041648*
X00863092*
Y00416753*
X00863229*
Y00417025*
X00863365*
Y00417162*
X00863501*
Y00417434*
X00863638*
Y00417707*
X00863774*
Y00417844*
X0086391*
Y00418116*
X00864047*
Y00418253*
X00864183*
Y00418525*
X00864319*
Y00418662*
X00864456*
Y00418934*
X00864592*
Y00419071*
X00864728*
Y00419207*
X00864865*
Y00419481*
X00865001*
Y00419616*
X00865137*
Y00419752*
X00865274*
Y00420025*
X0086541*
Y00420161*
X00865546*
Y00420298*
X00865683*
Y00420434*
X00865819*
Y00420707*
X00865955*
Y00420843*
X00866092*
Y00420979*
X00866228*
Y00421116*
X00866364*
Y00421252*
X00866501*
Y00421388*
X00866637*
Y00421525*
X00866773*
Y00421661*
X0086691*
Y00421797*
X00867046*
Y0042207*
X00867182*
Y00422206*
X00867319*
Y00422343*
X00867455*
Y00422479*
X00867728*
Y00422615*
X00867864*
Y00422752*
X00868*
Y00422888*
X00868137*
Y00423024*
X00868273*
Y00423161*
X00868409*
Y00423297*
X00868546*
Y00423433*
X00868682*
Y0042357*
X00868818*
Y00423706*
X00869091*
Y00423842*
X00869227*
Y00423979*
X00869364*
Y00424115*
X008695*
Y00424251*
X00869636*
Y00424388*
X00869909*
Y00424524*
X00870045*
Y0042466*
X00870182*
Y00424797*
X00870454*
Y00424933*
X00870591*
Y00425069*
X00870863*
Y00425206*
X00871*
Y00425342*
X00871136*
Y00425479*
X00871409*
Y00425615*
X00871682*
Y00425751*
X00871818*
Y00425887*
X00872091*
Y00426024*
X00872227*
Y0042616*
X008725*
Y00426296*
X00872772*
Y00426433*
X00872908*
Y00426569*
X00873181*
Y00426706*
X00873454*
Y00426842*
X00873727*
Y00426978*
X00873999*
Y00427115*
X00874272*
Y00427251*
X00874545*
Y00427387*
X00874817*
Y00427523*
X0087509*
Y0042766*
X00875499*
Y00427796*
X00875772*
Y00427933*
X00876181*
Y00428069*
X00876453*
Y00428205*
X00876862*
Y00428342*
X00877271*
Y00428478*
X0087768*
Y00428614*
X00878089*
Y00428752*
X00878498*
Y00428887*
X00879044*
Y00429023*
X00879589*
Y0042916*
X00880134*
Y00429296*
X00880816*
Y00429432*
X00881634*
Y00429569*
X00882588*
Y00429705*
X00884088*
Y00429841*
X00887224*
Y00429705*
G37*
G36*
X01008019D02*
X01009791D01*
Y00429569*
X01010882*
Y00429432*
X010117*
Y00429296*
X01012382*
Y0042916*
X01012927*
Y00429023*
X01013473*
Y00428887*
X01014018*
Y00428752*
X01014427*
Y00428614*
X01014972*
Y00428478*
X01015381*
Y00428342*
X01015654*
Y00428205*
X01016063*
Y00428069*
X01016472*
Y00427933*
X01016745*
Y00427796*
X01017154*
Y0042766*
X01017426*
Y00427523*
X01017699*
Y00427387*
X01017972*
Y00427251*
X01018244*
Y00427115*
X01018517*
Y00426978*
X0101879*
Y00426842*
X01019062*
Y00426706*
X01019335*
Y00426569*
X01019608*
Y00426433*
X01019881*
Y00426296*
X01020017*
Y0042616*
X0102029*
Y00426024*
X01020562*
Y00425887*
X01020699*
Y00425751*
X01020971*
Y00425615*
X01021244*
Y00425479*
X0102138*
Y00425342*
X01021653*
Y00425206*
X01021789*
Y00425069*
X01021926*
Y00424933*
X01022198*
Y00424797*
X01022335*
Y0042466*
X01022471*
Y00424524*
X01022744*
Y00424388*
X0102288*
Y00424251*
X01023016*
Y00424115*
X01023289*
Y00423979*
X01023425*
Y00423842*
X01023562*
Y00423706*
X01023698*
Y0042357*
X01023834*
Y00423433*
X01024107*
Y00423297*
X01024243*
Y00423161*
X0102438*
Y00423024*
X01024516*
Y00422888*
X01024652*
Y00422752*
X01024789*
Y00422615*
X01024925*
Y00422479*
X01025061*
Y00422343*
X01025198*
Y00422206*
X01025334*
Y0042207*
X0102547*
Y00421934*
X01025607*
Y00421797*
X01025743*
Y00421661*
X01025879*
Y00421525*
X01026016*
Y00421388*
X01026152*
Y00421252*
X01026288*
Y00421116*
X01026425*
Y00420979*
X01026561*
Y00420707*
X01026697*
Y0042057*
X01026834*
Y00420434*
X0102697*
Y00420298*
X01027106*
Y00420161*
X01027243*
Y00419889*
X01027379*
Y00419752*
X01027515*
Y00419616*
X01027652*
Y00419343*
X01027788*
Y00419207*
X01027924*
Y00419071*
X01028061*
Y00418798*
X01028197*
Y00418662*
X01028333*
Y00418389*
X0102847*
Y00418253*
X01028606*
Y0041798*
X01028743*
Y00417844*
X01028879*
Y00417571*
X01029015*
Y00417434*
X01029152*
Y00417162*
X01029288*
Y00416889*
X01029424*
Y00416753*
X0102956*
Y0041648*
X01029697*
Y00416207*
X01029833*
Y00415935*
X0102997*
Y00415662*
X01030106*
Y0041539*
X01030242*
Y00415117*
X01030378*
Y00414844*
X01030515*
Y00414571*
X01030651*
Y00414299*
X01030787*
Y0041389*
X01030924*
Y00413617*
X0103106*
Y00413208*
X01031197*
Y00412935*
X01031333*
Y00412526*
X01031469*
Y00412117*
X01031606*
Y00411708*
X01031742*
Y00411299*
X01031878*
Y00410754*
X01032015*
Y0041021*
X01032151*
Y00409663*
X01032287*
Y00409118*
X01032424*
Y004083*
X0103256*
Y00407482*
X01032696*
Y00406391*
X01032833*
Y00404619*
X01032969*
Y00403119*
X01032833*
Y00401347*
X01032696*
Y00400256*
X0103256*
Y00399438*
X01032424*
Y0039862*
X01032287*
Y00398075*
X01032151*
Y00397529*
X01032015*
Y00396984*
X01031878*
Y00396439*
X01031742*
Y0039603*
X01031606*
Y0039562*
X01031469*
Y00395212*
X01031333*
Y00394803*
X01031197*
Y0039453*
X0103106*
Y00394121*
X01030924*
Y00393848*
X01030787*
Y00393439*
X01030651*
Y00393166*
X01030515*
Y00392894*
X01030378*
Y00392621*
X01030242*
Y00392348*
X01030106*
Y00392076*
X0102997*
Y00391803*
X01029833*
Y0039153*
X01029697*
Y00391258*
X0102956*
Y00390985*
X01029424*
Y00390849*
X01029288*
Y00390576*
X01029152*
Y00390303*
X01029015*
Y00390167*
X01028879*
Y00389894*
X01028743*
Y00389758*
X01028606*
Y00389485*
X0102847*
Y00389349*
X01028333*
Y00389076*
X01028197*
Y0038894*
X01028061*
Y00388667*
X01027924*
Y00388531*
X01027788*
Y00388395*
X01027652*
Y00388122*
X01027515*
Y00387986*
X01027379*
Y00387849*
X01027243*
Y00387577*
X01027106*
Y0038744*
X0102697*
Y00387304*
X01026834*
Y00387168*
X01026697*
Y00387031*
X01026561*
Y00386895*
X01026425*
Y00386622*
X01026288*
Y00386486*
X01026152*
Y0038635*
X01026016*
Y00386213*
X01025879*
Y00386077*
X01025743*
Y00385941*
X01025607*
Y00385804*
X0102547*
Y00385668*
X01025334*
Y00385532*
X01025198*
Y00385395*
X01025061*
Y00385259*
X01024925*
Y00385122*
X01024789*
Y00384986*
X01024652*
Y0038485*
X01024516*
Y00384714*
X0102438*
Y00384577*
X01024243*
Y00384441*
X01024107*
Y00384304*
X01023834*
Y00384168*
X01023698*
Y00384032*
X01023562*
Y00383895*
X01023425*
Y00383759*
X01023289*
Y00383623*
X01023016*
Y00383487*
X0102288*
Y0038335*
X01022744*
Y00383214*
X01022471*
Y00383077*
X01022335*
Y00382941*
X01022198*
Y00382805*
X01021926*
Y00382668*
X01021789*
Y00382532*
X01021516*
Y00382397*
X0102138*
Y00382259*
X01021107*
Y00382123*
X01020971*
Y00381987*
X01020699*
Y0038185*
X01020562*
Y00381714*
X0102029*
Y00381578*
X01020017*
Y00381441*
X01019881*
Y00381305*
X01019608*
Y00381169*
X01019335*
Y00381032*
X01019062*
Y00380896*
X0101879*
Y0038076*
X01018517*
Y00380623*
X01018244*
Y00380487*
X01017972*
Y00380351*
X01017699*
Y00380214*
X01017426*
Y00380078*
X01017154*
Y00379942*
X01016745*
Y00379805*
X01016472*
Y00379669*
X01016063*
Y00379533*
X01015654*
Y00379396*
X01015245*
Y0037926*
X01014836*
Y00379124*
X01014427*
Y00378987*
X01014018*
Y00378851*
X01013473*
Y00378715*
X01012927*
Y00378578*
X01012382*
Y00378442*
X010117*
Y00378306*
X01010882*
Y00378169*
X01009791*
Y00378033*
X01008019*
Y00377897*
X01005974*
Y00378033*
X01004065*
Y00378169*
X01003111*
Y00378306*
X01002293*
Y00378442*
X01001611*
Y00378578*
X0100093*
Y00378715*
X01000384*
Y00378851*
X00999975*
Y00378987*
X0099943*
Y00379124*
X00999021*
Y0037926*
X00998612*
Y00379396*
X00998203*
Y00379533*
X00997794*
Y00379669*
X00997521*
Y00379805*
X00997112*
Y00379942*
X00996839*
Y00380078*
X00996567*
Y00380214*
X00996158*
Y00380351*
X00995885*
Y00380487*
X00995612*
Y00380623*
X0099534*
Y0038076*
X00995067*
Y00380896*
X00994794*
Y00381032*
X00994522*
Y00381169*
X00994249*
Y00381305*
X00994113*
Y00381441*
X0099384*
Y00381578*
X00993567*
Y00381714*
X00993431*
Y0038185*
X00993158*
Y00381987*
X00992886*
Y00382123*
X00992749*
Y00382259*
X00992477*
Y00382397*
X0099234*
Y00382532*
X00992068*
Y00382668*
X00991931*
Y00382805*
X00991795*
Y00382941*
X00991522*
Y00383077*
X00991386*
Y00383214*
X0099125*
Y0038335*
X00990977*
Y00383487*
X00990841*
Y00383623*
X00990704*
Y00383759*
X00990568*
Y00383895*
X00990295*
Y00384032*
X00990159*
Y00384168*
X00990023*
Y00384304*
X00989886*
Y00384441*
X0098975*
Y00384577*
X00989613*
Y00384714*
X00989477*
Y0038485*
X00989204*
Y00384986*
X00989068*
Y00385122*
X00988932*
Y00385259*
X00988795*
Y00385395*
X00988659*
Y00385532*
X00988523*
Y00385668*
X00988387*
Y00385804*
X0098825*
Y00385941*
X00988114*
Y00386077*
X00987978*
Y0038635*
X00987841*
Y00386486*
X00987705*
Y00386622*
X00987569*
Y00386759*
X00987432*
Y00386895*
X00987296*
Y00387031*
X00987159*
Y00387168*
X00987023*
Y0038744*
X00986887*
Y00387577*
X0098675*
Y00387713*
X00986614*
Y00387849*
X00986478*
Y00388122*
X00986341*
Y00388258*
X00986205*
Y00388395*
X00986069*
Y00388667*
X00985932*
Y00388804*
X00985796*
Y0038894*
X0098566*
Y00389213*
X00985523*
Y00389349*
X00985387*
Y00389622*
X00985251*
Y00389758*
X00985114*
Y00390031*
X00984978*
Y00390167*
X00984842*
Y0039044*
X00984705*
Y00390712*
X00984569*
Y00390849*
X00984433*
Y00391121*
X00984296*
Y00391394*
X0098416*
Y00391668*
X00984024*
Y00391939*
X00983887*
Y00392212*
X00983751*
Y00392485*
X00983615*
Y00392757*
X00983478*
Y0039303*
X00983342*
Y00393303*
X00983206*
Y00393576*
X00983069*
Y00393984*
X00982933*
Y00394257*
X00982797*
Y00394666*
X0098266*
Y00395075*
X00982524*
Y00395348*
X00982388*
Y00395757*
X00982251*
Y00396166*
X00982115*
Y00396711*
X00981979*
Y0039712*
X00981842*
Y00397666*
X00981706*
Y00398347*
X0098157*
Y00398893*
X00981433*
Y00399711*
X00981297*
Y00399983*
Y0040012*
Y00400665*
X00981161*
Y00402028*
X00981024*
Y00405709*
X00981161*
Y00407073*
X00981297*
Y00408027*
X00981433*
Y00408845*
X0098157*
Y00409391*
X00981706*
Y00410072*
X00981842*
Y00410618*
X00981979*
Y00411027*
X00982115*
Y00411572*
X00982251*
Y00411981*
X00982388*
Y0041239*
X00982524*
Y00412799*
X0098266*
Y00413072*
X00982797*
Y00413481*
X00982933*
Y00413753*
X00983069*
Y00414163*
X00983206*
Y00414435*
X00983342*
Y00414708*
X00983478*
Y0041498*
X00983615*
Y00415253*
X00983751*
Y00415526*
X00983887*
Y00415798*
X00984024*
Y00416071*
X0098416*
Y00416344*
X00984296*
Y00416617*
X00984433*
Y00416889*
X00984569*
Y00417025*
X00984705*
Y00417298*
X00984842*
Y00417571*
X00984978*
Y00417707*
X00985114*
Y0041798*
X00985251*
Y00418116*
X00985387*
Y00418389*
X00985523*
Y00418525*
X0098566*
Y00418798*
X00985796*
Y00418934*
X00985932*
Y00419071*
X00986069*
Y00419343*
X00986205*
Y00419481*
X00986341*
Y00419616*
X00986478*
Y00419889*
X00986614*
Y00420025*
X0098675*
Y00420161*
X00986887*
Y00420434*
X00987023*
Y0042057*
X00987159*
Y00420707*
X00987296*
Y00420843*
X00987432*
Y00420979*
X00987569*
Y00421116*
X00987705*
Y00421252*
X00987841*
Y00421525*
X00987978*
Y00421661*
X00988114*
Y00421797*
X0098825*
Y00421934*
X00988387*
Y0042207*
X00988523*
Y00422206*
X00988659*
Y00422343*
X00988795*
Y00422479*
X00988932*
Y00422615*
X00989068*
Y00422752*
X00989204*
Y00422888*
X00989341*
Y00423024*
X00989613*
Y00423161*
X0098975*
Y00423297*
X00989886*
Y00423433*
X00990023*
Y0042357*
X00990159*
Y00423706*
X00990295*
Y00423842*
X00990568*
Y00423979*
X00990704*
Y00424115*
X00990841*
Y00424251*
X00990977*
Y00424388*
X0099125*
Y00424524*
X00991386*
Y0042466*
X00991522*
Y00424797*
X00991795*
Y00424933*
X00991931*
Y00425069*
X00992068*
Y00425206*
X0099234*
Y00425342*
X00992477*
Y00425479*
X00992749*
Y00425615*
X00992886*
Y00425751*
X00993158*
Y00425887*
X00993431*
Y00426024*
X00993567*
Y0042616*
X0099384*
Y00426296*
X00994113*
Y00426433*
X00994249*
Y00426569*
X00994522*
Y00426706*
X00994794*
Y00426842*
X00995067*
Y00426978*
X0099534*
Y00427115*
X00995612*
Y00427251*
X00995885*
Y00427387*
X00996158*
Y00427523*
X0099643*
Y0042766*
X00996839*
Y00427796*
X00997112*
Y00427933*
X00997521*
Y00428069*
X00997794*
Y00428205*
X00998203*
Y00428342*
X00998612*
Y00428478*
X00999021*
Y00428614*
X0099943*
Y00428752*
X00999839*
Y00428887*
X01000384*
Y00429023*
X0100093*
Y0042916*
X01001611*
Y00429296*
X01002293*
Y00429432*
X01003111*
Y00429569*
X01004065*
Y00429705*
X01005838*
Y00429841*
X01008019*
Y00429705*
G37*
G36*
X00946667Y00428205D02*
X00947076D01*
Y00428069*
X00947349*
Y00427933*
X00947622*
Y0042766*
X00947758*
Y00427523*
X00947894*
Y00427387*
X00948031*
Y00427251*
X00948167*
Y00426978*
X00948303*
Y00426706*
X0094844*
Y00426433*
X00948576*
Y0042616*
X00948712*
Y00426024*
X00948849*
Y00425615*
X00948985*
Y00425479*
X00949121*
Y00425206*
X00949258*
Y00425069*
X00949394*
Y00424797*
X0094953*
Y00424524*
X00949667*
Y00424251*
X00949803*
Y00424115*
X00949939*
Y00423842*
X00950076*
Y0042357*
X00950212*
Y00423297*
X00950348*
Y00423024*
X00950485*
Y00422888*
X00950621*
Y00422615*
X00950757*
Y00422479*
X00950894*
Y00422206*
X0095103*
Y00421934*
X00951166*
Y00421661*
X00951303*
Y00421525*
X00951439*
Y00421252*
X00951575*
Y00420843*
X00951712*
Y00420707*
X00951848*
Y00420434*
X00951984*
Y00420298*
X00952121*
Y00420025*
X00952257*
Y00419752*
X00952393*
Y00419481*
X0095253*
Y00419343*
X00952666*
Y00419071*
X00952802*
Y00418798*
X00952939*
Y00418525*
X00953075*
Y00418253*
X00953211*
Y00418116*
X00953348*
Y00417844*
X00953484*
Y00417571*
X0095362*
Y00417434*
X00953757*
Y00417162*
X00953893*
Y00416889*
X00954029*
Y00416753*
X00954166*
Y00416344*
X00954302*
Y00416207*
X00954438*
Y00415935*
X00954575*
Y00415662*
X00954711*
Y00415526*
X00954847*
Y00415253*
X00954984*
Y0041498*
X0095512*
Y00414844*
X00955256*
Y00414571*
X00955393*
Y00414299*
X00955529*
Y00414026*
X00955666*
Y00413753*
X00955802*
Y00413617*
X00955938*
Y00413344*
X00956075*
Y00413072*
X00956211*
Y00412799*
X00956347*
Y00412663*
X00956484*
Y0041239*
X0095662*
Y00412254*
X00956756*
Y00411845*
X00956892*
Y00411708*
X00957029*
Y00411436*
X00957165*
Y00411163*
X00957301*
Y00411027*
X00957438*
Y00410618*
X00957574*
Y00410481*
X0095771*
Y0041021*
X00957847*
Y00410072*
X00957983*
Y004098*
X00958119*
Y00409527*
X00958256*
Y00409254*
X00958392*
Y00409118*
X00958529*
Y00408845*
X00958665*
Y00408573*
X00958801*
Y004083*
X00958938*
Y00408027*
X00959074*
Y00407891*
X0095921*
Y00407618*
X00959347*
Y00407346*
X00959483*
Y00407073*
X00959619*
Y00406937*
X00959756*
Y00406664*
X00959892*
Y00406391*
X00960028*
Y00406118*
X00960165*
Y00405846*
X00960301*
Y00405709*
X00960437*
Y00405437*
X00960574*
Y00405301*
X0096071*
Y00405028*
X00960846*
Y00404755*
X00960983*
Y00404482*
X00961119*
Y00404346*
X00961255*
Y00404074*
X00961392*
Y00403801*
X00961528*
Y00403528*
X00961664*
Y00403392*
X00961801*
Y00403119*
X00961937*
Y00402983*
X00962073*
Y00402574*
X0096221*
Y00402437*
X00962346*
Y00402165*
X00962482*
Y00401892*
X00962619*
Y00401619*
X00962755*
Y00401347*
X00962891*
Y0040121*
X00963028*
Y00400939*
X00963164*
Y00400801*
X009633*
Y00400392*
X00963437*
Y00400256*
X00963573*
Y00399983*
X00963709*
Y00399847*
X00963846*
Y00399574*
X00963982*
Y00399165*
X00964118*
Y00399029*
X00964255*
Y00398756*
X00964391*
Y0039862*
X00964527*
Y00398347*
X00964664*
Y00398075*
X009648*
Y00397802*
X00964936*
Y00397666*
X00965073*
Y00397393*
X00965209*
Y00397256*
X00965346*
Y00396848*
X00965482*
Y00396575*
X00965618*
Y00396439*
X00965754*
Y00396166*
X00965891*
Y00395893*
X00966027*
Y0039562*
X00966163*
Y00395484*
X009663*
Y00395212*
X00966436*
Y00395075*
X00966572*
Y00394666*
X00966709*
Y0039453*
X00966845*
Y00394257*
X00966981*
Y00393984*
X00967118*
Y00393848*
X00967254*
Y00393439*
X00967391*
Y00393303*
X00967527*
Y0039303*
X00967663*
Y00392894*
X009678*
Y00392621*
X00967936*
Y00392348*
X00968072*
Y00392076*
X00968209*
Y00391939*
X00968345*
Y00391668*
X00968481*
Y00391394*
X00968617*
Y00391121*
X00968754*
Y00390985*
X0096889*
Y00390712*
X00969027*
Y00390576*
X00969163*
Y00390167*
X00969299*
Y00390031*
X00969436*
Y00389758*
X00969572*
Y00389485*
X00969708*
Y00389349*
X00969845*
Y0038894*
X00969981*
Y00388804*
X00970117*
Y00388531*
X00970254*
Y00388395*
X0097039*
Y00388122*
X00970526*
Y00387849*
X00970663*
Y00387577*
X00970799*
Y0038744*
X00970935*
Y00387168*
X00971072*
Y00386895*
X00971208*
Y00386622*
X00971344*
Y0038635*
X00971481*
Y00386213*
X00971617*
Y00385941*
X00971753*
Y00385804*
X0097189*
Y00385395*
X00972026*
Y00385259*
X00972162*
Y00384986*
X00972299*
Y0038485*
X00972435*
Y00384441*
X00972571*
Y00384168*
X00972708*
Y00384032*
X00972844*
Y00383759*
X0097298*
Y00383623*
X00973117*
Y00383214*
X00973253*
Y00383077*
X00973389*
Y00382805*
X00973526*
Y00382668*
X00973662*
Y00382397*
X00973798*
Y00382123*
X00973935*
Y0038185*
X00974071*
Y00381578*
X00974207*
Y00381441*
X00974344*
Y00381169*
X0097448*
Y00380896*
X00974616*
Y00380623*
X00974753*
Y00380487*
X00974889*
Y00380214*
X00975025*
Y00379805*
X00975162*
Y00378442*
X00975025*
Y00378306*
X00974889*
Y00378033*
X00974753*
Y00377897*
X00974616*
Y0037776*
X0097448*
Y00377624*
X00974207*
Y00377488*
X00973935*
Y00377351*
X00973526*
Y00377215*
X00918991*
Y00377351*
X00918445*
Y00377488*
X00918309*
Y00377624*
X00918036*
Y0037776*
X009179*
Y00378033*
X00917764*
Y00378169*
X00917627*
Y00378306*
X00917491*
Y00378987*
X00917355*
Y00379533*
X00917491*
Y00380078*
X00917627*
Y00380351*
X00917764*
Y00380623*
X009179*
Y0038076*
X00918036*
Y00381032*
X00918173*
Y00381305*
X00918309*
Y00381578*
X00918445*
Y00381714*
X00918582*
Y00381987*
X00918718*
Y00382259*
X00918854*
Y00382532*
X00918991*
Y00382805*
X00919127*
Y00382941*
X00919263*
Y00383214*
X009194*
Y00383487*
X00919536*
Y00383623*
X00919672*
Y00383895*
X00919809*
Y00384168*
X00919945*
Y00384304*
X00920081*
Y00384714*
X00920218*
Y0038485*
X00920354*
Y00385122*
X0092049*
Y00385395*
X00920627*
Y00385532*
X00920763*
Y00385804*
X00920899*
Y00386077*
X00921036*
Y00386213*
X00921172*
Y00386486*
X00921308*
Y00386759*
X00921445*
Y00387031*
X00921581*
Y00387304*
X00921717*
Y0038744*
X00921854*
Y00387713*
X0092199*
Y00387986*
X00922126*
Y00388258*
X00922263*
Y00388395*
X00922399*
Y00388667*
X00922535*
Y00388804*
X00922672*
Y00389213*
X00922808*
Y00389349*
X00922944*
Y00389622*
X00923081*
Y00389894*
X00923217*
Y00390031*
X00923353*
Y0039044*
X0092349*
Y00390576*
X00923626*
Y00390849*
X00923763*
Y00390985*
X00923899*
Y00391258*
X00924035*
Y0039153*
X00924172*
Y00391803*
X00924308*
Y00392076*
X00924444*
Y00392212*
X00924581*
Y00392485*
X00924717*
Y00392757*
X00924853*
Y0039303*
X00924989*
Y00393166*
X00925126*
Y00393439*
X00925262*
Y00393712*
X00925398*
Y00393984*
X00925535*
Y00394121*
X00925671*
Y00394393*
X00925807*
Y00394666*
X00925944*
Y00394939*
X0092608*
Y00395212*
X00926217*
Y00395348*
X00926353*
Y0039562*
X00926489*
Y00395757*
X00926626*
Y0039603*
X00926762*
Y00396302*
X00926898*
Y00396575*
X00927035*
Y00396711*
X00927171*
Y00396984*
X00927307*
Y00397256*
X00927444*
Y00397529*
X0092758*
Y00397802*
X00927716*
Y00397938*
X00927853*
Y00398211*
X00927989*
Y00398484*
X00928125*
Y0039862*
X00928262*
Y00398893*
X00928398*
Y00399165*
X00928534*
Y00399438*
X00928671*
Y00399711*
X00928807*
Y00399847*
X00928943*
Y0040012*
X0092908*
Y00400392*
X00929216*
Y00400665*
X00929352*
Y00400801*
X00929489*
Y00401074*
X00929625*
Y0040121*
X00929761*
Y00401483*
X00929898*
Y00401892*
X00930034*
Y00402028*
X0093017*
Y00402301*
X00930307*
Y00402437*
X00930443*
Y0040271*
X00930579*
Y00402983*
X00930716*
Y00403255*
X00930852*
Y00403392*
X00930988*
Y00403665*
X00931125*
Y00403801*
X00931261*
Y0040421*
X00931397*
Y00404482*
X00931534*
Y00404619*
X0093167*
Y00404892*
X00931806*
Y00405164*
X00931943*
Y00405437*
X00932079*
Y00405573*
X00932215*
Y00405846*
X00932352*
Y00405982*
X00932488*
Y00406391*
X00932624*
Y00406528*
X00932761*
Y004068*
X00932897*
Y00407073*
X00933033*
Y00407209*
X0093317*
Y00407618*
X00933306*
Y00407755*
X00933442*
Y00408027*
X00933579*
Y00408164*
X00933715*
Y00408436*
X00933851*
Y00408709*
X00933988*
Y00408982*
X00934124*
Y00409118*
X0093426*
Y00409391*
X00934397*
Y00409663*
X00934533*
Y00409936*
X00934669*
Y0041021*
X00934806*
Y00410345*
X00934942*
Y00410618*
X00935078*
Y00410754*
X00935215*
Y00411027*
X00935351*
Y00411299*
X00935488*
Y00411572*
X00935624*
Y00411708*
X0093576*
Y00412117*
X00935897*
Y0041239*
X00936033*
Y00412526*
X00936169*
Y00412799*
X00936306*
Y00412935*
X00936442*
Y00413208*
X00936578*
Y00413481*
X00936715*
Y00413617*
X00936851*
Y0041389*
X00936987*
Y00414163*
X00937124*
Y00414435*
X0093726*
Y00414708*
X00937396*
Y0041498*
X00937533*
Y00415117*
X00937669*
Y0041539*
X00937805*
Y00415662*
X00937942*
Y00415798*
X00938078*
Y00416071*
X00938214*
Y00416207*
X00938351*
Y0041648*
X00938487*
Y00416889*
X00938623*
Y00417025*
X0093876*
Y00417298*
X00938896*
Y00417434*
X00939032*
Y00417844*
X00939169*
Y0041798*
X00939305*
Y00418253*
X00939441*
Y00418389*
X00939578*
Y00418662*
X00939714*
Y00418934*
X0093985*
Y00419207*
X00939987*
Y00419481*
X00940123*
Y00419616*
X00940259*
Y00419889*
X00940396*
Y00420161*
X00940532*
Y00420434*
X00940668*
Y0042057*
X00940805*
Y00420843*
X00940941*
Y00420979*
X00941077*
Y00421388*
X00941214*
Y00421525*
X0094135*
Y00421797*
X00941486*
Y0042207*
X00941623*
Y00422206*
X00941759*
Y00422615*
X00941895*
Y00422752*
X00942032*
Y00423024*
X00942168*
Y00423161*
X00942304*
Y00423433*
X00942441*
Y00423706*
X00942577*
Y00423979*
X00942713*
Y00424115*
X0094285*
Y00424388*
X00942986*
Y00424797*
X00943122*
Y00424933*
X00943259*
Y00425206*
X00943395*
Y00425342*
X00943531*
Y00425615*
X00943668*
Y00425887*
X00943804*
Y00426024*
X0094394*
Y00426296*
X00944077*
Y00426569*
X00944213*
Y00426706*
X00944349*
Y00427115*
X00944486*
Y00427387*
X00944622*
Y00427523*
X00944759*
Y0042766*
X00944895*
Y00427796*
X00945031*
Y00427933*
X00945168*
Y00428069*
X0094544*
Y00428205*
X00945849*
Y00428342*
X00946667*
Y00428205*
G37*
G36*
X00955529Y0036808D02*
X0095662D01*
Y00367944*
X00957301*
Y00367808*
X00957847*
Y00367671*
X00958256*
Y00367535*
X00958529*
Y00367399*
X00958801*
Y00367262*
X00959074*
Y00367126*
X00959347*
Y0036699*
X00959483*
Y00366853*
X00959756*
Y00366717*
X00959892*
Y00366581*
X00960028*
Y00366444*
X00960165*
Y00366308*
X00960301*
Y00366035*
X00960437*
Y00365899*
X00960574*
Y00365626*
X0096071*
Y0036549*
X00960846*
Y00365217*
X00960983*
Y00364808*
X00961119*
Y00364536*
X00961255*
Y00364127*
X00961392*
Y00363581*
X00961528*
Y00362763*
X00958392*
Y00362627*
X00957983*
Y00363036*
X00957847*
Y00363445*
X0095771*
Y00363718*
X00957574*
Y0036399*
X00957438*
Y00364263*
X00957301*
Y00364399*
X00957165*
Y00364536*
X00957029*
Y00364672*
X00956756*
Y00364808*
X0095662*
Y00364945*
X00956211*
Y00365081*
X00955666*
Y00365217*
X00953893*
Y00365081*
X00953211*
Y00364945*
X00952939*
Y00364808*
X0095253*
Y00364672*
X00952393*
Y00364536*
X00952257*
Y00364399*
X00952121*
Y00364263*
X00951984*
Y0036399*
X00951848*
Y00363036*
X00951984*
Y00362763*
X00952121*
Y00362627*
X00952257*
Y00362354*
X0095253*
Y00362218*
X00952802*
Y00362081*
X00953075*
Y00361945*
X00953484*
Y00361809*
X00953757*
Y00361672*
X00954302*
Y00361536*
X00954711*
Y003614*
X0095512*
Y00361263*
X00955666*
Y00361127*
X00956211*
Y00360991*
X00956756*
Y00360854*
X00957165*
Y00360718*
X00957574*
Y00360582*
X00958119*
Y00360445*
X00958529*
Y00360309*
X00958801*
Y00360173*
X0095921*
Y00360036*
X00959483*
Y003599*
X00959619*
Y00359764*
X00959892*
Y00359627*
X00960028*
Y00359491*
X00960165*
Y00359355*
X00960437*
Y00359218*
X00960574*
Y00359082*
X0096071*
Y00358946*
X00960846*
Y00358809*
X00960983*
Y00358537*
X00961119*
Y003584*
X00961255*
Y00358264*
X00961392*
Y00357991*
X00961528*
Y00357719*
X00961664*
Y0035731*
X00961801*
Y00356901*
X00961937*
Y00356219*
X00962073*
Y00354719*
X00961937*
Y00354038*
X00961801*
Y00353628*
X00961664*
Y00353219*
X00961528*
Y00352947*
X00961392*
Y00352674*
X00961255*
Y00352401*
X00961119*
Y00352265*
X00960983*
Y00352129*
X00960846*
Y00351992*
X0096071*
Y00351856*
X00960574*
Y0035172*
X00960437*
Y00351584*
X00960301*
Y00351447*
X00960165*
Y00351311*
X00960028*
Y00351174*
X00959756*
Y00351038*
X00959619*
Y00350902*
X00959347*
Y00350765*
X0095921*
Y00350629*
X00958801*
Y00350493*
X00958529*
Y00350356*
X00957983*
Y0035022*
X00957438*
Y00350084*
X00956347*
Y00349947*
X00953757*
Y00350084*
X00952939*
Y0035022*
X00952257*
Y00350356*
X00951848*
Y00350493*
X00951439*
Y00350629*
X00951166*
Y00350765*
X00950894*
Y00350902*
X00950621*
Y00351038*
X00950348*
Y00351174*
X00950076*
Y00351311*
X00949939*
Y00351447*
X00949803*
Y00351584*
X00949667*
Y0035172*
X0094953*
Y00351856*
X00949394*
Y00351992*
X00949258*
Y00352265*
X00949121*
Y00352401*
X00948985*
Y00352538*
X00948849*
Y00352811*
X00948712*
Y00353083*
X00948576*
Y00353219*
X0094844*
Y00353628*
X00948303*
Y00353901*
X00948167*
Y0035431*
X00948031*
Y00354719*
X00947894*
Y00355401*
X00947758*
Y00355946*
X00948167*
Y00356083*
X0094953*
Y00356219*
X00950894*
Y00356355*
X00951166*
Y00356083*
X00951303*
Y00355537*
X00951439*
Y00355265*
X00951575*
Y00354856*
X00951712*
Y00354584*
X00951848*
Y0035431*
X00951984*
Y00354174*
X00952121*
Y00354038*
X00952257*
Y00353901*
X00952393*
Y00353765*
X0095253*
Y00353628*
X00952666*
Y00353492*
X00952939*
Y00353356*
X00953211*
Y00353219*
X0095362*
Y00353083*
X00954166*
Y00352947*
X00955938*
Y00353083*
X00956484*
Y00353219*
X00957029*
Y00353356*
X00957301*
Y00353492*
X00957438*
Y00353628*
X0095771*
Y00353765*
X00957847*
Y00353901*
X00957983*
Y00354174*
X00958119*
Y0035431*
X00958256*
Y00354584*
X00958392*
Y00354992*
X00958529*
Y00355674*
X00958392*
Y00356083*
X00958256*
Y00356355*
X00958119*
Y00356492*
X00957983*
Y00356628*
X00957847*
Y00356764*
X00957574*
Y00356901*
X00957301*
Y00357037*
X00957029*
Y00357173*
X0095662*
Y0035731*
X00956211*
Y00357446*
X00955666*
Y00357582*
X00955256*
Y00357719*
X00954711*
Y00357855*
X00954166*
Y00357991*
X0095362*
Y00358128*
X00953075*
Y00358264*
X00952802*
Y003584*
X00952393*
Y00358537*
X00951984*
Y00358673*
X00951575*
Y00358809*
X00951303*
Y00358946*
X0095103*
Y00359082*
X00950757*
Y00359218*
X00950621*
Y00359355*
X00950348*
Y00359491*
X00950212*
Y00359627*
X00950076*
Y00359764*
X00949939*
Y003599*
X00949803*
Y00360036*
X00949667*
Y00360173*
X0094953*
Y00360309*
X00949394*
Y00360582*
X00949258*
Y00360718*
X00949121*
Y00360991*
X00948985*
Y00361127*
X00948849*
Y00361536*
X00948712*
Y00361809*
X00948576*
Y00362354*
X0094844*
Y00364127*
X00948576*
Y00364672*
X00948712*
Y00365081*
X00948849*
Y00365354*
X00948985*
Y00365626*
X00949121*
Y00365899*
X00949258*
Y00366035*
X00949394*
Y00366172*
X0094953*
Y00366308*
X00949667*
Y00366444*
X00949803*
Y00366581*
X00949939*
Y00366717*
X00950076*
Y00366853*
X00950212*
Y0036699*
X00950485*
Y00367126*
X00950621*
Y00367262*
X00950757*
Y00367399*
X00951166*
Y00367535*
X00951439*
Y00367671*
X00951848*
Y00367808*
X00952257*
Y00367944*
X00952939*
Y0036808*
X00954029*
Y00368217*
X00955529*
Y0036808*
G37*
G36*
X00995203D02*
X00996158D01*
Y00367944*
X00996703*
Y00367808*
X00997112*
Y00367671*
X00997657*
Y00367535*
X0099793*
Y00367399*
X00998203*
Y00367262*
X00998475*
Y00367126*
X00998748*
Y0036699*
X00999021*
Y00366853*
X00999157*
Y00366717*
X0099943*
Y00366581*
X00999566*
Y00366444*
X00999703*
Y00366308*
X00999839*
Y00366172*
X00999975*
Y00366035*
X01000112*
Y00365899*
X01000248*
Y00365626*
X01000384*
Y0036549*
X01000521*
Y00365354*
X01000657*
Y00365081*
X01000793*
Y00364808*
X0100093*
Y00364672*
X01001066*
Y00364399*
X01001202*
Y00364127*
X01001339*
Y00363855*
X01001475*
Y00363445*
X01001611*
Y00363036*
X01001339*
Y003629*
X01000793*
Y00362763*
X01000248*
Y00362627*
X00999703*
Y0036249*
X00999021*
Y00362354*
X00998475*
Y00362218*
X00998066*
Y00362627*
X0099793*
Y003629*
X00997794*
Y00363172*
X00997657*
Y00363445*
X00997521*
Y00363718*
X00997385*
Y00363855*
X00997249*
Y0036399*
X00997112*
Y00364127*
X00996976*
Y00364263*
X00996839*
Y00364399*
X00996703*
Y00364536*
X0099643*
Y00364672*
X00996158*
Y00364808*
X00995885*
Y00364945*
X0099534*
Y00365081*
X00994522*
Y00365217*
X00994249*
Y00365081*
X00993431*
Y00364945*
X00993022*
Y00364808*
X00992613*
Y00364672*
X0099234*
Y00364536*
X00992068*
Y00364399*
X00991931*
Y00364263*
X00991659*
Y00364127*
X00991522*
Y0036399*
X00991386*
Y00363855*
X0099125*
Y00363718*
X00991113*
Y00363445*
X00990977*
Y00363172*
X00990841*
Y003629*
X00990704*
Y00362627*
X00990568*
Y00362354*
X00990432*
Y00361809*
X00990295*
Y00361263*
X00990159*
Y00360309*
X00990023*
Y00357991*
X00990159*
Y00357037*
X00990295*
Y00356355*
X00990432*
Y0035581*
X00990568*
Y00355401*
X00990704*
Y00355128*
X00990841*
Y00354856*
X00990977*
Y00354584*
X00991113*
Y00354447*
X0099125*
Y0035431*
X00991386*
Y00354174*
X00991522*
Y00354038*
X00991659*
Y00353901*
X00991795*
Y00353765*
X00992068*
Y00353628*
X00992204*
Y00353492*
X00992477*
Y00353356*
X00992886*
Y00353219*
X00993158*
Y00353083*
X00993976*
Y00352947*
X00994522*
Y00353083*
X0099534*
Y00353219*
X00995749*
Y00353356*
X00996021*
Y00353492*
X00996294*
Y00353628*
X00996567*
Y00353765*
X00996703*
Y00353901*
X00996839*
Y00354038*
X00996976*
Y00354174*
X00997112*
Y0035431*
X00997249*
Y00354584*
X00997385*
Y00354719*
X00997521*
Y00354992*
X00997657*
Y00355265*
X00997794*
Y00355537*
X0099793*
Y00355946*
X00998066*
Y00356355*
X00998203*
Y00356764*
X00998475*
Y00356628*
X00998884*
Y00356492*
X00999294*
Y00356355*
X00999703*
Y00356219*
X01000112*
Y00356083*
X01000657*
Y00355946*
X01001066*
Y0035581*
X01001475*
Y00355674*
X01001748*
Y00355537*
X01001611*
Y00355128*
X01001475*
Y00354856*
X01001339*
Y00354447*
X01001202*
Y00354174*
X01001066*
Y00353901*
X0100093*
Y00353628*
X01000793*
Y00353356*
X01000657*
Y00353083*
X01000521*
Y00352947*
X01000384*
Y00352674*
X01000248*
Y00352538*
X01000112*
Y00352401*
X00999975*
Y00352129*
X00999839*
Y00351992*
X00999703*
Y00351856*
X00999566*
Y0035172*
X0099943*
Y00351584*
X00999294*
Y00351447*
X00999157*
Y00351311*
X00998884*
Y00351174*
X00998748*
Y00351038*
X00998475*
Y00350902*
X00998203*
Y00350765*
X0099793*
Y00350629*
X00997521*
Y00350493*
X00997249*
Y00350356*
X00996703*
Y0035022*
X00996294*
Y00350084*
X00995476*
Y00349947*
X00993567*
Y00350084*
X00992749*
Y0035022*
X00992204*
Y00350356*
X00991795*
Y00350493*
X00991386*
Y00350629*
X00990977*
Y00350765*
X00990704*
Y00350902*
X00990432*
Y00351038*
X00990159*
Y00351174*
X00990023*
Y00351311*
X0098975*
Y00351447*
X00989613*
Y00351584*
X00989341*
Y0035172*
X00989204*
Y00351856*
X00989068*
Y00351992*
X00988932*
Y00352129*
X00988795*
Y00352265*
X00988659*
Y00352401*
X00988523*
Y00352538*
X00988387*
Y00352674*
X0098825*
Y00352947*
X00988114*
Y00353083*
X00987978*
Y00353219*
X00987841*
Y00353492*
X00987705*
Y00353765*
X00987569*
Y00354038*
X00987432*
Y0035431*
X00987296*
Y00354584*
X00987159*
Y00354992*
X00987023*
Y00355401*
X00986887*
Y0035581*
X0098675*
Y00356219*
X00986614*
Y00356901*
X00986478*
Y00357855*
X00986341*
Y003599*
X00986478*
Y00360991*
X00986614*
Y00361536*
X0098675*
Y00362218*
X00986887*
Y00362627*
X00987023*
Y00363172*
X00987159*
Y00363445*
X00987296*
Y00363855*
X00987432*
Y00364127*
X00987569*
Y00364399*
X00987705*
Y00364672*
X00987841*
Y00364808*
X00987978*
Y00365081*
X00988114*
Y00365217*
X0098825*
Y00365354*
X00988387*
Y00365626*
X00988523*
Y00365763*
X00988659*
Y00365899*
X00988795*
Y00366035*
X00988932*
Y00366172*
X00989204*
Y00366308*
X00989341*
Y00366444*
X00989477*
Y00366581*
X0098975*
Y00366717*
X00989886*
Y00366853*
X00990159*
Y0036699*
X00990295*
Y00367126*
X00990568*
Y00367262*
X00990841*
Y00367399*
X0099125*
Y00367535*
X00991522*
Y00367671*
X00991931*
Y00367808*
X0099234*
Y00367944*
X00992886*
Y0036808*
X0099384*
Y00368217*
X00995203*
Y0036808*
G37*
G36*
X0088886Y00357446D02*
Y0035731D01*
Y0035022*
X00885315*
Y00357991*
X00878362*
Y0035022*
X00874817*
Y00367944*
X00878362*
Y00360991*
X00885315*
Y00367944*
X0088886*
Y00357446*
G37*
G36*
X0102029Y00367808D02*
X01020153D01*
Y00367671*
X01020017*
Y00367535*
X01019881*
Y00367399*
X01019744*
Y00367262*
X01019608*
Y00367126*
Y0036699*
X01019472*
Y00366853*
X01019335*
Y00366717*
X01019199*
Y00366581*
X01019062*
Y00366444*
X01018926*
Y00366308*
X0101879*
Y00366172*
X01018653*
Y00366035*
X01018517*
Y00365899*
X01018381*
Y00365763*
X01018244*
Y00365626*
X01018108*
Y0036549*
X01017972*
Y00365354*
X01017835*
Y00365217*
X01017699*
Y00365081*
X01017563*
Y00364945*
X01017426*
Y00364808*
X0101729*
Y00364672*
X01017154*
Y00364536*
X01017017*
Y00364399*
X01016881*
Y00364263*
X01016745*
Y00364127*
X01016608*
Y0036399*
X01016472*
Y00363855*
X01016336*
Y00363718*
X01016199*
Y00363581*
X01016063*
Y00363445*
X01015927*
Y00363172*
X0101579*
Y00363036*
X01015654*
Y003629*
X01015518*
Y00362763*
X01015381*
Y00362627*
X01015245*
Y0036249*
X01015109*
Y00362354*
X01014972*
Y00362218*
X01014836*
Y00362081*
X010147*
Y00361945*
X01014563*
Y00361809*
X01014427*
Y00361672*
X01014291*
Y00361536*
X01014154*
Y003614*
X01014018*
Y00361263*
X01013882*
Y00361127*
X01013745*
Y00360854*
X01013882*
Y00360718*
X01014018*
Y00360445*
X01014154*
Y00360173*
X01014291*
Y00360036*
X01014427*
Y00359764*
X01014563*
Y00359627*
X010147*
Y00359355*
X01014836*
Y00359218*
X01014972*
Y00358946*
X01015109*
Y00358809*
X01015245*
Y00358537*
X01015381*
Y003584*
X01015518*
Y00358128*
X01015654*
Y00357855*
X0101579*
Y00357719*
X01015927*
Y00357446*
X01016063*
Y0035731*
X01016199*
Y00357037*
X01016336*
Y00356901*
X01016472*
Y00356628*
X01016608*
Y00356492*
X01016745*
Y00356219*
X01016881*
Y00356083*
X01017017*
Y0035581*
X01017154*
Y00355674*
X0101729*
Y00355401*
X01017426*
Y00355128*
X01017563*
Y00354992*
X01017699*
Y00354719*
X01017835*
Y00354584*
X01017972*
Y0035431*
X01018108*
Y00354174*
X01018244*
Y00353901*
X01018381*
Y00353765*
X01018517*
Y00353492*
X01018653*
Y00353356*
X0101879*
Y00353083*
X01018926*
Y00352811*
X01019062*
Y00352674*
X01019199*
Y00352401*
X01019335*
Y00352265*
X01019472*
Y00351992*
X01019608*
Y00351856*
X01019744*
Y00351584*
X01019881*
Y00351447*
X01020017*
Y00351174*
X01020153*
Y00351038*
X0102029*
Y00350765*
X01020426*
Y00350629*
X01020562*
Y00350356*
X01020699*
Y0035022*
X01016063*
Y00350493*
X01015927*
Y00350629*
X0101579*
Y00350902*
X01015654*
Y00351174*
X01015518*
Y00351311*
X01015381*
Y00351584*
X01015245*
Y00351856*
X01015109*
Y00351992*
X01014972*
Y00352265*
X01014836*
Y00352538*
X010147*
Y00352811*
X01014563*
Y00352947*
X01014427*
Y00353219*
X01014291*
Y00353492*
X01014154*
Y00353628*
X01014018*
Y00353901*
X01013882*
Y00354174*
X01013745*
Y0035431*
X01013609*
Y00354584*
X01013473*
Y00354856*
X01013336*
Y00355128*
X010132*
Y00355265*
X01013064*
Y00355537*
X01012927*
Y0035581*
X01012791*
Y00355946*
X01012655*
Y00356219*
X01012518*
Y00356492*
X01012382*
Y00356764*
X01012246*
Y00356901*
X01012109*
Y00357173*
X01011973*
Y00357446*
X01011837*
Y00357582*
X010117*
Y00357855*
X01011564*
Y00358128*
X01011428*
Y00358264*
X01011291*
Y00358537*
X01011155*
Y003584*
X01011019*
Y00358264*
X01010882*
Y00358128*
X01010746*
Y00357991*
X0101061*
Y00357855*
X01010473*
Y00357582*
X01010337*
Y00357446*
X010102*
Y0035731*
X01010064*
Y00357173*
X01009928*
Y00357037*
X01009791*
Y00356901*
X01009655*
Y00356764*
X01009519*
Y00356628*
X01009382*
Y00356492*
X01009246*
Y00356355*
X0100911*
Y00356219*
X01008974*
Y00356083*
X01008837*
Y00355946*
X01008701*
Y0035581*
X01008565*
Y00355674*
X01008428*
Y0035022*
X01004883*
Y00367944*
X01008428*
Y00360173*
X01008565*
Y00360309*
X01008701*
Y00360445*
X01008837*
Y00360582*
X01008974*
Y00360718*
X0100911*
Y00360991*
X01009246*
Y00361127*
X01009382*
Y00361263*
X01009519*
Y003614*
X01009655*
Y00361536*
X01009791*
Y00361672*
X01009928*
Y00361809*
X01010064*
Y00361945*
X010102*
Y00362081*
X01010337*
Y00362218*
X01010473*
Y00362354*
X0101061*
Y00362627*
X01010746*
Y00362763*
X01010882*
Y003629*
X01011019*
Y00363036*
X01011155*
Y00363172*
X01011291*
Y00363309*
X01011428*
Y00363445*
X01011564*
Y00363581*
X010117*
Y00363718*
X01011837*
Y00363855*
X01011973*
Y0036399*
X01012109*
Y00364263*
X01012246*
Y00364399*
X01012382*
Y00364536*
X01012518*
Y00364672*
X01012655*
Y00364808*
X01012791*
Y00364945*
X01012927*
Y00365081*
X01013064*
Y00365217*
X010132*
Y00365354*
X01013336*
Y0036549*
X01013473*
Y00365626*
X01013609*
Y00365899*
X01013745*
Y00366035*
X01013882*
Y00366172*
X01014018*
Y00366308*
X01014154*
Y00366444*
X01014291*
Y00366581*
X01014427*
Y00366717*
X01014563*
Y00366853*
X010147*
Y0036699*
X01014836*
Y00367126*
X01014972*
Y00367262*
X01015109*
Y00367399*
X01015245*
Y00367671*
X01015381*
Y00367808*
X01015518*
Y00367944*
X0102029*
Y00367808*
G37*
G36*
X00983615Y0035022D02*
X0098007D01*
Y00367944*
X00983615*
Y0035022*
G37*
G36*
X00977752Y00364945D02*
X00972571D01*
Y0035022*
X00969027*
Y00364945*
X00963846*
Y00367944*
X00977752*
Y00364945*
G37*
G36*
X00939441D02*
X0093426D01*
Y0035022*
X00930716*
Y00364945*
X00925535*
Y00367944*
X00939441*
Y00364945*
G37*
G36*
X00917764Y00367808D02*
X009179D01*
Y00367535*
X00918036*
Y00367126*
X00918173*
Y00366853*
X00918309*
Y00366444*
X00918445*
Y00366172*
X00918582*
Y00365763*
X00918718*
Y0036549*
X00918854*
Y00365081*
X00918991*
Y00364808*
X00919127*
Y00364399*
X00919263*
Y00364127*
X009194*
Y00363718*
X00919536*
Y00363445*
X00919672*
Y00363036*
X00919809*
Y00362763*
X00919945*
Y00362354*
X00920081*
Y00362081*
X00920218*
Y00361672*
X00920354*
Y003614*
X0092049*
Y00360991*
X00920627*
Y00360718*
X00920763*
Y00360309*
X00920899*
Y00360036*
X00921036*
Y00359627*
X00921172*
Y00359355*
X00921308*
Y00358946*
X00921445*
Y00358673*
X00921581*
Y00358264*
X00921717*
Y00357991*
X00921854*
Y00357582*
X0092199*
Y0035731*
X00922126*
Y00357037*
X00922263*
Y00356628*
X00922399*
Y00356355*
X00922535*
Y00355946*
X00922672*
Y00355674*
X00922808*
Y00355265*
X00922944*
Y00354992*
X00923081*
Y00354584*
X00923217*
Y0035431*
X00923353*
Y00353901*
X0092349*
Y00353628*
X00923626*
Y00353219*
X00923763*
Y00352947*
X00923899*
Y00352538*
X00924035*
Y00352265*
X00924172*
Y00351856*
X00924308*
Y00351584*
X00924444*
Y00351174*
X00924581*
Y00350902*
X00924717*
Y00350493*
X00924853*
Y0035022*
X00921036*
Y00350356*
X00920899*
Y00350765*
X00920763*
Y00351174*
X00920627*
Y00351447*
X0092049*
Y00351856*
X00920354*
Y00352265*
X00920218*
Y00352538*
X00920081*
Y00352947*
X00919945*
Y00353356*
X00919809*
Y00353628*
X00919672*
Y00354038*
X00919536*
Y0035431*
X00912446*
Y00354174*
X0091231*
Y00353765*
X00912174*
Y00353356*
X00912037*
Y00353083*
X00911901*
Y00352674*
X00911765*
Y00352265*
X00911628*
Y00351856*
X00911492*
Y00351584*
X00911356*
Y00351174*
X00911219*
Y00350765*
X00911083*
Y00350356*
X00910947*
Y0035022*
X00907266*
Y00350629*
X00907402*
Y00350902*
X00907538*
Y00351311*
X00907675*
Y0035172*
X00907811*
Y00351992*
X00907947*
Y00352401*
X00908084*
Y00352674*
X0090822*
Y00353083*
X00908356*
Y00353356*
X00908493*
Y00353765*
X00908629*
Y00354174*
X00908765*
Y00354447*
X00908902*
Y00354856*
X00909038*
Y00355128*
X00909174*
Y00355537*
X00909311*
Y0035581*
X00909447*
Y00356219*
X00909583*
Y00356628*
X0090972*
Y00356901*
X00909856*
Y0035731*
X00909992*
Y00357582*
X00910129*
Y00357991*
X00910265*
Y00358264*
X00910401*
Y00358673*
X00910538*
Y00359082*
X00910674*
Y00359355*
X0091081*
Y00359764*
X00910947*
Y00360036*
X00911083*
Y00360445*
X00911219*
Y00360718*
X00911356*
Y00361127*
X00911492*
Y00361536*
X00911628*
Y00361809*
X00911765*
Y00362218*
X00911901*
Y0036249*
X00912037*
Y003629*
X00912174*
Y00363309*
X0091231*
Y00363581*
X00912446*
Y0036399*
X00912583*
Y00364263*
X00912719*
Y00364672*
X00912856*
Y00364945*
X00912992*
Y00365354*
X00913128*
Y00365763*
X00913265*
Y00366035*
X00913401*
Y00366444*
X00913537*
Y00366717*
X00913673*
Y00367126*
X0091381*
Y00367399*
X00913946*
Y00367808*
X00914082*
Y00367944*
X00917764*
Y00367808*
G37*
G36*
X0090563Y00364945D02*
X00896086D01*
Y00360991*
X00904948*
Y00357991*
X00896086*
Y00353219*
X00905902*
Y0035022*
X00892541*
Y00367944*
X0090563*
Y00364945*
G37*
G36*
X00973176Y00510505D02*
X00973371Y00510466D01*
X00973606Y00510388*
X00973879Y00510291*
X00974132Y00510154*
X00974386Y00509979*
X00974425Y00509959*
X00974503Y00509881*
X00974601Y00509744*
X00974737Y00509589*
X00974854Y00509374*
X00974971Y0050914*
X00975049Y00508847*
X00975069Y00508535*
Y00508516*
Y00508457*
X00975049Y00508359*
X0097503Y00508223*
X0097501Y00508086*
X00974952Y00507911*
X00974893Y00507735*
X00974796Y0050756*
X00974678Y00507384*
X00974522Y00507209*
X00974347Y00507033*
X00974132Y00506897*
X00973879Y0050676*
X00973586Y00506662*
X00973254Y00506604*
X00972864Y00506584*
X00972708*
X00972533Y00506604*
X00972318Y00506643*
X00972065Y00506701*
X00971811Y00506799*
X00971538Y00506916*
X00971304Y00507072*
X00971284Y00507092*
X00971206Y0050717*
X00971089Y00507287*
X00970972Y00507462*
X00970836Y00507677*
X00970738Y00507911*
X00970661Y00508203*
X00970621Y00508535*
Y00508555*
Y00508574*
X0097064Y00508691*
X00970661Y00508847*
X00970719Y00509062*
X00970797Y00509296*
X00970915Y0050953*
X00971089Y00509764*
X00971323Y00509998*
X00971362Y00510018*
X0097144Y00510076*
X00971577Y00510174*
X00971752Y00510271*
X00971987Y00510349*
X0097224Y00510447*
X00972533Y00510505*
X00972864Y00510525*
X00973001*
X00973176Y00510505*
G37*
G36*
X00942023Y00505707D02*
X00942082Y00505667D01*
X0094216Y00505629*
X00942199Y0050555*
X00942218Y00505453*
Y00503463*
Y00503424*
X00942199Y00503346*
X00942121Y0050321*
X00942082Y00503151*
X00942004Y00503093*
X00941965Y00503054*
X00941906Y00502995*
X00941848Y00502937*
X0094175Y00502839*
X00941653Y00502722*
X00941516Y00502585*
X0094136Y00502429*
X00941204Y00502254*
X00941009Y00502059*
X00940795Y00501844*
X0094058Y0050161*
X00940326Y00501337*
X00940054Y00501064*
X0093978Y00500771*
X00939468Y0050044*
X00939488Y0050042*
X00939507Y00500401*
X00939565Y00500342*
X00939624Y00500264*
X00939722Y00500186*
X00939819Y00500069*
X00939956Y00499932*
X00940112Y00499757*
X00940268Y00499581*
X00940463Y00499386*
X00940677Y00499152*
X00940892Y00498918*
X00941146Y00498645*
X00941419Y00498372*
X00941692Y0049806*
X00942004Y00497728*
X00942023Y00497709*
X00942043Y00497689*
X00942121Y00497592*
X00942179Y00497455*
X00942218Y00497396*
Y00497318*
Y00495329*
Y00495309*
X00942199Y00495251*
X00942179Y00495173*
X00942121Y00495114*
X00942102*
X00942043Y00495075*
X00941965Y00495056*
X00941828Y00495017*
X00941789*
X00941711Y00494997*
X00941575*
X00941399Y00494978*
X00941204Y00494958*
X00940951*
X00940697Y00494938*
X00940151*
X00939975Y00494958*
X00939761*
X00939527Y00494978*
X00939312Y00494997*
X00939097Y00495017*
X00939078*
X00939Y00495056*
X00938863Y00495134*
X00938668Y00495231*
Y00495251*
X00938649Y0049527*
X00938571Y00495387*
X00938434Y00495582*
X00938239Y00495836*
X00938005Y00496168*
X00937732Y00496577*
X00937381Y00497045*
X00936991Y00497592*
X00936971Y00497572*
X00936932Y00497513*
X00936815Y00497377*
X00936757Y00497299*
X00936659Y00497182*
X00936542Y00497045*
X00936425Y00496889*
X00936269Y00496694*
X00936093Y0049648*
X00935898Y00496226*
X00935684Y00495953*
X0093543Y00495641*
X00935157Y0049529*
X00935137Y00495251*
X00935059Y00495173*
X00934923Y00495075*
X00934728Y00495017*
X00934708*
X0093465Y00494997*
X00934552*
X00934435Y00494978*
X0093426Y00494958*
X00934045*
X00933791Y00494938*
X00933226*
X00933089Y00494958*
X00932933*
X00932621Y00494997*
X00932289Y00495036*
X00932133Y00495075*
X00931997Y00495095*
X0093188Y00495153*
X00931802Y00495192*
X00931743Y0049527*
X00931724Y00495329*
Y00495348*
Y00495387*
Y00495465*
Y00495582*
Y00495719*
Y00495894*
Y0049609*
Y00496324*
Y00496363*
Y00496441*
Y00496558*
X00931743Y00496694*
Y00497026*
Y00497201*
Y00497338*
Y00497377*
X00931763Y00497455*
X00931841Y00497592*
X0093188Y0049767*
X00931958Y00497767*
X00931977Y00497787*
X00931997Y00497806*
X00932055Y00497865*
X00932114Y00497943*
X00932211Y0049804*
X00932309Y00498157*
X00932445Y00498294*
X00932601Y0049845*
X00932777Y00498625*
X00932953Y0049884*
X00933167Y00499055*
X00933401Y00499308*
X00933655Y00499581*
X00933928Y00499874*
X0093424Y00500186*
X00934552Y00500518*
X00934513Y00500557*
X00934416Y00500654*
X0093426Y00500791*
X00934064Y00500986*
X00933811Y0050122*
X00933557Y00501473*
X00932972Y0050202*
X00932953Y00502039*
X00932914Y00502078*
X00932855Y00502137*
X00932777Y00502215*
X00932582Y00502429*
X00932348Y00502663*
X00932114Y00502917*
X00931919Y00503151*
X00931841Y00503249*
X00931782Y00503346*
X00931743Y00503405*
X00931724Y00503463*
Y00505453*
Y00505472*
Y00505492*
X00931782Y00505609*
X00931821Y00505648*
X0093188Y00505707*
X00931977Y00505726*
X00932114Y00505745*
X00932641*
X00932875Y00505726*
X00933148*
X0093346Y00505707*
X00933967*
X00934182Y00505687*
X00934845*
X00934942Y00505667*
X00935079Y0050559*
X00935157Y00505531*
X00935235Y00505453*
X00935254Y00505414*
X00935352Y00505297*
X00935489Y00505121*
X00935684Y00504868*
X00935918Y00504575*
X0093621Y00504205*
X00936561Y00503795*
X00936952Y00503346*
X00936971Y00503366*
X00936991Y00503405*
X00937049Y00503463*
X00937127Y00503561*
X00937205Y00503658*
X00937303Y00503775*
X00937537Y00504068*
X0093779Y00504399*
X00938063Y00504751*
X00938337Y00505102*
X00938571Y00505453*
Y00505472*
X0093861Y00505492*
X00938688Y0050557*
X00938824Y00505629*
X00938902Y00505667*
X00939331*
X00939527Y00505687*
X00940054*
X00940385Y00505707*
X00940541*
X00940716Y00505726*
X00941146*
X00941399Y00505745*
X00941867*
X00942023Y00505707*
G37*
G36*
X00911631Y00511539D02*
X00911729Y005115D01*
X00911787Y00511422*
Y00511403*
X00911807Y00511344*
X00911826Y00511227*
X00911846Y00511071*
X00911885Y00510856*
X00911943Y00510603*
X00912002Y00510271*
X0091206Y00509901*
Y00509881*
Y00509842*
X0091208Y00509784*
X00912099Y00509705*
X00912119Y00509608*
X00912158Y00509471*
X00912197Y00509296*
Y00509276*
X00912216Y00509218*
X00912236Y0050914*
X00912255Y00509062*
X00912275Y00508828*
X00912295Y00508633*
Y00508613*
X00912275Y00508594*
X00912255Y00508555*
X00912197Y00508496*
X00912099Y00508437*
X00911963Y00508379*
X00911768Y0050832*
X00911495Y00508282*
X00911456*
X00911358Y00508262*
X00911202Y00508242*
X00911007Y00508203*
X00910812Y00508164*
X00910636Y00508106*
X0091048Y00508028*
X00910363Y0050795*
X00910344Y0050793*
X00910305Y00507873*
X00910246Y00507755*
X00910168Y00507599*
X0091009Y00507384*
X00910032Y00507111*
X00909993Y00506779*
X00909973Y0050637*
Y0050635*
Y00506311*
Y00506233*
X00909993Y00506136*
X00910012Y00505921*
X00910051Y00505667*
X00910597*
X00910792Y00505687*
X00911261*
X00911417Y00505707*
X0091208*
X00912197Y00505667*
X00912295Y00505609*
X00912334Y00505531*
X00912353Y00505453*
Y00505433*
Y00505355*
Y00505238*
Y00505063*
X00912373Y00504829*
Y00504556*
Y00504243*
X00912392Y00503873*
Y00503853*
Y00503814*
Y00503756*
Y00503678*
Y00503483*
Y00503229*
Y00502956*
Y00502702*
Y00502468*
Y00502273*
Y00502254*
Y00502234*
X00912353Y00502137*
X00912314Y00502078*
X00912275Y00502039*
X00912197Y0050202*
X00912099Y00502*
X0091167*
X00911397Y0050202*
X00911085*
X00910773Y00502039*
X00910461Y00502059*
X00910168Y00502078*
Y00502039*
Y00501922*
X00910188Y00501727*
Y00501454*
X00910207Y00501122*
X00910227Y00500713*
Y00500245*
X00910246Y00499718*
Y00499679*
Y00499581*
X00910266Y00499425*
Y00499191*
X00910285Y00498879*
Y00498703*
X00910305Y00498489*
X00910324Y00498274*
Y00498021*
X00910344Y00497767*
X00910363Y00497475*
Y00497455*
Y00497416*
Y00497338*
X00910383Y0049724*
Y00497123*
Y00496967*
X00910402Y00496655*
Y00496285*
X00910422Y00495914*
Y00495563*
Y00495231*
Y00495192*
X00910383Y00495114*
X00910344Y00495075*
X00910305Y00495017*
X00910227Y00494997*
X00910129Y00494978*
X00910051*
X00909915Y00494958*
X00909466*
X0090931Y00494938*
X00907496*
X00907223Y00494958*
X0090695*
X00906696Y00494978*
X00906598Y00494997*
X00906501*
X00906462Y00495017*
X00906345Y00495075*
X00906267Y00495134*
X00906208Y00495212*
X00906169Y00495329*
X0090615Y00495446*
Y00501669*
Y00501688*
Y00501727*
X0090613Y00501766*
X00906091Y00501844*
X00906033Y00501904*
X00905955Y00501942*
X00905857Y00501981*
X00905701Y00502*
X00905564*
X00905447Y00501981*
X00905155*
X00905038Y00502*
X00904921Y00502039*
X00904882Y00502078*
X00904862Y00502137*
Y00502156*
Y00502176*
Y00502234*
X00904843Y00502332*
Y00502429*
X00904823Y00502546*
Y00502702*
Y00502878*
X00904804Y00503054*
Y00503268*
X00904784Y00503502*
Y00503775*
X00904765Y00504048*
Y00504341*
Y00504673*
Y00505004*
Y00505024*
Y00505082*
X00904784Y00505141*
X00904823Y00505238*
X00904862Y00505316*
X0090494Y00505394*
X00905057Y00505472*
X00905194Y00505512*
X00905252*
X0090533Y00505531*
X00905428*
X00905682Y0050555*
X00905974Y0050557*
Y0050559*
Y00505609*
Y00505726*
X00905955Y00505882*
Y00506077*
X00905935Y00506311*
Y00506545*
X00905916Y0050676*
Y00506975*
Y00506994*
Y00507052*
Y0050715*
X00905935Y00507287*
Y00507443*
X00905955Y00507638*
X00906013Y00508047*
X00906111Y00508516*
X00906228Y00508984*
X00906423Y00509432*
X0090654Y00509627*
X00906676Y00509803*
X00906696Y00509822*
X00906754Y00509881*
X00906832Y00509959*
X00906969Y00510076*
X00907125Y00510213*
X0090732Y00510369*
X00907554Y00510525*
X00907847Y00510681*
X00908159Y00510837*
X0090851Y00511012*
X009089Y00511149*
X00909349Y00511286*
X00909817Y00511403*
X00910344Y00511481*
X00910909Y00511539*
X00911514Y00511559*
X00911553*
X00911631Y00511539*
G37*
G36*
X00961141Y00506116D02*
X00961179Y00506097D01*
X00961218Y00506058*
X00961257Y0050596*
X00961297Y00505843*
X00961336Y00505667*
X00961355Y00505433*
Y00505414*
Y00505336*
X00961375Y00505219*
X00961394Y00505102*
X00961414Y00504965*
X00961453Y00504848*
X00961492Y00504751*
X0096155Y00504712*
X0096157Y00504731*
X00961609Y0050477*
X00961667Y00504809*
X00961784Y00504887*
X0096194Y00504985*
X00962174Y00505121*
X0096233Y00505199*
X00962486Y00505297*
X00962506*
X00962545Y00505316*
X00962604Y00505355*
X00962682Y00505394*
X00962877Y00505492*
X0096315Y00505609*
X00963481Y00505707*
X00963813Y00505804*
X00964184Y00505882*
X00964554Y00505902*
X00964652*
X00964749Y00505882*
X00964886Y00505863*
X00965003Y00505824*
X009651Y00505785*
X00965179Y00505707*
X00965198Y00505609*
Y0050559*
Y0050555*
Y00505472*
Y00505375*
X00965179Y00505238*
X00965159Y00505082*
X0096514Y00504907*
X0096512Y00504692*
Y00504673*
Y00504595*
X009651Y00504478*
Y00504341*
X00965081Y00504029*
X00965061Y00503892*
Y00503775*
Y00503756*
Y00503717*
Y00503639*
Y00503541*
Y00503424*
Y00503268*
Y00503093*
Y00502897*
Y00502878*
Y005028*
Y00502683*
X00965081Y00502546*
Y00502254*
Y00502117*
Y0050202*
Y00502*
Y00501942*
X00965061Y00501883*
X00965022Y00501805*
X00964964Y00501707*
X00964886Y0050165*
X00964769Y0050159*
X00964613Y00501571*
X00964262*
X00963988Y0050159*
X0096393*
X00963852Y0050161*
X00963754*
X00963559Y0050163*
X00963208*
X00963052Y0050161*
X00962838Y0050159*
X00962623Y00501552*
X00962428Y00501512*
X00962233Y00501434*
X00962077Y00501337*
X00962057Y00501317*
X00962018Y00501278*
X00961979Y005012*
X00961921Y00501083*
X00961843Y00500927*
X00961804Y00500732*
X00961765Y00500479*
X00961745Y00500167*
Y00500147*
Y00500069*
Y00499952*
Y00499796*
Y00499581*
Y00499328*
X00961765Y00499035*
Y00498684*
Y00498664*
Y00498645*
Y00498528*
Y00498352*
X00961784Y00498138*
Y00497904*
Y0049765*
Y00497416*
Y00497221*
Y00497201*
Y00497162*
Y00497084*
Y00496967*
X00961804Y00496831*
Y00496655*
Y0049646*
X00961823Y00496226*
Y00496207*
X00961843Y00496128*
Y00496011*
X00961862Y00495875*
X00961882Y00495563*
Y00495407*
Y0049529*
Y0049527*
Y00495251*
X00961843Y00495134*
X00961784Y00495095*
X00961726Y00495036*
X00961628Y00494997*
X00961492Y00494978*
X00961394*
X00961257Y00494958*
X00960848*
X00960575Y00494938*
X00959229*
X00958956Y00494958*
X00958663*
X0095839Y00494978*
X00958117Y00494997*
X00958097*
X00958058Y00495017*
X00957941Y00495075*
X00957824Y00495173*
X00957785Y0049527*
X00957766Y00495368*
Y00495387*
Y00495407*
Y00495465*
Y00495543*
Y00495641*
Y00495738*
Y00495875*
Y0049605*
Y00496226*
Y00496421*
Y00496636*
Y00496889*
Y00497143*
Y00497435*
Y00497728*
Y0049806*
Y00498079*
Y00498138*
Y00498235*
Y00498352*
Y00498508*
Y00498684*
X00957785Y00499074*
Y00499503*
Y00499952*
Y00500401*
Y00500596*
Y00500771*
Y0050081*
Y00500888*
Y00501025*
Y0050122*
X00957766Y00501434*
Y00501707*
X00957746Y00502*
X00957727Y00502312*
X00957707Y00502644*
X00957668Y00502995*
X00957571Y00503736*
X00957454Y00504458*
X00957376Y00504809*
X00957298Y00505141*
Y0050516*
Y00505199*
X00957278Y00505297*
Y00505316*
X00957298Y00505394*
X00957337Y00505453*
X00957434Y00505512*
X00957473*
X00957551Y00505531*
X00957707Y0050555*
X00957902Y0050557*
X00958156Y00505609*
X00958469Y00505667*
X00958839Y00505726*
X00959248Y00505785*
X00959268*
X00959326Y00505804*
X00959424Y00505824*
X00959521Y00505843*
X00959658Y00505863*
X00959814Y00505902*
X00960146Y0050596*
X00960497Y00506019*
X00960653Y00506058*
X00960789Y00506077*
X00960906Y00506097*
X00961004Y00506116*
X00961063Y00506136*
X00961121*
X00961141Y00506116*
G37*
G36*
X00949241Y0050637D02*
X00949397Y0050635D01*
X00949573Y00506331*
X00949963Y00506233*
X00950412Y00506077*
X00950646Y0050598*
X0095088Y00505863*
X00951114Y00505726*
X00951328Y0050555*
X00951543Y00505355*
X00951738Y00505141*
X00951757Y00505121*
X00951836Y00505102*
X00951855*
X00951875Y00505121*
X00951894Y0050516*
X00951914Y00505238*
X00951953Y00505316*
X00952011Y00505453*
X0095205Y00505629*
Y00505648*
X0095207Y00505707*
X00952109Y00505804*
X00952148Y00505902*
X00952187Y00505999*
X00952246Y00506097*
X00952304Y00506155*
X00952362Y00506175*
X0095244*
X00952557Y00506155*
X00952713*
X00952928Y00506116*
X00953201Y00506077*
X00953552Y00506019*
X00953942Y00505941*
X00954001*
X00954059Y00505921*
X00954118Y00505902*
X00954332Y00505863*
X00954567Y00505804*
X0095484Y00505745*
X00955113Y00505687*
X00955347Y00505629*
X00955561Y0050557*
X00955581Y0050555*
X00955639Y00505512*
X00955698Y00505453*
X00955718Y00505375*
Y00505336*
Y00505258*
X00955698Y00505141*
Y00505121*
X00955678Y00505043*
X00955659Y00504946*
X00955639Y0050479*
X009556Y00504595*
X00955581Y0050438*
X00955542Y00504126*
X00955503Y00503834*
X00955464Y00503541*
X00955425Y0050319*
X00955405Y00502839*
X00955366Y00502468*
X00955327Y00501669*
X00955308Y0050083*
Y00500791*
Y00500732*
Y00500674*
Y00500576*
Y00500459*
Y00500322*
X00955327Y00500186*
Y0050001*
Y00499815*
X00955347Y00499601*
Y00499367*
X00955366Y00499113*
Y0049884*
X00955386Y00498547*
X00955405Y00498235*
Y00498216*
Y00498157*
X00955425Y00498079*
Y00497962*
Y00497826*
X00955444Y0049765*
X00955464Y00497279*
X00955483Y0049687*
X00955503Y00496441*
X00955522Y00496031*
Y00495855*
Y00495681*
Y0049566*
Y00495602*
X00955503Y00495524*
X00955483Y00495446*
X00955425Y00495348*
X00955366Y0049527*
X00955269Y00495212*
X00955132Y00495192*
X00954996*
X00954879Y00495173*
X00954762*
X00954586Y00495153*
X00954215*
X00953981Y00495134*
X00953747*
X00953201Y00495114*
X00952596Y00495095*
X00951933*
X00951914Y00495114*
X00951875Y00495134*
X00951816Y00495173*
X00951757Y00495251*
X00951699Y00495368*
X0095166Y00495524*
X00951621Y00495738*
Y00495758*
X00951601Y00495836*
Y00495933*
X00951582Y0049607*
X00951562Y00496187*
X00951523Y00496285*
X00951504Y00496363*
X00951465Y00496382*
X00951445*
X00951406Y00496343*
X00951328Y00496285*
X00951231Y00496207*
X00951211Y00496187*
X00951172Y00496148*
X00951114Y0049609*
X00951016Y00496011*
X00950899Y00495914*
X00950763Y00495797*
X00950587Y00495699*
X00950412Y00495582*
X00950021Y00495348*
X00949553Y00495134*
X009493Y00495056*
X00949046Y00494997*
X00948792Y00494958*
X00948519Y00494938*
X00948422*
X00948305Y00494958*
X00948149*
X00947973Y00494997*
X00947758Y00495036*
X00947505Y00495075*
X00947251Y00495153*
X00946959Y00495251*
X00946666Y00495368*
X00946374Y00495504*
X00946061Y00495681*
X00945769Y00495875*
X00945457Y00496109*
X00945164Y00496363*
X00944891Y00496675*
X00944872Y00496694*
X00944833Y00496753*
X00944774Y00496831*
X00944676Y00496967*
X00944579Y00497123*
X00944462Y00497299*
X00944345Y00497513*
X00944208Y00497767*
X00944091Y00498021*
X00943955Y00498313*
X00943838Y00498645*
X0094374Y00498977*
X00943642Y00499347*
X00943584Y00499718*
X00943545Y00500128*
X00943526Y00500537*
Y00500576*
Y00500654*
X00943545Y00500791*
Y00500966*
X00943565Y005012*
X00943604Y00501454*
X00943642Y00501727*
X00943701Y00502039*
X00943779Y00502371*
X00943877Y00502702*
X00943974Y00503054*
X00944111Y00503405*
X00944286Y00503756*
X00944462Y00504107*
X00944676Y00504419*
X0094493Y00504731*
X00944949Y00504751*
X00945008Y00504809*
X00945086Y00504887*
X00945203Y00504985*
X0094534Y00505121*
X00945535Y00505258*
X00945749Y00505414*
X00945983Y0050557*
X00946256Y00505707*
X00946549Y00505863*
X00946881Y00505999*
X00947251Y00506136*
X00947622Y00506233*
X00948051Y00506311*
X0094848Y0050637*
X00948949Y00506389*
X00949124*
X00949241Y0050637*
G37*
G36*
X00982462Y00506409D02*
X00982637D01*
X00982853Y00506389*
X00983107Y0050635*
X00983379Y00506292*
X00983691Y00506233*
X00984003Y00506136*
X00984334Y00506038*
X00984686Y00505902*
X00985037Y00505745*
X00985368Y0050557*
X0098572Y00505355*
X00986032Y00505102*
X00986344Y00504829*
X00986363Y00504809*
X00986422Y00504751*
X009865Y00504673*
X00986597Y00504536*
X00986714Y0050438*
X00986851Y00504205*
X00986988Y0050397*
X00987144Y00503717*
X0098728Y00503444*
X00987417Y00503132*
X00987553Y005028*
X0098767Y00502429*
X00987787Y00502039*
X00987865Y0050161*
X00987904Y00501181*
X00987924Y00500713*
Y00500693*
Y00500596*
X00987904Y00500459*
Y00500284*
X00987885Y00500069*
X00987846Y00499815*
X00987787Y00499523*
X00987729Y0049923*
X00987651Y00498898*
X00987534Y00498567*
X00987417Y00498216*
X00987261Y00497865*
X00987085Y00497513*
X0098687Y00497182*
X00986617Y0049685*
X00986344Y00496538*
X00986324Y00496519*
X00986266Y0049648*
X00986188Y00496382*
X00986051Y00496285*
X00985895Y00496168*
X009857Y00496031*
X00985486Y00495894*
X00985232Y00495738*
X00984959Y00495582*
X00984647Y00495446*
X00984295Y00495309*
X00983925Y00495192*
X00983535Y00495095*
X00983125Y00495017*
X00982676Y00494958*
X00982208Y00494938*
X00982091*
X00981974Y00494958*
X00981799*
X00981584Y00494997*
X0098135Y00495017*
X00981077Y00495075*
X00980765Y00495134*
X00980453Y00495212*
X00980121Y00495329*
X00979789Y00495446*
X00979438Y00495602*
X00979107Y00495777*
X00978775Y00495992*
X00978443Y00496245*
X00978131Y00496519*
X00978112Y00496538*
X00978073Y00496597*
X00977975Y00496675*
X00977878Y00496811*
X00977761Y00496967*
X00977624Y00497143*
X00977487Y00497377*
X00977332Y00497611*
X00977175Y00497904*
X00977039Y00498196*
X00976902Y00498528*
X00976785Y00498898*
X00976688Y00499269*
X0097661Y00499679*
X00976551Y00500108*
X00976532Y00500557*
Y00500596*
Y00500674*
X00976551Y0050081*
Y00500986*
X00976571Y0050122*
X0097661Y00501473*
X00976668Y00501766*
X00976727Y00502078*
X00976805Y0050241*
X00976902Y00502761*
X00977019Y00503112*
X00977175Y00503463*
X00977351Y00503814*
X00977546Y00504165*
X0097778Y00504497*
X00978053Y00504809*
X00978073Y00504829*
X00978131Y00504887*
X00978209Y00504965*
X00978326Y00505063*
X00978482Y0050518*
X00978678Y00505316*
X00978892Y00505472*
X00979146Y00505629*
X00979438Y00505765*
X0097975Y00505921*
X00980082Y00506058*
X00980453Y00506175*
X00980862Y00506272*
X00981272Y0050635*
X0098174Y00506409*
X00982208Y00506428*
X00982325*
X00982462Y00506409*
G37*
G36*
X00971245Y00505707D02*
X00971401Y00505687D01*
X00971596Y00505667*
X0097183Y00505648*
X00971928*
X00972045Y00505629*
X00972201*
X00972513Y00505609*
X00972669Y0050559*
X00973059*
X00973196Y00505609*
X00973352*
X00973547Y00505629*
X00973781Y00505648*
X0097382*
X00973898Y00505667*
X00974015*
X00974152Y00505687*
X00974464Y00505707*
X00974796*
X00974913Y00505687*
X0097501Y00505609*
X0097503Y0050555*
X00975049Y00505472*
Y00505433*
Y00505375*
X0097503Y00505258*
Y00505238*
X0097501Y0050516*
Y00505043*
X00974991Y00504868*
X00974971Y00504673*
X00974952Y00504419*
X00974913Y00504126*
X00974893Y00503795*
X00974874Y00503444*
X00974835Y00503054*
X00974815Y00502644*
X00974796Y00502195*
X00974776Y00501707*
Y0050122*
X00974757Y00500713*
Y00500167*
Y00500128*
Y0050001*
Y00499815*
Y00499562*
X00974776Y00499211*
Y00498782*
Y00498294*
X00974796Y00497709*
Y00497689*
Y0049763*
Y00497552*
Y00497435*
Y00497318*
X00974815Y00497162*
Y00496792*
Y00496402*
X00974835Y00496011*
Y00495621*
Y0049529*
Y00495251*
X00974796Y00495173*
X00974717Y00495075*
X00974659Y00495036*
X00974561Y00494997*
X00974483*
X00974366Y00494978*
X00974191*
X00973976Y00494958*
X00973664*
X00973489Y00494938*
X00972103*
X00971811Y00494958*
X00971518*
X00971284Y00494978*
X00971167Y00494997*
X00971089*
X0097105Y00495017*
X00970972Y00495036*
X00970875Y00495075*
X00970797Y00495134*
Y00495153*
Y00495192*
X00970777Y0049529*
Y00495368*
Y00495465*
Y00495504*
Y00495621*
Y00495797*
Y0049605*
Y00496382*
Y00496792*
X00970797Y0049726*
Y00497806*
Y00497826*
Y00497884*
Y00497962*
Y0049806*
Y00498196*
X00970816Y00498352*
Y00498703*
Y00499074*
X00970836Y00499464*
Y00499835*
Y00500167*
Y00500205*
Y00500303*
Y00500479*
Y00500693*
Y00500966*
X00970816Y00501278*
Y0050163*
X00970797Y00502*
Y0050241*
X00970777Y0050282*
X00970738Y00503658*
X00970661Y00504497*
X00970621Y00504887*
X00970582Y00505258*
Y00505297*
Y00505355*
X00970563Y00505433*
Y00505492*
Y00505512*
Y00505531*
X00970601Y00505609*
X0097064Y00505648*
X00970699Y00505687*
X00970777Y00505726*
X00971109*
X00971245Y00505707*
G37*
G36*
X0096787Y00498216D02*
X00968046Y00498177D01*
X00968222Y00498118*
X00968417Y00498021*
X00968612Y00497904*
X00968787Y00497748*
X00968807Y00497728*
X00968865Y0049767*
X00968943Y00497552*
X00969021Y00497416*
X00969099Y0049724*
X00969177Y00497045*
X00969236Y00496831*
X00969256Y00496577*
Y00496538*
Y0049646*
X00969236Y00496343*
X00969197Y00496168*
X00969138Y00495992*
X0096906Y00495797*
X00968943Y00495602*
X00968787Y00495407*
X00968768Y00495387*
X00968709Y00495329*
X00968612Y00495251*
X00968475Y00495173*
X009683Y00495095*
X00968105Y00495017*
X0096789Y00494958*
X00967636Y00494938*
X00967519*
X00967402Y00494958*
X00967246Y00494997*
X00967071Y00495056*
X00966876Y00495134*
X00966681Y00495251*
X00966486Y00495407*
X00966466Y00495427*
X00966407Y00495485*
X00966329Y00495602*
X00966251Y00495738*
X00966173Y00495914*
X00966095Y00496109*
X00966037Y00496324*
X00966017Y00496577*
Y00496616*
Y00496694*
X00966037Y00496811*
X00966076Y00496987*
X00966134Y00497162*
X00966212Y00497357*
X00966329Y00497552*
X00966486Y00497748*
X00966505Y00497767*
X00966563Y00497826*
X00966681Y00497904*
X00966817Y00498001*
X00966973Y00498079*
X00967168Y00498157*
X00967402Y00498216*
X00967636Y00498235*
X00967753*
X0096787Y00498216*
G37*
G36*
X00925442Y00506701D02*
X00925598D01*
X00925774Y00506682*
X00925989Y00506643*
X00926242Y00506584*
X00926496Y00506526*
X00926788Y00506448*
X00927081Y00506331*
X00927373Y00506214*
X00927686Y00506058*
X00927998Y00505882*
X0092831Y00505667*
X00928603Y00505414*
X00928895Y00505141*
X00928915Y00505121*
X00928954Y00505063*
X00929032Y00504985*
X00929129Y00504868*
X00929246Y00504712*
X00929383Y00504517*
X00929519Y00504322*
X00929656Y00504087*
X00929792Y00503814*
X00929929Y00503522*
X00930066Y0050321*
X00930183Y00502878*
X0093028Y00502527*
X00930358Y00502156*
X00930397Y00501786*
X00930417Y00501376*
Y00501356*
Y00501337*
Y00501278*
X00930397Y005012*
X00930378Y00501005*
X00930319Y00500791*
X00930241Y00500557*
X00930105Y00500342*
X00929929Y00500167*
X00929812Y00500108*
X00929675Y00500069*
X00929617*
X00929578Y00500049*
X00929441*
X00929344Y0050003*
X00929207Y0050001*
X00929051*
X00928856Y00499991*
X00928642Y00499971*
X00928388Y00499932*
X00928076Y00499913*
X00927744Y00499874*
X00927354Y00499835*
X00927296*
X00927217Y00499815*
X009271*
X00926964Y00499796*
X00926788Y00499776*
X00926593Y00499757*
X00926359Y00499737*
X00926106Y00499718*
X00925813Y00499698*
X00925481Y00499659*
X0092513Y0049962*
X0092474Y00499601*
X0092433Y00499562*
X00923882Y00499523*
X00923394Y00499484*
Y00499445*
X00923433Y00499367*
X00923472Y0049923*
X0092357Y00499074*
X00923687Y00498879*
X00923843Y00498703*
X00924057Y00498528*
X0092433Y00498372*
X00924369Y00498352*
X00924447Y00498313*
X00924584Y00498274*
X0092476Y00498216*
X00924994Y00498138*
X00925228Y00498099*
X0092552Y0049806*
X00925813Y0049804*
X00925989*
X00926184Y00498079*
X00926457Y00498118*
X00926749Y00498177*
X009271Y00498274*
X00927471Y00498411*
X00927842Y00498586*
X00927862Y00498606*
X0092792Y00498625*
X00927998Y00498684*
X00928116Y00498762*
X00928388Y00498937*
X009287Y00499133*
X00928719*
X00928739Y00499094*
X00928798Y00499055*
X00928895Y00498957*
X00928993Y00498801*
X00929129Y00498606*
X00929207Y00498489*
X00929305Y00498333*
X00929402Y00498177*
X009295Y00497982*
Y00497962*
X00929519Y00497943*
X00929597Y00497826*
X00929675Y0049765*
X00929792Y00497435*
X0092989Y00497201*
X00929987Y00496987*
X00930046Y00496811*
X00930066Y00496675*
Y00496655*
X00930046Y00496616*
X00929987Y00496519*
X0092987Y00496421*
X00929851Y00496402*
X00929812Y00496363*
X00929734Y00496285*
X00929617Y00496187*
X00929461Y0049607*
X00929285Y00495953*
X00929071Y00495816*
X00928817Y00495681*
X00928544Y00495543*
X00928232Y00495407*
X00927881Y0049529*
X00927491Y00495173*
X00927081Y00495075*
X00926613Y00494997*
X00926125Y00494958*
X00925598Y00494938*
X00925481*
X00925345Y00494958*
X0092515*
X00924916Y00494978*
X00924662Y00495017*
X00924369Y00495075*
X00924057Y00495134*
X00923706Y00495212*
X00923355Y00495309*
X00923004Y00495446*
X00922653Y00495582*
X00922282Y00495758*
X00921931Y00495972*
X00921599Y00496207*
X00921287Y0049648*
X00921268Y00496499*
X00921209Y00496558*
X00921131Y00496655*
X00921014Y00496772*
X00920897Y00496928*
X00920761Y00497123*
X00920604Y00497357*
X00920449Y0049763*
X00920273Y00497904*
X00920136Y00498235*
X0091998Y00498586*
X00919863Y00498957*
X00919746Y00499367*
X00919668Y00499815*
X0091961Y00500264*
X0091959Y00500752*
Y00500791*
Y00500869*
X0091961Y00501005*
Y00501181*
X00919629Y00501396*
X00919668Y00501669*
X00919707Y00501942*
X00919785Y00502254*
X00919863Y00502585*
X00919961Y00502937*
X00920078Y00503288*
X00920234Y00503639*
X0092039Y0050399*
X00920604Y00504341*
X00920819Y00504692*
X00921092Y00505004*
X00921112Y00505024*
X0092117Y00505082*
X00921248Y0050516*
X00921385Y00505277*
X00921541Y00505394*
X00921716Y0050555*
X00921951Y00505707*
X00922204Y00505863*
X00922477Y00506019*
X00922789Y00506175*
X00923121Y00506331*
X00923492Y00506448*
X00923882Y00506565*
X00924311Y00506643*
X0092476Y00506701*
X00925228Y00506721*
X00925325*
X00925442Y00506701*
G37*
G36*
X00918049Y00510817D02*
X00918127Y00510759D01*
X00918166Y00510681*
Y00510603*
Y00510427*
Y00510408*
Y00510369*
Y0051031*
X00918147Y00510213*
Y00510096*
Y00509959*
X00918127Y00509784*
Y00509608*
X00918108Y00509413*
X00918088Y00509179*
X00918069Y00508691*
X00918049Y00508125*
X0091801Y00507521*
X00917991Y00506877*
X00917951Y00506194*
X00917932Y00505472*
X00917913Y00504751*
X00917874Y00503268*
X00917854Y00502527*
Y00501825*
Y00501786*
Y00501688*
Y00501532*
Y00501317*
Y00501064*
Y00500752*
Y0050042*
Y00500069*
Y00499308*
Y00498508*
X00917874Y00498138*
Y00497767*
Y00497416*
Y00497084*
Y00497065*
Y00497026*
Y00496967*
Y0049687*
X00917893Y00496753*
Y00496597*
X00917913Y00496421*
X00917932Y00496207*
Y00496187*
Y00496109*
Y00496011*
X00917951Y00495875*
Y00495582*
Y00495446*
Y00495309*
Y0049527*
X00917913Y00495192*
X00917834Y00495095*
X00917776Y00495056*
X00917678Y00495017*
X00917659*
X00917581Y00494997*
X00917444*
X00917269Y00494978*
X00917015Y00494958*
X00916684*
X00916313Y00494938*
X00915396*
X00915123Y00494958*
X0091483*
X00914538Y00494978*
X00914284Y00494997*
X00914187*
X00914109Y00495017*
X0091407Y00495036*
X00913992Y00495075*
X00913894Y00495173*
X00913875Y00495251*
X00913855Y00495329*
Y00495797*
Y00495816*
Y00495836*
Y00495914*
Y00495992*
Y0049609*
Y00496226*
Y00496382*
Y00496558*
Y00496753*
Y00496987*
Y00497221*
Y00497494*
Y00497787*
Y00498118*
Y0049845*
Y0049882*
Y0049884*
Y00498918*
Y00499016*
Y00499152*
Y00499308*
Y00499503*
Y00499718*
X00913875Y00499952*
Y0050044*
Y00500927*
Y00501415*
Y0050163*
Y00501825*
X00913894Y00506136*
Y00506155*
Y00506253*
Y0050637*
Y00506545*
X00913875Y0050676*
Y00507014*
X00913855Y00507287*
Y00507599*
X00913836Y0050793*
X00913816Y00508282*
X00913757Y00508984*
X00913699Y00509725*
X00913621Y00510427*
Y00510447*
X00913601Y00510486*
X00913582Y00510544*
Y00510603*
Y00510622*
Y00510642*
X00913621Y00510739*
X0091366Y00510778*
X00913699Y00510817*
X00913777Y00510837*
X00913875Y00510856*
X00917951*
X00918049Y00510817*
G37*
G36*
X00969785Y00312933D02*
X00970022Y00312897D01*
X00970295Y00312842*
X00970586Y00312733*
X00970915Y00312587*
X0097126Y00312405*
X00971606Y00312168*
X00971952Y00311877*
X0097228Y00311513*
X00972426Y00311312*
X00972571Y00311076*
X00972717Y00310839*
X00972845Y00310566*
X00972954Y00310274*
X00973063Y00309965*
X00973154Y00309637*
X00973227Y00309273*
X00973282Y0030889*
X00973318Y0030849*
X00970823Y00308326*
Y00308362*
Y00308435*
X00970805Y00308544*
X00970788Y00308708*
X00970769Y0030889*
X00970732Y0030909*
X00970623Y00309528*
X00970459Y00309965*
X0097035Y00310165*
X00970222Y00310347*
X00970058Y00310511*
X00969894Y0031062*
X00969694Y00310711*
X00969475Y0031073*
X00969457*
X00969366Y00310711*
X00969257Y00310693*
X00969111Y00310638*
X00968947Y00310566*
X00968783Y00310438*
X0096862Y00310256*
X00968456Y00310019*
X00968437Y00309983*
X00968419Y00309946*
X00968401Y00309874*
X00968365Y00309783*
X00968328Y00309673*
X00968292Y00309546*
X00968255Y00309382*
X00968219Y003092*
X00968183Y00308999*
X00968146Y00308763*
X0096811Y0030849*
X00968091Y00308198*
X00968073Y0030787*
X00968055Y00307506*
Y00307105*
Y00307087*
Y00307014*
Y00306923*
Y00306796*
X00968073Y00306632*
Y00306451*
X0096811Y00306049*
X00968146Y00305612*
X00968201Y00305175*
X00968255Y00304975*
X00968292Y00304792*
X00968365Y00304629*
X00968419Y00304483*
X00968437Y00304446*
X00968492Y00304374*
X00968565Y00304264*
X00968692Y00304155*
X00968838Y00304028*
X0096902Y00303918*
X00969221Y00303845*
X00969457Y00303809*
X00969512*
X00969567Y00303827*
X00969639Y00303845*
X00969731Y00303882*
X0096984Y00303918*
X00969949Y00303991*
X00970058Y00304082*
X00970186Y00304192*
X00970295Y00304337*
X00970404Y00304519*
X00970514Y0030472*
X00970623Y00304975*
X00970696Y00305266*
X00970769Y00305594*
X00970823Y00305976*
X00973355Y00305812*
Y00305794*
Y00305721*
X00973336Y0030563*
X00973318Y00305485*
X009733Y00305321*
X00973264Y00305139*
X00973209Y0030492*
X00973154Y00304701*
X00973009Y0030421*
X00972808Y00303682*
X00972681Y00303427*
X00972535Y00303172*
X00972371Y00302935*
X00972189Y00302716*
X00972171Y00302698*
X00972134Y00302662*
X0097208Y00302607*
X00972007Y00302534*
X00971898Y00302443*
X0097177Y00302352*
X00971625Y00302243*
X00971461Y00302152*
X0097126Y00302043*
X0097106Y00301933*
X00970841Y00301842*
X00970586Y00301752*
X00970331Y00301678*
X00970058Y00301625*
X00969749Y00301587*
X00969439Y00301569*
X00969348*
X00969239Y00301587*
X00969093*
X00968929Y00301625*
X00968729Y00301642*
X0096851Y00301697*
X00968274Y00301752*
X00968019Y00301842*
X00967764Y00301933*
X0096749Y00302061*
X00967235Y00302207*
X00966981Y00302389*
X00966726Y00302589*
X00966507Y00302807*
X00966289Y00303081*
X0096627Y00303099*
X00966234Y00303154*
X00966197Y00303245*
X00966125Y00303354*
X00966033Y00303518*
X00965942Y003037*
X00965851Y00303918*
X0096576Y00304173*
X00965651Y00304465*
X0096556Y00304774*
X00965469Y0030512*
X00965378Y00305485*
X00965305Y00305885*
X00965269Y00306322*
X00965232Y00306778*
X00965214Y00307251*
Y00307288*
Y0030736*
Y00307506*
X00965232Y00307688*
X0096525Y00307907*
X00965269Y0030818*
X00965305Y00308453*
X00965341Y00308781*
X00965469Y00309437*
X0096556Y00309783*
X00965669Y00310147*
X00965778Y00310493*
X00965924Y00310821*
X00966089Y0031115*
X0096627Y0031144*
X00966289Y00311458*
X00966325Y00311513*
X00966379Y00311585*
X00966471Y00311677*
X0096658Y00311804*
X00966726Y00311932*
X00966889Y00312059*
X00967072Y00312205*
X0096729Y0031235*
X00967527Y00312478*
X00967782Y00312624*
X00968073Y00312733*
X00968383Y00312824*
X00968711Y00312897*
X00969075Y00312951*
X00969457Y0031297*
X00969603*
X00969785Y00312933*
G37*
G36*
X00960625Y00312951D02*
X00960825Y00312933D01*
X00961098Y0031286*
X00961408Y00312769*
X00961736Y00312624*
X00962063Y00312423*
X00962227Y00312296*
X00962373Y0031215*
X00962391*
X00962409Y00312114*
X009625Y00312004*
X00962628Y00311841*
X00962774Y00311604*
X00962919Y00311331*
X00963047Y00311003*
X00963138Y00310638*
X00963174Y00310438*
Y00310238*
Y0031022*
Y00310183*
Y00310129*
X00963156Y00310056*
X00963138Y00309837*
X00963065Y00309582*
X00962974Y00309273*
X00962828Y00308945*
X00962628Y00308617*
X009625Y00308453*
X00962355Y00308307*
X00962318Y00308271*
X00962209Y0030818*
X00962045Y00308052*
X00961808Y00307925*
X00961535Y00307779*
X00961207Y00307652*
X00960825Y00307561*
X00960625Y00307543*
X00960424Y00307524*
X00960315*
X00960242Y00307543*
X00960024Y00307561*
X00959769Y00307615*
X00959459Y00307725*
X00959131Y00307852*
X00958803Y00308052*
X0095864Y00308162*
X00958494Y00308307*
Y00308326*
X00958457Y00308344*
X00958366Y00308453*
X00958239Y00308617*
X00958111Y00308854*
X00957966Y00309127*
X00957838Y00309455*
X00957747Y00309837*
X00957729Y00310038*
X00957711Y00310238*
Y00310256*
Y00310293*
Y00310347*
X00957729Y0031042*
X00957747Y00310638*
X00957802Y00310912*
X00957911Y00311203*
X00958038Y00311531*
X00958239Y00311859*
X00958348Y00312023*
X00958494Y00312168*
X00958512Y00312187*
X0095853Y00312205*
X0095864Y00312296*
X00958803Y00312423*
X0095904Y00312569*
X00959313Y00312715*
X00959641Y00312842*
X00960024Y00312933*
X00960224Y0031297*
X00960534*
X00960625Y00312951*
G37*
G36*
X00927279Y00309837D02*
X00922963Y00308544D01*
X00927261Y00307251*
X00927279Y00304738*
X00919976Y00307415*
Y00309655*
X00927279Y00312369*
Y00309837*
G37*
G36*
Y00302188D02*
X00919976D01*
Y00304629*
X00927279*
Y00302188*
G37*
G36*
X00936986Y00303809D02*
X0093877D01*
Y00301733*
X00932469*
Y00303809*
X00934272*
Y00309819*
X00934254Y00309783*
X00934163Y00309691*
X00934035Y00309546*
X00933853Y00309346*
X00933598Y00309145*
X00933289Y00308927*
X00932906Y0030869*
X00932469Y0030849*
Y00310839*
X00932487Y00310857*
X00932542Y00310875*
X00932615Y00310912*
X00932724Y00310985*
X00932833Y00311057*
X00932979Y0031115*
X00933325Y00311385*
X00933707Y00311695*
X00934126Y00312041*
X00934527Y00312441*
X0093491Y00312897*
X00936986*
Y00303809*
G37*
G36*
X00952193Y00312951D02*
X00952338D01*
X00952502Y00312933*
X00952702Y00312897*
X00952903Y00312842*
X00953139Y00312788*
X00953376Y00312697*
X00953613Y00312605*
X00953868Y00312478*
X00954105Y00312332*
X00954323Y00312168*
X00954542Y00311968*
X00954742Y00311731*
X00954906Y00311476*
X00954924Y00311458*
X00954942Y00311404*
X00954979Y00311331*
X00955034Y00311203*
X00955106Y00311057*
X00955179Y00310875*
X00955252Y00310657*
X00955343Y00310402*
X00955416Y00310129*
X00955489Y00309819*
X00955562Y00309491*
X00955635Y00309127*
X00955689Y00308726*
X00955726Y00308307*
X00955762Y0030787*
Y00307397*
Y0030736*
Y00307269*
Y00307124*
X00955744Y00306905*
Y00306668*
X00955707Y00306395*
X00955689Y00306086*
X00955653Y0030574*
X00955544Y00305029*
X0095538Y00304301*
X00955289Y00303955*
X00955161Y00303609*
X00955034Y00303299*
X0095487Y00303008*
X00954851Y0030299*
X00954833Y00302953*
X00954779Y0030288*
X00954706Y00302789*
X00954615Y0030268*
X00954487Y00302553*
X00954341Y00302425*
X00954178Y00302298*
X00953996Y00302152*
X00953777Y00302024*
X0095354Y00301897*
X00953285Y00301788*
X00952994Y00301697*
X00952684Y00301625*
X00952356Y00301587*
X00951992Y00301569*
X00951901*
X00951792Y00301587*
X00951664*
X00951482Y00301625*
X009513Y00301642*
X00951082Y00301697*
X00950845Y00301752*
X00950608Y00301824*
X00950371Y00301933*
X00950135Y00302043*
X0094988Y00302188*
X00949661Y00302352*
X00949443Y00302553*
X00949242Y00302789*
X00949078Y00303044*
Y00303062*
X00949042Y00303117*
X00949006Y00303208*
X00948951Y00303317*
X00948878Y00303463*
X00948805Y00303645*
X00948732Y00303864*
X00948659Y00304119*
X00948587Y00304392*
X00948514Y00304701*
X00948441Y00305029*
X00948368Y00305393*
X00948313Y00305794*
X00948277Y00306213*
X00948259Y0030665*
X00948241Y00307124*
Y0030716*
Y00307251*
Y00307415*
X00948259Y00307615*
Y00307852*
X00948295Y00308143*
X00948313Y00308453*
X0094835Y00308781*
X00948459Y00309509*
X00948605Y00310238*
X00948696Y00310584*
X00948823Y0031093*
X00948951Y0031124*
X00949097Y00311531*
X00949115Y00311549*
X00949133Y00311585*
X00949188Y00311658*
X0094926Y0031175*
X0094937Y00311859*
X00949479Y00311986*
X00949625Y00312114*
X00949789Y00312259*
X00949971Y00312387*
X00950189Y00312514*
X00950426Y00312642*
X00950681Y00312751*
X00950972Y00312842*
X00951282Y00312915*
X00951628Y00312951*
X00951992Y0031297*
X00952083*
X00952193Y00312951*
G37*
G36*
X00943761D02*
X00943906D01*
X0094407Y00312933*
X0094427Y00312897*
X00944471Y00312842*
X00944707Y00312788*
X00944944Y00312697*
X00945181Y00312605*
X00945436Y00312478*
X00945673Y00312332*
X00945891Y00312168*
X0094611Y00311968*
X0094631Y00311731*
X00946474Y00311476*
X00946492Y00311458*
X0094651Y00311404*
X00946547Y00311331*
X00946601Y00311203*
X00946674Y00311057*
X00946747Y00310875*
X0094682Y00310657*
X00946912Y00310402*
X00946984Y00310129*
X00947057Y00309819*
X0094713Y00309491*
X00947203Y00309127*
X00947257Y00308726*
X00947293Y00308307*
X0094733Y0030787*
Y00307397*
Y0030736*
Y00307269*
Y00307124*
X00947312Y00306905*
Y00306668*
X00947275Y00306395*
X00947257Y00306086*
X00947221Y0030574*
X00947111Y00305029*
X00946947Y00304301*
X00946857Y00303955*
X00946729Y00303609*
X00946601Y00303299*
X00946438Y00303008*
X00946419Y0030299*
X00946401Y00302953*
X00946347Y0030288*
X00946274Y00302789*
X00946183Y0030268*
X00946055Y00302553*
X00945909Y00302425*
X00945746Y00302298*
X00945563Y00302152*
X00945345Y00302024*
X00945108Y00301897*
X00944853Y00301788*
X00944562Y00301697*
X00944252Y00301625*
X00943924Y00301587*
X0094356Y00301569*
X00943469*
X0094336Y00301587*
X00943232*
X0094305Y00301625*
X00942868Y00301642*
X0094265Y00301697*
X00942413Y00301752*
X00942176Y00301824*
X00941939Y00301933*
X00941702Y00302043*
X00941448Y00302188*
X00941229Y00302352*
X00941011Y00302553*
X0094081Y00302789*
X00940646Y00303044*
Y00303062*
X0094061Y00303117*
X00940573Y00303208*
X00940519Y00303317*
X00940446Y00303463*
X00940373Y00303645*
X009403Y00303864*
X00940227Y00304119*
X00940154Y00304392*
X00940082Y00304701*
X00940009Y00305029*
X00939936Y00305393*
X00939881Y00305794*
X00939845Y00306213*
X00939827Y0030665*
X00939808Y00307124*
Y0030716*
Y00307251*
Y00307415*
X00939827Y00307615*
Y00307852*
X00939863Y00308143*
X00939881Y00308453*
X00939918Y00308781*
X00940027Y00309509*
X00940173Y00310238*
X00940264Y00310584*
X00940391Y0031093*
X00940519Y0031124*
X00940665Y00311531*
X00940683Y00311549*
X00940701Y00311585*
X00940756Y00311658*
X00940828Y0031175*
X00940938Y00311859*
X00941047Y00311986*
X00941193Y00312114*
X00941356Y00312259*
X00941539Y00312387*
X00941757Y00312514*
X00941994Y00312642*
X00942249Y00312751*
X0094254Y00312842*
X0094285Y00312915*
X00943196Y00312951*
X0094356Y0031297*
X00943651*
X00943761Y00312951*
G37*
%LNpcb1-2*%
%LPC*%
G36*
X00886406Y00425887D02*
X00884906D01*
Y00425751*
X00883134*
Y00425615*
X00882179*
Y00425479*
X00881362*
Y00425342*
X00880816*
Y00425206*
X00880134*
Y00425069*
X00879725*
Y00424933*
X0087918*
Y00424797*
X00878771*
Y0042466*
X00878362*
Y00424524*
X00878089*
Y00424388*
X0087768*
Y00424251*
X00877271*
Y00424115*
X00876999*
Y00423979*
X00876726*
Y00423842*
X00876453*
Y00423706*
X00876044*
Y0042357*
X00875772*
Y00423433*
X00875499*
Y00423297*
X00875363*
Y00423161*
X0087509*
Y00423024*
X00874817*
Y00422888*
X00874545*
Y00422752*
X00874408*
Y00422615*
X00874136*
Y00422479*
X00873863*
Y00422343*
X00873727*
Y00422206*
X00873454*
Y0042207*
X00873317*
Y00421934*
X00873045*
Y00421797*
X00872908*
Y00421661*
X00872772*
Y00421525*
X008725*
Y00421388*
X00872363*
Y00421252*
X00872227*
Y00421116*
X00871954*
Y00420979*
X00871818*
Y00420843*
X00871682*
Y00420707*
X00871545*
Y0042057*
X00871272*
Y00420434*
X00871136*
Y00420298*
X00871*
Y00420161*
X00870863*
Y00420025*
X00870727*
Y00419889*
X00870591*
Y00419752*
X00870454*
Y00419616*
X00870318*
Y00419481*
X00870182*
Y00419343*
X00870045*
Y00419207*
X00869909*
Y00419071*
X00869773*
Y00418934*
X00869636*
Y00418798*
X008695*
Y00418662*
X00869364*
Y00418525*
X00869227*
Y00418389*
X00869091*
Y00418116*
X00868955*
Y0041798*
X00868818*
Y00417844*
X00868682*
Y00417707*
X00868546*
Y00417571*
X00868409*
Y00417298*
X00868273*
Y00417162*
X00868137*
Y00417025*
X00868*
Y00416753*
X00867864*
Y00416617*
X00867728*
Y0041648*
X00867591*
Y00416207*
X00867455*
Y00416071*
X00867319*
Y00415798*
X00867182*
Y00415662*
X00867046*
Y0041539*
X0086691*
Y00415117*
X00866773*
Y0041498*
X00866637*
Y00414708*
X00866501*
Y00414435*
X00866364*
Y00414163*
X00866228*
Y0041389*
X00866092*
Y00413617*
X00865955*
Y00413344*
X00865819*
Y00413072*
X00865683*
Y00412799*
X00865546*
Y00412526*
X0086541*
Y00412117*
X00865274*
Y00411845*
X00865137*
Y00411436*
X00865001*
Y00411027*
X00864865*
Y00410618*
X00864728*
Y0041021*
X00864592*
Y004098*
X00864456*
Y00409254*
X00864319*
Y00408573*
X00864183*
Y00408027*
X00864047*
Y00407209*
X0086391*
Y00406118*
X00863774*
Y00401756*
X0086391*
Y00400665*
X00864047*
Y00399847*
X00864183*
Y00399165*
X00864319*
Y0039862*
X00864456*
Y00398075*
X00864592*
Y00397529*
X00864728*
Y0039712*
X00864865*
Y00396711*
X00865001*
Y00396302*
X00865137*
Y0039603*
X00865274*
Y0039562*
X0086541*
Y00395348*
X00865546*
Y00394939*
X00865683*
Y00394666*
X00865819*
Y00394393*
X00865955*
Y00394121*
X00866092*
Y00393848*
X00866228*
Y00393576*
X00866364*
Y00393303*
X00866501*
Y00393166*
X00866637*
Y00392894*
X00866773*
Y00392621*
X0086691*
Y00392348*
X00867046*
Y00392212*
X00867182*
Y00391939*
X00867319*
Y00391803*
X00867455*
Y0039153*
X00867591*
Y00391394*
X00867728*
Y00391121*
X00867864*
Y00390985*
X00868*
Y00390849*
X00868137*
Y00390576*
X00868273*
Y0039044*
X00868409*
Y00390303*
X00868546*
Y00390031*
X00868682*
Y00389894*
X00868818*
Y00389758*
X00868955*
Y00389622*
X00869091*
Y00389485*
X00869227*
Y00389349*
X00869364*
Y00389076*
X008695*
Y0038894*
X00869636*
Y00388804*
X00869773*
Y00388667*
X00869909*
Y00388531*
X00870045*
Y00388395*
X00870182*
Y00388258*
X00870318*
Y00388122*
X00870454*
Y00387986*
X00870591*
Y00387849*
X00870727*
Y00387713*
X00871*
Y00387577*
X00871136*
Y0038744*
X00871272*
Y00387304*
X00871409*
Y00387168*
X00871545*
Y00387031*
X00871682*
Y00386895*
X00871954*
Y00386759*
X00872091*
Y00386622*
X00872227*
Y00386486*
X00872363*
Y0038635*
X00872636*
Y00386213*
X00872772*
Y00386077*
X00872908*
Y00385941*
X00873181*
Y00385804*
X00873317*
Y00385668*
X0087359*
Y00385532*
X00873727*
Y00385395*
X00873999*
Y00385259*
X00874272*
Y00385122*
X00874408*
Y00384986*
X00874681*
Y0038485*
X00874954*
Y00384714*
X0087509*
Y00384577*
X00875363*
Y00384441*
X00875635*
Y00384304*
X00875908*
Y00384168*
X00876181*
Y00384032*
X00876453*
Y00383895*
X00876862*
Y00383759*
X00877135*
Y00383623*
X00877408*
Y00383487*
X00877817*
Y0038335*
X00878226*
Y00383214*
X00878498*
Y00383077*
X00878907*
Y00382941*
X00879453*
Y00382805*
X00879862*
Y00382668*
X00880407*
Y00382532*
X00880952*
Y00382397*
X00881634*
Y00382259*
X00882452*
Y00382123*
X00883543*
Y00381987*
X00887769*
Y00382123*
X0088886*
Y00382259*
X00889678*
Y00382397*
X0089036*
Y00382532*
X00890905*
Y00382668*
X0089145*
Y00382805*
X00891996*
Y00382941*
X00892405*
Y00383077*
X00892814*
Y00383214*
X00893223*
Y0038335*
X00893495*
Y00383487*
X00893904*
Y00383623*
X00894177*
Y00383759*
X00894586*
Y00383895*
X00894859*
Y00384032*
X00895132*
Y00384168*
X00895404*
Y00384304*
X00895677*
Y00384441*
X0089595*
Y00384577*
X00896222*
Y00384714*
X00896495*
Y0038485*
X00896631*
Y00384986*
X00896904*
Y00385122*
X00897177*
Y00385259*
X00897313*
Y00385395*
X00897586*
Y00385532*
X00897722*
Y00385668*
X00897995*
Y00385804*
X00898131*
Y00385941*
X00898404*
Y00386077*
X0089854*
Y00386213*
X00898813*
Y0038635*
X00898949*
Y00386486*
X00899085*
Y00386622*
X00899222*
Y00386759*
X00899494*
Y00386895*
X00899631*
Y00387031*
X00899767*
Y00387168*
X00899903*
Y00387304*
X0090004*
Y0038744*
X00900312*
Y00387577*
X00900449*
Y00387713*
X00900585*
Y00387849*
X00900721*
Y00387986*
X00900858*
Y00388122*
X00900994*
Y00388258*
X0090113*
Y00388395*
X00901267*
Y00388531*
X00901403*
Y00388667*
X00901539*
Y00388804*
X00901676*
Y0038894*
X00901812*
Y00389076*
X00901948*
Y00389213*
X00902085*
Y00389485*
X00902221*
Y00389622*
X00902357*
Y00389758*
X00902494*
Y00389894*
X0090263*
Y00390031*
X00902766*
Y00390303*
X00902903*
Y0039044*
X00903039*
Y00390576*
X00903175*
Y00390712*
X00903312*
Y00390985*
X00903448*
Y00391121*
X00903585*
Y00391394*
X00903721*
Y0039153*
X00903857*
Y00391668*
X00903994*
Y00391939*
X0090413*
Y00392212*
X00904266*
Y00392348*
X00904403*
Y00392621*
X00904539*
Y00392757*
X00904675*
Y0039303*
X00904811*
Y00393303*
X00904948*
Y00393576*
X00905084*
Y00393848*
X00905221*
Y00394121*
X00905357*
Y00394393*
X00905493*
Y00394666*
X0090563*
Y00394939*
X00905766*
Y00395212*
X00905902*
Y0039562*
X00906039*
Y00395893*
X00906175*
Y00396302*
X00906311*
Y00396711*
X00906448*
Y0039712*
X00906584*
Y00397529*
X0090672*
Y00397938*
X00906857*
Y00398484*
X00906993*
Y00399029*
X00907129*
Y00399711*
X00907266*
Y00400392*
X00907402*
Y00401483*
X00907538*
Y00406391*
X00907402*
Y00407346*
X00907266*
Y00408164*
X00907129*
Y00408709*
X00906993*
Y00409254*
X00906857*
Y004098*
X0090672*
Y00410345*
X00906584*
Y00410754*
X00906448*
Y00411163*
X00906311*
Y00411572*
X00906175*
Y00411845*
X00906039*
Y00412254*
X00905902*
Y00412526*
X00905766*
Y00412799*
X0090563*
Y00413208*
X00905493*
Y00413481*
X00905357*
Y00413753*
X00905221*
Y00414026*
X00905084*
Y00414299*
X00904948*
Y00414435*
X00904811*
Y00414708*
X00904675*
Y0041498*
X00904539*
Y00415253*
X00904403*
Y0041539*
X00904266*
Y00415662*
X0090413*
Y00415798*
X00903994*
Y00416071*
X00903857*
Y00416207*
X00903721*
Y0041648*
X00903585*
Y00416617*
X00903448*
Y00416889*
X00903312*
Y00417025*
X00903175*
Y00417162*
X00903039*
Y00417434*
X00902903*
Y00417571*
X00902766*
Y00417707*
X0090263*
Y00417844*
X00902494*
Y00418116*
X00902357*
Y00418253*
X00902221*
Y00418389*
X00902085*
Y00418525*
X00901948*
Y00418662*
X00901812*
Y00418798*
X00901676*
Y00418934*
X00901539*
Y00419071*
X00901403*
Y00419207*
X00901267*
Y00419343*
X0090113*
Y00419481*
X00900994*
Y00419616*
X00900858*
Y00419752*
X00900721*
Y00419889*
X00900585*
Y00420025*
X00900449*
Y00420161*
X00900312*
Y00420298*
X00900176*
Y00420434*
X0090004*
Y0042057*
X00899903*
Y00420707*
X00899631*
Y00420843*
X00899494*
Y00420979*
X00899358*
Y00421116*
X00899222*
Y00421252*
X00898949*
Y00421388*
X00898813*
Y00421525*
X00898676*
Y00421661*
X00898404*
Y00421797*
X00898267*
Y00421934*
X00897995*
Y0042207*
X00897858*
Y00422206*
X00897586*
Y00422343*
X00897449*
Y00422479*
X00897177*
Y00422615*
X0089704*
Y00422752*
X00896768*
Y00422888*
X00896495*
Y00423024*
X00896222*
Y00423161*
X00896086*
Y00423297*
X00895813*
Y00423433*
X00895541*
Y0042357*
X00895268*
Y00423706*
X00894995*
Y00423842*
X00894586*
Y00423979*
X00894313*
Y00424115*
X00894041*
Y00424251*
X00893632*
Y00424388*
X00893359*
Y00424524*
X0089295*
Y0042466*
X00892541*
Y00424797*
X00892132*
Y00424933*
X00891587*
Y00425069*
X00891178*
Y00425206*
X00890632*
Y00425342*
X00889951*
Y00425479*
X00889133*
Y00425615*
X00888178*
Y00425751*
X00886406*
Y00425887*
G37*
G36*
X01009246Y00425751D02*
X01004611D01*
Y00425615*
X0100352*
Y00425479*
X01002838*
Y00425342*
X01002157*
Y00425206*
X01001611*
Y00425069*
X01001066*
Y00424933*
X01000657*
Y00424797*
X01000112*
Y0042466*
X00999703*
Y00424524*
X0099943*
Y00424388*
X00999021*
Y00424251*
X00998612*
Y00424115*
X00998339*
Y00423979*
X00998066*
Y00423842*
X00997794*
Y00423706*
X00997385*
Y0042357*
X00997112*
Y00423433*
X00996839*
Y00423297*
X00996703*
Y00423161*
X0099643*
Y00423024*
X00996158*
Y00422888*
X00995885*
Y00422752*
X00995612*
Y00422615*
X00995476*
Y00422479*
X00995203*
Y00422343*
X00995067*
Y00422206*
X00994794*
Y0042207*
X00994658*
Y00421934*
X00994385*
Y00421797*
X00994249*
Y00421661*
X00993976*
Y00421525*
X0099384*
Y00421388*
X00993704*
Y00421252*
X00993431*
Y00421116*
X00993295*
Y00420979*
X00993158*
Y00420843*
X00993022*
Y00420707*
X00992749*
Y0042057*
X00992613*
Y00420434*
X00992477*
Y00420298*
X0099234*
Y00420161*
X00992204*
Y00420025*
X00992068*
Y00419889*
X00991931*
Y00419752*
X00991795*
Y00419616*
X00991659*
Y00419481*
X00991522*
Y00419343*
X00991386*
Y00419207*
X0099125*
Y00419071*
X00991113*
Y00418934*
X00990977*
Y00418798*
X00990841*
Y00418662*
X00990704*
Y00418525*
X00990568*
Y00418389*
X00990432*
Y00418253*
X00990295*
Y00418116*
X00990159*
Y00417844*
X00990023*
Y00417707*
X00989886*
Y00417571*
X0098975*
Y00417434*
X00989613*
Y00417162*
X00989477*
Y00417025*
X00989341*
Y00416889*
X00989204*
Y00416617*
X00989068*
Y0041648*
X00988932*
Y00416207*
X00988795*
Y00416071*
X00988659*
Y00415935*
X00988523*
Y00415662*
X00988387*
Y0041539*
X0098825*
Y00415253*
X00988114*
Y0041498*
X00987978*
Y00414708*
X00987841*
Y00414571*
X00987705*
Y00414299*
X00987569*
Y00414026*
X00987432*
Y00413753*
X00987296*
Y00413481*
X00987159*
Y00413208*
X00987023*
Y00412935*
X00986887*
Y00412526*
X0098675*
Y00412254*
X00986614*
Y00411845*
X00986478*
Y00411572*
X00986341*
Y00411163*
X00986205*
Y00410754*
X00986069*
Y00410345*
X00985932*
Y00409936*
X00985796*
Y00409391*
X0098566*
Y00408845*
X00985523*
Y00408164*
X00985387*
Y00407482*
X00985251*
Y00406528*
X00985114*
Y00404892*
X00984978*
Y00402846*
X00985114*
Y0040121*
X00985251*
Y00400392*
Y00400256*
X00985387*
Y00399574*
X00985523*
Y00398893*
X0098566*
Y00398347*
X00985796*
Y00397802*
X00985932*
Y00397393*
X00986069*
Y00396984*
X00986205*
Y00396575*
X00986341*
Y00396166*
X00986478*
Y00395893*
X00986614*
Y00395484*
X0098675*
Y00395212*
X00986887*
Y00394803*
X00987023*
Y0039453*
X00987159*
Y00394257*
X00987296*
Y00393984*
X00987432*
Y00393712*
X00987569*
Y00393439*
X00987705*
Y00393166*
X00987841*
Y0039303*
X00987978*
Y00392757*
X00988114*
Y00392485*
X0098825*
Y00392348*
X00988387*
Y00392076*
X00988523*
Y00391939*
X00988659*
Y00391668*
X00988795*
Y0039153*
X00988932*
Y00391258*
X00989068*
Y00391121*
X00989204*
Y00390849*
X00989341*
Y00390712*
X00989477*
Y00390576*
X00989613*
Y00390303*
X0098975*
Y00390167*
X00989886*
Y00390031*
X00990023*
Y00389894*
X00990159*
Y00389622*
X00990295*
Y00389485*
X00990432*
Y00389349*
X00990568*
Y00389213*
X00990704*
Y00389076*
X00990841*
Y0038894*
X00990977*
Y00388804*
X00991113*
Y00388667*
X0099125*
Y00388531*
X00991386*
Y00388395*
X00991522*
Y00388258*
X00991659*
Y00388122*
X00991795*
Y00387986*
X00991931*
Y00387849*
X00992068*
Y00387713*
X00992204*
Y00387577*
X0099234*
Y0038744*
X00992477*
Y00387304*
X00992613*
Y00387168*
X00992886*
Y00387031*
X00993022*
Y00386895*
X00993158*
Y00386759*
X00993295*
Y00386622*
X00993431*
Y00386486*
X00993704*
Y0038635*
X0099384*
Y00386213*
X00993976*
Y00386077*
X00994249*
Y00385941*
X00994385*
Y00385804*
X00994658*
Y00385668*
X00994794*
Y00385532*
X00995067*
Y00385395*
X00995203*
Y00385259*
X00995476*
Y00385122*
X00995749*
Y00384986*
X00995885*
Y0038485*
X00996158*
Y00384714*
X0099643*
Y00384577*
X00996703*
Y00384441*
X00996839*
Y00384304*
X00997112*
Y00384168*
X00997521*
Y00384032*
X00997794*
Y00383895*
X00998066*
Y00383759*
X00998339*
Y00383623*
X00998748*
Y00383487*
X00999021*
Y0038335*
X0099943*
Y00383214*
X00999703*
Y00383077*
X01000112*
Y00382941*
X01000657*
Y00382805*
X01001066*
Y00382668*
X01001611*
Y00382532*
X01002157*
Y00382397*
X01002838*
Y00382259*
X01003656*
Y00382123*
X01004611*
Y00381987*
X01009246*
Y00382123*
X01010337*
Y00382259*
X01011155*
Y00382397*
X010117*
Y00382532*
X01012382*
Y00382668*
X01012791*
Y00382805*
X01013336*
Y00382941*
X01013745*
Y00383077*
X01014154*
Y00383214*
X01014563*
Y0038335*
X01014836*
Y00383487*
X01015245*
Y00383623*
X01015518*
Y00383759*
X01015927*
Y00383895*
X01016199*
Y00384032*
X01016472*
Y00384168*
X01016745*
Y00384304*
X01017017*
Y00384441*
X0101729*
Y00384577*
X01017563*
Y00384714*
X01017699*
Y0038485*
X01017972*
Y00384986*
X01018244*
Y00385122*
X01018517*
Y00385259*
X01018653*
Y00385395*
X01018926*
Y00385532*
X01019062*
Y00385668*
X01019335*
Y00385804*
X01019472*
Y00385941*
X01019744*
Y00386077*
X01019881*
Y00386213*
X01020017*
Y0038635*
X0102029*
Y00386486*
X01020426*
Y00386622*
X01020562*
Y00386759*
X01020699*
Y00386895*
X01020971*
Y00387031*
X01021107*
Y00387168*
X01021244*
Y00387304*
X0102138*
Y0038744*
X01021516*
Y00387577*
X01021653*
Y00387713*
X01021926*
Y00387849*
X01022062*
Y00387986*
X01022198*
Y00388122*
X01022335*
Y00388258*
X01022471*
Y00388395*
X01022607*
Y00388531*
X01022744*
Y00388667*
X0102288*
Y00388804*
X01023016*
Y0038894*
X01023153*
Y00389213*
X01023289*
Y00389349*
X01023425*
Y00389485*
X01023562*
Y00389622*
X01023698*
Y00389758*
X01023834*
Y00389894*
X01023971*
Y00390167*
X01024107*
Y00390303*
X01024243*
Y0039044*
X0102438*
Y00390576*
X01024516*
Y00390849*
X01024652*
Y00390985*
X01024789*
Y00391258*
X01024925*
Y00391394*
X01025061*
Y0039153*
X01025198*
Y00391803*
X01025334*
Y00391939*
X0102547*
Y00392212*
X01025607*
Y00392485*
X01025743*
Y00392621*
X01025879*
Y00392894*
X01026016*
Y00393166*
X01026152*
Y00393439*
X01026288*
Y00393576*
X01026425*
Y00393848*
X01026561*
Y00394121*
X01026697*
Y00394393*
X01026834*
Y00394803*
X0102697*
Y00395075*
X01027106*
Y00395348*
X01027243*
Y00395757*
X01027379*
Y0039603*
X01027515*
Y00396439*
X01027652*
Y00396848*
X01027788*
Y00397256*
X01027924*
Y00397666*
X01028061*
Y00398075*
X01028197*
Y0039862*
X01028333*
Y00399302*
X0102847*
Y00399983*
X01028606*
Y00400801*
X01028743*
Y00402028*
X01028879*
Y00405709*
X01028743*
Y00406937*
X01028606*
Y00407755*
X0102847*
Y00408436*
X01028333*
Y00409118*
X01028197*
Y00409663*
X01028061*
Y00410072*
X01027924*
Y00410481*
X01027788*
Y0041089*
X01027652*
Y00411299*
X01027515*
Y00411708*
X01027379*
Y00412117*
X01027243*
Y0041239*
X01027106*
Y00412663*
X0102697*
Y00412935*
X01026834*
Y00413344*
X01026697*
Y00413617*
X01026561*
Y0041389*
X01026425*
Y00414163*
X01026288*
Y00414299*
X01026152*
Y00414571*
X01026016*
Y00414844*
X01025879*
Y00415117*
X01025743*
Y00415253*
X01025607*
Y00415526*
X0102547*
Y00415798*
X01025334*
Y00415935*
X01025198*
Y00416207*
X01025061*
Y00416344*
X01024925*
Y00416617*
X01024789*
Y00416753*
X01024652*
Y00416889*
X01024516*
Y00417162*
X0102438*
Y00417298*
X01024243*
Y00417434*
X01024107*
Y00417571*
X01023971*
Y00417844*
X01023834*
Y0041798*
X01023698*
Y00418116*
X01023562*
Y00418253*
X01023425*
Y00418389*
X01023289*
Y00418525*
X01023153*
Y00418798*
X01023016*
Y00418934*
X0102288*
Y00419071*
X01022744*
Y00419207*
X01022607*
Y00419343*
X01022471*
Y00419481*
X01022335*
Y00419616*
X01022198*
Y00419752*
X01022062*
Y00419889*
X01021926*
Y00420025*
X01021789*
Y00420161*
X01021516*
Y00420298*
X0102138*
Y00420434*
X01021244*
Y0042057*
X01021107*
Y00420707*
X01020971*
Y00420843*
X01020835*
Y00420979*
X01020562*
Y00421116*
X01020426*
Y00421252*
X0102029*
Y00421388*
X01020017*
Y00421525*
X01019881*
Y00421661*
X01019744*
Y00421797*
X01019472*
Y00421934*
X01019335*
Y0042207*
X01019062*
Y00422206*
X01018926*
Y00422343*
X01018653*
Y00422479*
X01018517*
Y00422615*
X01018244*
Y00422752*
X01017972*
Y00422888*
X01017835*
Y00423024*
X01017563*
Y00423161*
X0101729*
Y00423297*
X01017017*
Y00423433*
X01016745*
Y0042357*
X01016472*
Y00423706*
X01016199*
Y00423842*
X01015927*
Y00423979*
X01015518*
Y00424115*
X01015245*
Y00424251*
X01014836*
Y00424388*
X01014563*
Y00424524*
X01014154*
Y0042466*
X01013745*
Y00424797*
X01013336*
Y00424933*
X01012791*
Y00425069*
X01012382*
Y00425206*
X010117*
Y00425342*
X01011155*
Y00425479*
X01010337*
Y00425615*
X01009246*
Y00425751*
G37*
G36*
X00946394Y00422888D02*
X00946258D01*
Y00422752*
X00946122*
Y00422615*
X00945985*
Y00422343*
X00945849*
Y00422206*
X00945713*
Y00421934*
X00945576*
Y00421661*
X0094544*
Y00421388*
X00945304*
Y00421252*
X00945168*
Y00420979*
X00945031*
Y00420707*
X00944895*
Y00420434*
X00944759*
Y00420161*
X00944622*
Y00420025*
X00944486*
Y00419752*
X00944349*
Y00419481*
X00944213*
Y00419207*
X00944077*
Y00418934*
X0094394*
Y00418798*
X00943804*
Y00418525*
X00943668*
Y00418253*
X00943531*
Y00418116*
X00943395*
Y00417844*
X00943259*
Y00417571*
X00943122*
Y00417434*
X00942986*
Y00417025*
X0094285*
Y00416889*
X00942713*
Y00416617*
X00942577*
Y00416344*
X00942441*
Y00416207*
X00942304*
Y00415798*
X00942168*
Y00415662*
X00942032*
Y0041539*
X00941895*
Y00415253*
X00941759*
Y0041498*
X00941623*
Y00414708*
X00941486*
Y00414435*
X0094135*
Y00414299*
X00941214*
Y00414026*
X00941077*
Y00413617*
X00940941*
Y00413481*
X00940805*
Y00413208*
X00940668*
Y00413072*
X00940532*
Y00412799*
X00940396*
Y00412526*
X00940259*
Y00412254*
X00940123*
Y00412117*
X00939987*
Y00411845*
X0093985*
Y00411708*
X00939714*
Y00411299*
X00939578*
Y00411027*
X00939441*
Y0041089*
X00939305*
Y00410618*
X00939169*
Y00410481*
X00939032*
Y00410072*
X00938896*
Y00409936*
X0093876*
Y00409663*
X00938623*
Y00409527*
X00938487*
Y00409118*
X00938351*
Y00408982*
X00938214*
Y00408709*
X00938078*
Y00408436*
X00937942*
Y004083*
X00937805*
Y00407891*
X00937669*
Y00407755*
X00937533*
Y00407482*
X00937396*
Y00407346*
X0093726*
Y00407073*
X00937124*
Y004068*
X00936987*
Y00406528*
X00936851*
Y00406391*
X00936715*
Y00406118*
X00936578*
Y00405846*
X00936442*
Y00405573*
X00936306*
Y00405301*
X00936169*
Y00405164*
X00936033*
Y00404892*
X00935897*
Y00404619*
X0093576*
Y00404346*
X00935624*
Y0040421*
X00935488*
Y00403937*
X00935351*
Y00403801*
X00935215*
Y00403392*
X00935078*
Y00403119*
X00934942*
Y00402983*
X00934806*
Y0040271*
X00934669*
Y00402437*
X00934533*
Y00402165*
X00934397*
Y00402028*
X0093426*
Y00401756*
X00934124*
Y00401483*
X00933988*
Y00401347*
X00933851*
Y00401074*
X00933715*
Y00400801*
X00933579*
Y00400529*
X00933442*
Y00400392*
X00933306*
Y0040012*
X0093317*
Y00399847*
X00933033*
Y00399574*
X00932897*
Y00399302*
X00932761*
Y00399165*
X00932624*
Y00398893*
X00932488*
Y0039862*
X00932352*
Y00398347*
X00932215*
Y00398211*
X00932079*
Y00397938*
X00931943*
Y00397802*
X00931806*
Y00397393*
X0093167*
Y00397256*
X00931534*
Y00396984*
X00931397*
Y00396711*
X00931261*
Y00396439*
X00931125*
Y00396166*
X00930988*
Y0039603*
X00930852*
Y00395757*
X00930716*
Y0039562*
X00930579*
Y00395348*
X00930443*
Y00395075*
X00930307*
Y00394803*
X0093017*
Y00394666*
X00930034*
Y00394393*
X00929898*
Y00393984*
X00929761*
Y00393848*
X00929625*
Y00393576*
X00929489*
Y00393439*
X00929352*
Y00393166*
X00929216*
Y00392894*
X0092908*
Y00392621*
X00928943*
Y00392485*
X00928807*
Y00392212*
X00928671*
Y00392076*
X00928534*
Y00391668*
X00928398*
Y00391394*
X00928262*
Y00391258*
X00928125*
Y00390985*
X00927989*
Y00390712*
X00927853*
Y0039044*
X00927716*
Y00390303*
X0092758*
Y00390031*
X00927444*
Y00389894*
X00927307*
Y00389485*
X00927171*
Y00389349*
X00927035*
Y00389076*
X00926898*
Y00388804*
X00926762*
Y00388667*
X00926626*
Y00388258*
X00926489*
Y00388122*
X00926353*
Y00387849*
X00926217*
Y00387577*
X0092608*
Y0038744*
X00925944*
Y00387168*
X00925807*
Y00386895*
X00925671*
Y00386759*
X00925535*
Y00386486*
X00925398*
Y00386213*
X00925262*
Y00385941*
X00925126*
Y00385668*
X00924989*
Y00385532*
X00924853*
Y00385259*
X00924717*
Y00384986*
X00924581*
Y00384714*
X00924444*
Y00384577*
X00924308*
Y00384304*
X00924172*
Y00384032*
X00924035*
Y00383759*
X00923899*
Y00383487*
X00923763*
Y0038335*
X00923626*
Y00383077*
X0092349*
Y00382805*
X00923353*
Y00382532*
X00923217*
Y00382259*
X00923081*
Y00382123*
X00922944*
Y0038185*
X00922808*
Y00381714*
X00922672*
Y00381441*
X00922535*
Y00381169*
X00922399*
Y00380896*
X00970254*
Y00381032*
X00970117*
Y00381305*
X00969981*
Y00381441*
X00969845*
Y0038185*
X00969708*
Y00381987*
X00969572*
Y00382259*
X00969436*
Y00382397*
X00969299*
Y00382668*
X00969163*
Y00382941*
X00969027*
Y00383214*
X0096889*
Y00383487*
X00968754*
Y00383623*
X00968617*
Y00384032*
X00968481*
Y00384168*
X00968345*
Y00384441*
X00968209*
Y00384577*
X00968072*
Y0038485*
X00967936*
Y00385122*
X009678*
Y00385395*
X00967663*
Y00385532*
X00967527*
Y00385804*
X00967391*
Y00386077*
X00967254*
Y0038635*
X00967118*
Y00386622*
X00966981*
Y00386759*
X00966845*
Y00387031*
X00966709*
Y00387168*
X00966572*
Y00387577*
X00966436*
Y00387713*
X009663*
Y00387986*
X00966163*
Y00388122*
X00966027*
Y00388395*
X00965891*
Y00388804*
X00965754*
Y0038894*
X00965618*
Y00389213*
X00965482*
Y00389349*
X00965346*
Y00389758*
X00965209*
Y00389894*
X00965073*
Y00390167*
X00964936*
Y00390303*
X009648*
Y00390576*
X00964664*
Y00390849*
X00964527*
Y00391121*
X00964391*
Y00391394*
X00964255*
Y0039153*
X00964118*
Y00391803*
X00963982*
Y00392076*
X00963846*
Y00392348*
X00963709*
Y00392621*
X00963573*
Y00392757*
X00963437*
Y0039303*
X009633*
Y00393303*
X00963164*
Y00393439*
X00963028*
Y00393712*
X00962891*
Y00393984*
X00962755*
Y00394121*
X00962619*
Y0039453*
X00962482*
Y00394666*
X00962346*
Y00394939*
X0096221*
Y00395212*
X00962073*
Y00395484*
X00961937*
Y00395757*
X00961801*
Y00395893*
X00961664*
Y00396166*
X00961528*
Y00396302*
X00961392*
Y00396575*
X00961255*
Y00396848*
X00961119*
Y0039712*
X00960983*
Y00397256*
X00960846*
Y00397529*
X0096071*
Y00397938*
X00960574*
Y00398075*
X00960437*
Y00398347*
X00960301*
Y00398484*
X00960165*
Y00398756*
X00960028*
Y00399029*
X00959892*
Y00399302*
X00959756*
Y00399438*
X00959619*
Y00399711*
X00959483*
Y00399847*
X00959347*
Y00400256*
X0095921*
Y00400529*
X00959074*
Y00400665*
X00958938*
Y00400939*
X00958801*
Y0040121*
X00958665*
Y00401483*
X00958529*
Y00401619*
X00958392*
Y00401892*
X00958256*
Y00402028*
X00958119*
Y00402437*
X00957983*
Y00402574*
X00957847*
Y00402846*
X0095771*
Y00403119*
X00957574*
Y00403255*
X00957438*
Y00403665*
X00957301*
Y00403801*
X00957165*
Y00404074*
X00957029*
Y0040421*
X00956892*
Y00404482*
X00956756*
Y00404755*
X0095662*
Y00405028*
X00956484*
Y00405164*
X00956347*
Y00405437*
X00956211*
Y00405709*
X00956075*
Y00405982*
X00955938*
Y00406255*
X00955802*
Y00406391*
X00955666*
Y00406664*
X00955529*
Y00406937*
X00955393*
Y00407209*
X00955256*
Y00407346*
X0095512*
Y00407618*
X00954984*
Y00407755*
X00954847*
Y00408164*
X00954711*
Y00408436*
X00954575*
Y00408573*
X00954438*
Y00408845*
X00954302*
Y00409118*
X00954166*
Y00409391*
X00954029*
Y00409663*
X00953893*
Y004098*
X00953757*
Y00410072*
X0095362*
Y0041021*
X00953484*
Y00410481*
X00953348*
Y00410754*
X00953211*
Y00411027*
X00953075*
Y00411163*
X00952939*
Y00411436*
X00952802*
Y00411708*
X00952666*
Y00411981*
X0095253*
Y00412254*
X00952393*
Y0041239*
X00952257*
Y00412663*
X00952121*
Y00412935*
X00951984*
Y00413208*
X00951848*
Y00413344*
X00951712*
Y00413481*
Y00413617*
X00951575*
Y0041389*
X00951439*
Y00414163*
X00951303*
Y00414299*
X00951166*
Y00414571*
X0095103*
Y00414844*
X00950894*
Y00415117*
X00950757*
Y0041539*
X00950621*
Y00415526*
X00950485*
Y00415798*
X00950348*
Y00415935*
X00950212*
Y00416344*
X00950076*
Y0041648*
X00949939*
Y00416753*
X00949803*
Y00416889*
X00949667*
Y00417162*
X0094953*
Y00417571*
X00949394*
Y00417707*
X00949258*
Y0041798*
X00949121*
Y00418116*
X00948985*
Y00418389*
X00948849*
Y00418662*
X00948712*
Y00418934*
X00948576*
Y00419071*
X0094844*
Y00419343*
X00948303*
Y00419616*
X00948167*
Y00419889*
X00948031*
Y00420161*
X00947894*
Y00420298*
X00947758*
Y0042057*
X00947622*
Y00420843*
X00947485*
Y00421116*
X00947349*
Y00421252*
X00947213*
Y00421525*
X00947076*
Y00421661*
X0094694*
Y0042207*
X00946804*
Y00422206*
X00946667*
Y00422479*
X00946531*
Y00422752*
X00946394*
Y00422888*
G37*
G36*
X00915991Y00363718D02*
X00915855D01*
Y00363445*
X00915719*
Y00363036*
X00915582*
Y00362763*
X00915446*
Y00362354*
X0091531*
Y00361945*
X00915173*
Y00361672*
X00915037*
Y00361263*
X00914901*
Y00360854*
X00914764*
Y00360445*
X00914628*
Y00360173*
X00914491*
Y00359764*
X00914355*
Y00359355*
X00914219*
Y00358946*
X00914082*
Y00358673*
X00913946*
Y00358264*
X0091381*
Y00357855*
X00913673*
Y00357446*
X00913537*
Y00357173*
X00918309*
Y00357582*
X00918173*
Y00357991*
X00918036*
Y00358264*
X009179*
Y00358673*
X00917764*
Y00359082*
X00917627*
Y00359355*
X00917491*
Y00359764*
X00917355*
Y00360036*
X00917218*
Y00360445*
X00917082*
Y00360582*
Y00360854*
X00916946*
Y00361127*
X00916809*
Y00361536*
X00916673*
Y00361945*
X00916537*
Y00362218*
X009164*
Y00362627*
X00916264*
Y00363036*
X00916128*
Y00363309*
X00915991*
Y00363718*
G37*
G36*
X00949514Y00502975D02*
X00949358D01*
X00949183Y00502937*
X00948949Y00502897*
X00948714Y0050282*
X00948441Y00502722*
X00948188Y00502566*
X00947954Y00502351*
X00947934Y00502332*
X00947856Y00502234*
X00947778Y00502098*
X00947661Y00501922*
X00947563Y00501688*
X00947466Y00501415*
X00947388Y00501103*
X00947368Y00500752*
Y00500732*
Y00500713*
X00947388Y00500596*
X00947407Y0050042*
X00947446Y00500205*
X00947524Y00499971*
X00947642Y00499698*
X00947778Y00499425*
X00947993Y00499172*
X00948012Y00499152*
X0094811Y00499074*
X00948246Y00498977*
X00948422Y0049886*
X00948636Y00498723*
X0094889Y00498625*
X00949183Y00498547*
X00949514Y00498528*
X00949553*
X0094967Y00498547*
X00949846Y00498567*
X0095008Y00498606*
X00950333Y00498684*
X00950587Y00498801*
X0095086Y00498937*
X00951094Y00499152*
X00951114Y00499191*
X00951192Y00499269*
X00951289Y00499406*
X00951406Y00499601*
X00951504Y00499835*
X00951601Y00500108*
X0095168Y00500401*
X00951699Y00500752*
Y00500771*
Y00500791*
Y00500908*
X0095166Y00501103*
X00951621Y00501317*
X00951543Y00501571*
X00951445Y00501844*
X00951289Y00502098*
X00951094Y00502351*
X00951075Y00502371*
X00950977Y00502449*
X0095086Y00502546*
X00950665Y00502663*
X00950451Y0050278*
X00950177Y00502878*
X00949865Y00502956*
X00949514Y00502975*
G37*
G36*
X00982247Y00502956D02*
X00982208D01*
X00982091Y00502937*
X00981935Y00502917*
X00981721Y00502878*
X00981506Y0050278*
X00981252Y00502663*
X00981018Y00502507*
X00980784Y00502273*
X00980765Y00502234*
X00980706Y00502156*
X00980609Y0050202*
X00980511Y00501825*
X00980414Y0050161*
X00980316Y00501337*
X00980257Y00501044*
X00980238Y00500713*
Y00500693*
Y00500674*
Y00500557*
X00980277Y00500381*
X00980316Y00500167*
X00980375Y00499932*
X00980472Y00499659*
X00980609Y00499386*
X00980784Y00499133*
X00980804Y00499113*
X00980882Y00499035*
X00981018Y00498918*
X00981174Y00498801*
X00981389Y00498664*
X00981643Y00498567*
X00981935Y00498489*
X00982247Y0049845*
X00982286*
X00982384Y00498469*
X00982559Y00498489*
X00982755Y00498528*
X00982969Y00498625*
X00983223Y00498743*
X00983457Y00498898*
X00983691Y00499133*
X0098371Y00499172*
X00983769Y0049925*
X00983866Y00499386*
X00983964Y00499581*
X00984042Y00499815*
X00984139Y00500088*
X00984198Y00500381*
X00984218Y00500713*
Y00500732*
Y00500752*
Y00500869*
X00984198Y00501025*
X00984139Y00501239*
X00984081Y00501493*
X00983983Y00501747*
X00983847Y0050202*
X00983652Y00502273*
X00983632Y00502312*
X00983554Y0050239*
X00983437Y00502488*
X00983281Y00502624*
X00983067Y00502741*
X00982832Y00502858*
X00982559Y00502937*
X00982247Y00502956*
G37*
G36*
X00924779Y00503814D02*
X00924662D01*
X00924526Y00503775*
X00924369Y00503736*
X00924194Y00503678*
X00923999Y00503561*
X00923804Y00503424*
X00923628Y00503229*
X00923609Y0050321*
X0092355Y00503132*
X00923492Y00503015*
X00923414Y00502858*
X00923316Y00502663*
X00923258Y00502449*
X00923199Y00502195*
X00923179Y00501942*
Y00501922*
Y00501904*
X00923219Y00501786*
X00923258Y00501727*
X00923316Y00501688*
X00923394Y0050165*
X00923511Y0050163*
X00923765*
X00923862Y0050165*
X00923999*
X00924135Y00501669*
X00924311*
X00924506Y00501688*
X00924721Y00501707*
X00924955Y00501747*
X00925208Y00501766*
X00925481Y00501805*
X00925793Y00501844*
X00926106Y00501883*
X00926125*
X00926164Y00501904*
X00926301Y00501922*
X00926418Y00502*
X00926457Y00502039*
X00926476Y00502078*
Y00502117*
Y00502195*
X00926457Y00502332*
X00926418Y00502488*
X00926359Y00502683*
X00926262Y00502878*
X00926145Y00503093*
X00925969Y00503288*
X00925949Y00503307*
X00925871Y00503366*
X00925774Y00503463*
X00925637Y00503561*
X00925462Y00503639*
X00925247Y00503736*
X00925033Y00503795*
X00924779Y00503814*
G37*
G36*
X00960424Y00311367D02*
X0096037D01*
X00960297Y00311349*
X00960206Y00311331*
X00960115Y00311294*
X00960005Y00311221*
X00959896Y0031115*
X00959787Y00311039*
X00959769Y00311021*
X0095975Y00310985*
X00959696Y00310912*
X00959659Y00310821*
X00959605Y00310711*
X0095955Y00310566*
X00959532Y0031042*
X00959514Y00310238*
Y0031022*
Y00310165*
X00959532Y00310074*
X0095955Y00309946*
X00959586Y00309819*
X00959623Y00309691*
X00959696Y00309564*
X00959787Y00309437*
X00959805Y00309418*
X00959842Y00309382*
X00959896Y00309346*
X00959969Y00309291*
X00960169Y00309182*
X00960297Y00309145*
X00960424Y00309127*
X00960497*
X00960552Y00309145*
X00960643Y00309163*
X00960752Y003092*
X00960861Y00309254*
X00960971Y00309327*
X0096108Y00309437*
X00961098Y00309455*
X00961134Y00309491*
X00961171Y00309564*
X00961226Y00309655*
X0096128Y00309783*
X00961335Y0030991*
X00961353Y00310074*
X00961371Y00310238*
Y00310256*
Y00310311*
X00961353Y00310402*
X00961335Y00310511*
X00961298Y00310638*
X00961244Y00310766*
X00961171Y00310894*
X0096108Y00311021*
X00961062Y00311039*
X00961025Y00311076*
X00960971Y0031113*
X00960898Y00311203*
X00960697Y00311312*
X0096057Y00311349*
X00960424Y00311367*
G37*
G36*
X00951992Y0031093D02*
X00951919D01*
X00951828Y00310912*
X00951738Y00310857*
X00951611Y00310802*
X009515Y00310711*
X00951391Y00310584*
X009513Y00310402*
Y00310384*
X00951282Y00310329*
X00951264Y00310274*
X00951245Y00310202*
X00951227Y0031011*
X00951209Y00309983*
X00951191Y00309819*
X00951173Y00309637*
X00951154Y00309418*
X00951136Y00309163*
X00951118Y00308872*
X009511Y00308526*
Y00308162*
X00951082Y00307743*
Y00307269*
Y00307233*
Y0030716*
Y00307033*
Y00306851*
Y0030665*
X009511Y00306413*
Y00306158*
X00951118Y00305904*
X00951136Y00305357*
X00951154Y00305102*
X00951173Y00304847*
X00951191Y00304629*
X00951227Y00304428*
X00951264Y00304264*
X009513Y00304137*
X00951318Y00304119*
X00951337Y00304064*
X00951391Y00303973*
X00951464Y00303882*
X00951573Y00303773*
X00951683Y003037*
X00951828Y00303627*
X00951992Y00303609*
X00952065*
X00952156Y00303627*
X00952265Y00303663*
X00952375Y00303736*
X00952484Y00303809*
X00952593Y00303937*
X00952684Y00304101*
X00952702Y00304137*
Y00304173*
X00952721Y00304228*
X00952739Y00304301*
X00952757Y0030441*
X00952775Y00304538*
X00952812Y00304683*
X0095283Y00304884*
X00952848Y00305102*
X00952866Y00305357*
X00952885Y00305649*
X00952903Y00305995*
Y00306377*
X00952921Y00306796*
Y00307269*
Y00307306*
Y00307379*
Y00307488*
Y00307652*
Y00307852*
X00952903Y00308071*
Y00308307*
Y00308544*
X00952866Y00309072*
X0095283Y00309564*
X00952812Y00309783*
X00952793Y00309983*
X00952757Y00310165*
X00952721Y00310293*
Y00310329*
X00952684Y00310402*
X0095263Y00310493*
X00952557Y0031062*
X00952448Y0031073*
X00952338Y00310839*
X00952174Y00310912*
X00951992Y0031093*
G37*
G36*
X0094356D02*
X00943487D01*
X00943396Y00310912*
X00943305Y00310857*
X00943178Y00310802*
X00943068Y00310711*
X00942959Y00310584*
X00942868Y00310402*
Y00310384*
X0094285Y00310329*
X00942832Y00310274*
X00942813Y00310202*
X00942795Y0031011*
X00942777Y00309983*
X00942759Y00309819*
X00942741Y00309637*
X00942722Y00309418*
X00942704Y00309163*
X00942686Y00308872*
X00942668Y00308526*
Y00308162*
X0094265Y00307743*
Y00307269*
Y00307233*
Y0030716*
Y00307033*
Y00306851*
Y0030665*
X00942668Y00306413*
Y00306158*
X00942686Y00305904*
X00942704Y00305357*
X00942722Y00305102*
X00942741Y00304847*
X00942759Y00304629*
X00942795Y00304428*
X00942832Y00304264*
X00942868Y00304137*
X00942886Y00304119*
X00942905Y00304064*
X00942959Y00303973*
X00943032Y00303882*
X00943141Y00303773*
X0094325Y003037*
X00943396Y00303627*
X0094356Y00303609*
X00943633*
X00943724Y00303627*
X00943833Y00303663*
X00943943Y00303736*
X00944052Y00303809*
X00944161Y00303937*
X00944252Y00304101*
X0094427Y00304137*
Y00304173*
X00944289Y00304228*
X00944307Y00304301*
X00944325Y0030441*
X00944343Y00304538*
X0094438Y00304683*
X00944398Y00304884*
X00944416Y00305102*
X00944434Y00305357*
X00944453Y00305649*
X00944471Y00305995*
Y00306377*
X00944489Y00306796*
Y00307269*
Y00307306*
Y00307379*
Y00307488*
Y00307652*
Y00307852*
X00944471Y00308071*
Y00308307*
Y00308544*
X00944434Y00309072*
X00944398Y00309564*
X0094438Y00309783*
X00944361Y00309983*
X00944325Y00310165*
X00944289Y00310293*
Y00310329*
X00944252Y00310402*
X00944198Y00310493*
X00944125Y0031062*
X00944015Y0031073*
X00943906Y00310839*
X00943742Y00310912*
X0094356Y0031093*
G37*
%LNpcb1-3*%
%LPD*%
G36*
X00889542Y00404755D02*
X00887769D01*
Y00405028*
X00887633*
Y00405301*
X00887497*
Y00405709*
X0088736*
Y00406118*
X00887224*
Y00406391*
X00887088*
Y004068*
X00886951*
Y00407209*
X00886815*
Y00407482*
X00886679*
Y00407891*
X00886542*
Y00408164*
X00886406*
Y00408573*
X0088627*
Y00408982*
X00886133*
Y00409254*
X00885997*
Y00409663*
X00885861*
Y00410072*
X00885724*
Y00410345*
X00885588*
Y00404755*
X00884088*
Y00412935*
X00886133*
Y00412799*
X0088627*
Y0041239*
X00886406*
Y00411981*
X00886542*
Y00411708*
X00886679*
Y00411299*
X00886815*
Y0041089*
X00886951*
Y00410618*
X00887088*
Y0041021*
X00887224*
Y004098*
X0088736*
Y00409527*
X00887497*
Y00409118*
X00887633*
Y00408709*
X00887769*
Y004083*
X00887906*
Y00408027*
X00888042*
Y00412935*
X00889542*
Y00404755*
G37*
G36*
X00902085Y00411163D02*
X00900449D01*
Y00404755*
X00898404*
Y00411163*
X00896904*
Y00412935*
X00902085*
Y00411163*
G37*
G36*
X00870318Y00412799D02*
X00871545D01*
Y00412663*
X00871954*
Y00412526*
X00872363*
Y0041239*
X008725*
Y00412254*
X00872772*
Y00412117*
X00872908*
Y00411981*
X00873045*
Y00411845*
X00873181*
Y00411572*
X00873317*
Y00411436*
X00873454*
Y00411163*
X0087359*
Y0041089*
X00873727*
Y00410345*
X00873863*
Y00409663*
X00873999*
Y00408164*
X00873863*
Y00407346*
X00873727*
Y004068*
X0087359*
Y00406528*
X00873454*
Y00406255*
X00873317*
Y00405982*
X00873181*
Y00405709*
X00873045*
Y00405573*
X00872908*
Y00405437*
X00872772*
Y00405301*
X008725*
Y00405164*
X00872363*
Y00405028*
X00872091*
Y00404892*
X00871682*
Y00404755*
X00868137*
Y00412935*
X00870318*
Y00412799*
G37*
G36*
X0089445D02*
X00894859D01*
Y00412663*
X00895132*
Y00412526*
X00895268*
Y0041239*
X00895404*
Y00412254*
X00895677*
Y00411981*
X00895813*
Y00411845*
X0089595*
Y00411572*
X00896086*
Y00411299*
X00896222*
Y00411027*
X00896359*
Y00410481*
X00896495*
Y004098*
X00896631*
Y00408027*
X00896495*
Y00407346*
X00896359*
Y004068*
X00896222*
Y00406391*
X00896086*
Y00406118*
X0089595*
Y00405846*
X00895813*
Y00405709*
X00895677*
Y00405573*
X00895541*
Y00405301*
X00895404*
Y00405164*
X00895132*
Y00405028*
X00894995*
Y00404892*
X00894723*
Y00404755*
X00894313*
Y00404619*
X0089295*
Y00404755*
X00892541*
Y00404892*
X00892132*
Y00405028*
X00891996*
Y00405164*
X00891723*
Y00405301*
X00891587*
Y00405437*
X0089145*
Y00405709*
X00891314*
Y00405846*
X00891178*
Y00406255*
X00891041*
Y00406528*
X00890905*
Y00407073*
X00890769*
Y00407755*
X00890632*
Y00409527*
X00890769*
Y0041021*
X00890905*
Y00410754*
X00891041*
Y00411163*
X00891178*
Y00411436*
X00891314*
Y00411708*
X0089145*
Y00411845*
X00891587*
Y00412117*
X00891723*
Y00412254*
X0089186*
Y0041239*
X00891996*
Y00412526*
X00892269*
Y00412663*
X00892541*
Y00412799*
X00892814*
Y00412935*
X0089445*
Y00412799*
G37*
G36*
X00878498D02*
X00878907D01*
Y00412663*
X0087918*
Y00412526*
X00879316*
Y0041239*
X00879589*
Y00412254*
X00879725*
Y00412117*
X00879862*
Y00411981*
X00879998*
Y00411708*
X00880134*
Y00411436*
X00880271*
Y00411027*
X00880407*
Y00410618*
X00880544*
Y00410072*
X0088068*
Y00409936*
Y004098*
Y00407755*
X00880544*
Y00407209*
X00880407*
Y00406664*
X00880271*
Y00406391*
X00880134*
Y00406118*
X00879998*
Y00405846*
X00879862*
Y00405709*
X00879725*
Y00405437*
X00879589*
Y00405301*
X00879453*
Y00405164*
X00879316*
Y00405028*
X00879044*
Y00404892*
X00878771*
Y00404755*
X00878498*
Y00404619*
X00876999*
Y00404755*
X0087659*
Y00404892*
X00876317*
Y00405028*
X00876044*
Y00405164*
X00875908*
Y00405301*
X00875772*
Y00405437*
X00875635*
Y00405573*
X00875499*
Y00405709*
X00875363*
Y00405982*
X00875226*
Y00406255*
X0087509*
Y00406664*
X00874954*
Y00407209*
X00874817*
Y00408164*
X00874681*
Y00409254*
X00874817*
Y00410072*
X00874954*
Y00410618*
X0087509*
Y00411027*
X00875226*
Y00411299*
X00875363*
Y00411572*
X00875499*
Y00411845*
X00875635*
Y00411981*
X00875772*
Y00412117*
X00875908*
Y00412254*
X00876044*
Y0041239*
X00876181*
Y00412526*
X00876317*
Y00412663*
X0087659*
Y00412799*
X00876862*
Y00412935*
X00878498*
Y00412799*
G37*
G36*
X00899085Y00394257D02*
X0089704D01*
Y00397529*
X00895404*
Y00394257*
X00893359*
Y00397802*
Y00397938*
Y00402437*
X00895404*
Y00399165*
X0089704*
Y00402437*
X00899085*
Y00394257*
G37*
G36*
X00889678Y00402437D02*
X0089036D01*
Y00402301*
X00890632*
Y00402165*
X00890905*
Y00402028*
X00891178*
Y00401892*
X00891314*
Y00401756*
X0089145*
Y00401619*
X00891587*
Y00401483*
X00891723*
Y00401347*
X0089186*
Y00401074*
X00891996*
Y00400801*
X00892132*
Y00400529*
X00892269*
Y00399983*
X00892405*
Y00399165*
X00890769*
Y00399029*
X00890632*
Y00399574*
X00890496*
Y0040012*
X0089036*
Y00400392*
X00890223*
Y00400529*
X00890087*
Y00400665*
X00889951*
Y00400801*
X00889269*
Y00400665*
X00889133*
Y00400529*
X00888996*
Y00400392*
X0088886*
Y0040012*
X00888724*
Y00399438*
X00888587*
Y00396984*
X00888724*
Y00396439*
X0088886*
Y00396166*
X00888996*
Y0039603*
X00889133*
Y00395893*
X00889269*
Y00395757*
X00889814*
Y00395893*
X00890087*
Y0039603*
X00890223*
Y00396302*
X0089036*
Y00396575*
X00890496*
Y00396984*
X00890632*
Y00397393*
X00891041*
Y00397256*
X00892541*
Y0039712*
X00892405*
Y00396439*
X00892269*
Y0039603*
X00892132*
Y0039562*
X00891996*
Y00395348*
X0089186*
Y00395212*
X00891723*
Y00394939*
X00891587*
Y00394803*
X0089145*
Y00394666*
X00891178*
Y0039453*
X00890905*
Y00394393*
X00890632*
Y00394257*
X00890223*
Y00394121*
X00888996*
Y00394257*
X00888451*
Y00394393*
X00888178*
Y0039453*
X00887906*
Y00394666*
X00887769*
Y00394803*
X00887633*
Y00394939*
X00887497*
Y00395075*
X0088736*
Y00395212*
X00887224*
Y00395348*
X00887088*
Y0039562*
X00886951*
Y0039603*
X00886815*
Y00396439*
X00886679*
Y00396984*
X00886542*
Y00399574*
X00886679*
Y00400256*
X00886815*
Y00400665*
X00886951*
Y00400939*
X00887088*
Y0040121*
X00887224*
Y00401483*
X0088736*
Y00401619*
X00887497*
Y00401756*
X00887633*
Y00401892*
X00887906*
Y00402028*
X00888042*
Y00402165*
X00888315*
Y00402301*
X00888724*
Y00402437*
X00889542*
Y00402574*
X00889678*
Y00402437*
G37*
G36*
X00903039Y00402028D02*
X00902903D01*
Y00401756*
Y00401619*
Y00400665*
X00902766*
Y00399165*
X0090263*
Y00397666*
X00902494*
Y00396575*
X0090113*
Y00397802*
X00900994*
Y00399438*
X00900858*
Y00400939*
X00900721*
Y00402437*
X00903039*
Y00402028*
G37*
G36*
X00885315Y0039603D02*
X00885179D01*
Y00395484*
X00885043*
Y00395212*
X00884906*
Y00395075*
X0088477*
Y00394939*
X00884634*
Y00394803*
X00884497*
Y00394666*
X00884361*
Y0039453*
X00884088*
Y00394393*
X00883816*
Y00394257*
X00883407*
Y00394121*
X0088177*
Y00394257*
X00881225*
Y00394393*
X00880816*
Y0039453*
X0088068*
Y00394666*
X00880544*
Y00394803*
X00880407*
Y00394939*
X00880271*
Y00395075*
X00880134*
Y00395348*
X00879998*
Y0039562*
X00879862*
Y00396439*
X00879725*
Y00402437*
X0088177*
Y00396302*
X00881907*
Y0039603*
X00882043*
Y00395893*
X00882316*
Y00395757*
X00883134*
Y00395893*
X00883407*
Y00396166*
X00883543*
Y00396575*
X00883679*
Y00402437*
X00885315*
Y0039603*
G37*
G36*
X00902766Y00394257D02*
X00900858D01*
Y00396166*
X00902766*
Y00394257*
G37*
G36*
X008725Y00400665D02*
X00870863D01*
Y00394257*
X00868818*
Y0039453*
Y00394666*
Y00400665*
X00867182*
Y00402437*
X008725*
Y00400665*
G37*
G36*
X00875772Y00402437D02*
X00876453D01*
Y00402301*
X00876862*
Y00402165*
X00877135*
Y00402028*
X00877271*
Y00401892*
X00877544*
Y00401756*
X0087768*
Y00401483*
X00877817*
Y00401347*
X00877953*
Y00401074*
X00878089*
Y00400801*
X00878226*
Y00400392*
X00878362*
Y00399983*
X00878498*
Y00399165*
X00878635*
Y00397666*
X00878498*
Y00396848*
X00878362*
Y00396439*
X00878226*
Y0039603*
X00878089*
Y00395757*
X00877953*
Y00395484*
X00877817*
Y00395212*
X0087768*
Y00395075*
X00877544*
Y00394939*
X00877408*
Y00394803*
X00877271*
Y00394666*
X00877135*
Y0039453*
X00876999*
Y00394393*
X00876726*
Y00394257*
X00876317*
Y00394121*
X00874954*
Y00394257*
X00874545*
Y00394393*
X00874136*
Y0039453*
X00873999*
Y00394666*
X00873727*
Y00394803*
X0087359*
Y00394939*
X00873454*
Y00395212*
X00873317*
Y00395348*
X00873181*
Y0039562*
X00873045*
Y0039603*
X00872908*
Y00396439*
X00872772*
Y0039712*
X00872636*
Y00399165*
X00872772*
Y00399847*
X00872908*
Y00400392*
X00873045*
Y00400529*
Y00400665*
X00873181*
Y00400939*
X00873317*
Y0040121*
X00873454*
Y00401483*
X0087359*
Y00401619*
X00873727*
Y00401756*
X00873863*
Y00401892*
X00873999*
Y00402028*
X00874136*
Y00402165*
X00874408*
Y00402301*
X00874681*
Y00402437*
X00875499*
Y00402574*
X00875772*
Y00402437*
G37*
G36*
X0100911Y00419889D02*
X01009246D01*
Y00419343*
X01009382*
Y00418798*
X01009519*
Y00417844*
X01009655*
Y00417434*
X01009791*
Y0041648*
X01009928*
Y00415662*
X01010064*
Y00415526*
X010102*
Y0041539*
X01010473*
Y00415253*
X01010882*
Y00415117*
X01011019*
Y0041498*
X01011428*
Y00414844*
X01011973*
Y00414708*
X01012109*
Y00414571*
X01012518*
Y00414435*
X01012791*
Y00414299*
X01013473*
Y00414435*
X01013609*
Y00414571*
X01013882*
Y00414844*
X01014154*
Y0041498*
X01014427*
Y00415117*
X01014563*
Y00415253*
X01014836*
Y0041539*
X01014972*
Y00415526*
X01015245*
Y00415662*
X01015381*
Y00415798*
X01015518*
Y00415935*
X0101579*
Y00416071*
X01015927*
Y00416207*
X01016199*
Y00416344*
X01016336*
Y0041648*
X01016608*
Y00416617*
X01016745*
Y00416753*
X01017017*
Y00416617*
X01017154*
Y0041648*
X0101729*
Y00416344*
X01017426*
Y00416207*
X01017563*
Y00416071*
X01017699*
Y00415935*
X01017835*
Y00415798*
X01017972*
Y00415662*
X01018108*
Y00415526*
X01018244*
Y0041539*
X01018381*
Y00415253*
X01018517*
Y00415117*
X01018653*
Y0041498*
X0101879*
Y00414844*
X01018926*
Y00414708*
X01019062*
Y00414571*
X01019199*
Y00414435*
X01019335*
Y00414299*
X01019472*
Y00414163*
X01019608*
Y00414026*
X01019744*
Y0041389*
X01019881*
Y00413753*
X01020017*
Y00413344*
X01019881*
Y00413072*
X01019744*
Y00412935*
X01019608*
Y00412663*
X01019335*
Y0041239*
X01019199*
Y00412117*
X01019062*
Y00411981*
X01018926*
Y00411708*
X0101879*
Y00411572*
X01018653*
Y00411299*
X01018517*
Y00411163*
X01018381*
Y0041089*
X01018244*
Y00410754*
X01018108*
Y00410618*
X01017972*
Y00410481*
X01017835*
Y0041021*
X01017699*
Y00409527*
X01017835*
Y00408982*
X01017972*
Y00408845*
X01018108*
Y00408436*
X01018244*
Y004083*
X01018381*
Y00407891*
X01018517*
Y00407618*
X01018653*
Y00407209*
X0101879*
Y00407073*
X01018926*
Y00406664*
X01019608*
Y00406528*
X01020017*
Y00406391*
X01020971*
Y00406255*
X01021516*
Y00406118*
X01022471*
Y00405982*
X01023153*
Y00405846*
X01023289*
Y00401347*
X01022744*
Y0040121*
X01022198*
Y00401074*
X01021244*
Y00400939*
X0102029*
Y00400801*
X01019881*
Y00400665*
X01019062*
Y00400392*
X01018926*
Y00399983*
X0101879*
Y00399711*
X01018653*
Y00399302*
X01018517*
Y00399165*
X01018381*
Y00398756*
X01018244*
Y00398484*
X01018108*
Y00398075*
X01017972*
Y00397802*
X01017835*
Y00397393*
X01017699*
Y0039712*
X01017835*
Y00396848*
X01017972*
Y00396711*
X01018108*
Y00396439*
X01018244*
Y00396302*
X01018381*
Y00396166*
X01018517*
Y00395893*
X01018653*
Y0039562*
X01018926*
Y00395348*
X01019062*
Y00395075*
X01019199*
Y00394939*
X01019335*
Y00394666*
X01019472*
Y0039453*
X01019608*
Y00394257*
X01019744*
Y00394121*
X01019881*
Y00393984*
X01020017*
Y00393439*
X01019881*
Y00393303*
X01019744*
Y00393166*
X01019608*
Y0039303*
X01019335*
Y00392757*
X01019062*
Y00392485*
X01018926*
Y00392348*
X0101879*
Y00392212*
X01018653*
Y00392076*
X01018381*
Y00391803*
X01018108*
Y0039153*
X01017835*
Y00391258*
X01017699*
Y00391121*
X01017426*
Y00390849*
X01017154*
Y00390576*
X01016745*
Y00390712*
X01016472*
Y00390849*
X01016199*
Y00391121*
X01015927*
Y00391258*
X01015654*
Y00391394*
X01015518*
Y0039153*
X01015245*
Y00391668*
X01015109*
Y00391803*
X01014836*
Y00392076*
X01014563*
Y00392212*
X01014291*
Y00392348*
X01014154*
Y00392485*
X01013882*
Y00392621*
X01013745*
Y00392757*
X01013064*
Y00392621*
X01012927*
Y00392485*
X01012655*
Y00392348*
X01012382*
Y00392212*
X01012109*
Y00392076*
X010117*
Y00392212*
X01011564*
Y00392485*
X01011428*
Y00392894*
X01011291*
Y0039303*
X01011155*
Y00393439*
X01011019*
Y00393984*
X01010882*
Y00394121*
X01010746*
Y00394257*
Y00394393*
Y0039453*
X0101061*
Y00394803*
X01010473*
Y00395212*
X01010337*
Y00395348*
X010102*
Y00395893*
X01010064*
Y0039603*
X01009928*
Y00396439*
X01009791*
Y00396848*
X01009655*
Y0039712*
X01009519*
Y00397529*
X01009382*
Y00397802*
X01009246*
Y00398075*
X0100911*
Y00398347*
X01008974*
Y00398756*
X01008837*
Y00399438*
X0100911*
Y00399574*
X01009246*
Y00399711*
X01009519*
Y00399983*
X01009791*
Y0040012*
X01009928*
Y00400256*
X01010064*
Y00400392*
X010102*
Y00400529*
X01010337*
Y00400665*
X01010473*
Y00400801*
X0101061*
Y00400939*
X01010746*
Y00401074*
X01010882*
Y00401347*
X01011019*
Y00401619*
X01011155*
Y00402028*
X01011291*
Y00402301*
X01011428*
Y00403392*
X01011564*
Y00403937*
X01011428*
Y00404892*
X01011291*
Y00405164*
X01011155*
Y00405573*
X01011019*
Y00405982*
X01010882*
Y00406118*
X01010746*
Y00406255*
X0101061*
Y00406391*
X01010473*
Y00406664*
X010102*
Y00406937*
X01009928*
Y00407073*
X01009791*
Y00407346*
X01009519*
Y00407482*
X01009246*
Y00407618*
X01008974*
Y00407755*
X01008837*
Y00407891*
X01008292*
Y00408027*
X0100761*
Y00408164*
X01006383*
Y00408027*
X01005565*
Y00407891*
X01005156*
Y00407755*
X0100502*
Y00407618*
X01004611*
Y00407482*
X01004474*
Y00407346*
X01004202*
Y00407209*
X01004065*
Y00407073*
X01003929*
Y00406937*
X01003793*
Y004068*
X01003656*
Y00406664*
X0100352*
Y00406528*
X01003384*
Y00406391*
X01003247*
Y00406118*
X01003111*
Y00405982*
X01002975*
Y00405709*
X01002838*
Y00405437*
X01002702*
Y00405164*
X01002566*
Y00404482*
X01002429*
Y00402846*
X01002566*
Y00402028*
X01002702*
Y00401892*
X01002838*
Y00401483*
X01002975*
Y00401347*
X01003111*
Y00401074*
X01003247*
Y00400801*
X01003384*
Y00400665*
X0100352*
Y00400529*
X01003656*
Y00400392*
X01003793*
Y00400256*
X01003929*
Y0040012*
X01004065*
Y00399983*
X01004338*
Y00399847*
X01004474*
Y00399711*
X01004747*
Y00399438*
X0100502*
Y00399302*
X01005156*
Y00399029*
X0100502*
Y00398484*
X01004883*
Y00398347*
X01004747*
Y00397938*
X01004611*
Y00397666*
X01004474*
Y00397256*
X01004338*
Y0039712*
X01004202*
Y00396575*
X01004065*
Y00396166*
X01003929*
Y0039603*
X01003793*
Y0039562*
X01003656*
Y00395348*
X0100352*
Y00394939*
X01003384*
Y00394666*
X01003247*
Y00394257*
X01003111*
Y00393984*
X01002975*
Y00393712*
X01002838*
Y00393303*
X01002702*
Y0039303*
X01002566*
Y00392621*
X01002429*
Y00392485*
X01002293*
Y00392076*
X01001884*
Y00392212*
X01001475*
Y00392348*
X01001339*
Y00392485*
X0100093*
Y00392757*
X01000112*
Y00392485*
X00999839*
Y00392348*
X00999703*
Y00392212*
X0099943*
Y00392076*
X00999157*
Y00391939*
X00999021*
Y00391803*
X00998748*
Y00391668*
X00998612*
Y0039153*
X00998339*
Y00391394*
X00998203*
Y00391258*
X00998066*
Y00391121*
X00997794*
Y00390985*
X00997657*
Y00390849*
X00997385*
Y00390712*
X00997249*
Y00390576*
X00996839*
Y00390712*
X00996703*
Y00390849*
X00996567*
Y00390985*
X0099643*
Y00391121*
X00996294*
Y00391258*
X00996158*
Y00391394*
X00996021*
Y0039153*
X00995885*
Y00391668*
X00995749*
Y00391803*
X00995612*
Y00391939*
X00995476*
Y00392076*
X0099534*
Y00392212*
X00995203*
Y00392348*
X00995067*
Y00392485*
X00994931*
Y00392621*
X00994794*
Y00392757*
X00994658*
Y00392894*
X00994522*
Y0039303*
X00994385*
Y00393166*
X00994249*
Y00393303*
X00994113*
Y00393439*
X00993976*
Y00393984*
X00994113*
Y00394121*
X00994249*
Y00394393*
X00994385*
Y00394666*
X00994522*
Y00394803*
X00994658*
Y00395075*
X00994794*
Y00395212*
X00994931*
Y00395348*
X00995067*
Y00395484*
X00995203*
Y00395757*
X0099534*
Y0039603*
X00995476*
Y00396166*
X00995612*
Y00396439*
X00995749*
Y00396575*
X00995885*
Y00396848*
X00996021*
Y00396984*
X00996158*
Y00397666*
X00996021*
Y00397802*
X00995885*
Y00398211*
X00995749*
Y00398484*
X00995612*
Y00399029*
X00995476*
Y00399165*
X0099534*
Y00399574*
X00995203*
Y00399983*
X00995067*
Y00400256*
X00994931*
Y00400529*
X00994794*
Y00400665*
X00994113*
Y00400801*
X00993567*
Y00400939*
X00992749*
Y00401074*
X00991659*
Y0040121*
X0099125*
Y00401347*
X00990704*
Y00401483*
X00990568*
Y00405846*
X00990704*
Y00405982*
X00991522*
Y00406118*
X00992477*
Y00406255*
X00992886*
Y00406391*
X0099384*
Y00406528*
X00994249*
Y00406664*
X00994931*
Y004068*
X00995067*
Y00406937*
X00995203*
Y00407346*
X0099534*
Y00407891*
X00995476*
Y00408027*
X00995612*
Y00408436*
X00995749*
Y00408573*
X00995885*
Y00408982*
X00996021*
Y00409254*
X00996158*
Y00409663*
X00996294*
Y00410072*
X00996158*
Y00410345*
X00996021*
Y00410481*
X00995885*
Y00410754*
X00995749*
Y0041089*
X00995612*
Y00411163*
X0099534*
Y00411436*
X00995203*
Y00411708*
X00995067*
Y00411845*
X00994931*
Y00412117*
X00994794*
Y00412254*
X00994658*
Y00412526*
X00994522*
Y00412663*
X00994385*
Y00412935*
X00994249*
Y00413072*
X00994113*
Y00413208*
X00993976*
Y0041389*
X00994249*
Y00414026*
X00994385*
Y00414299*
X00994658*
Y00414571*
X00994931*
Y00414844*
X00995203*
Y0041498*
X0099534*
Y00415253*
X00995612*
Y00415526*
X00995885*
Y00415798*
X00996158*
Y00415935*
X00996294*
Y00416207*
X00996567*
Y0041648*
X00996839*
Y00416753*
X00997249*
Y0041648*
X00997521*
Y00416344*
X00997657*
Y00416207*
X0099793*
Y00416071*
X00998066*
Y00415935*
X00998339*
Y00415798*
X00998612*
Y00415662*
X00998748*
Y00415526*
X00999021*
Y00415253*
X00999294*
Y00415117*
X0099943*
Y0041498*
X00999703*
Y00414844*
X00999975*
Y00414708*
X01000112*
Y00414571*
X01000384*
Y00414299*
X01001202*
Y00414435*
X01001339*
Y00414571*
X01001884*
Y00414708*
X0100202*
Y00414844*
X01002429*
Y0041498*
X01002838*
Y00415117*
X01003111*
Y00415253*
X0100352*
Y0041539*
X01003793*
Y00415526*
X01003929*
Y00415935*
X01004065*
Y00416889*
X01004202*
Y00417707*
X01004338*
Y00418253*
X01004474*
Y00419071*
X01004611*
Y00419616*
X01004747*
Y00420025*
X0100911*
Y00419889*
G37*
G36*
X00951575Y00406391D02*
X00951848D01*
Y00406255*
X00951984*
Y00406118*
X00952121*
Y00405982*
X00952257*
Y00405846*
X0095253*
Y00405709*
X00952802*
Y00405437*
X00952666*
Y00405164*
X00952393*
Y00404892*
X00952257*
Y00404619*
X00952121*
Y0040421*
X00951984*
Y00403937*
X00951848*
Y00403665*
X00951712*
Y00403255*
X00951575*
Y0040271*
X00951439*
Y00400256*
X00951575*
Y00399574*
X00951712*
Y00399302*
X00951848*
Y00399029*
X00951984*
Y00398756*
X00952121*
Y00398347*
X00952257*
Y00398075*
X00952393*
Y00397802*
X0095253*
Y00397666*
X00952666*
Y00397529*
X00952802*
Y00397256*
X00952939*
Y0039712*
X00953075*
Y00396984*
X00953211*
Y00396711*
X00953348*
Y00396575*
X00953484*
Y00396166*
X0095362*
Y00395893*
X00953757*
Y0039562*
X00953893*
Y00395348*
X00954029*
Y00394939*
X00954166*
Y00394393*
X00954302*
Y00393712*
X00954438*
Y00390985*
X00954302*
Y00390303*
X00954166*
Y00389622*
X00954029*
Y00389349*
X00953893*
Y00389076*
X00953757*
Y00388804*
X0095362*
Y00388531*
X00953484*
Y00388122*
X00953348*
Y00387849*
X00953211*
Y00387713*
X00953075*
Y0038744*
X00952939*
Y00387304*
X00952666*
Y0038744*
X00952393*
Y00387577*
X00952257*
Y00387713*
X00952121*
Y00387849*
X00951984*
Y00387986*
X00951848*
Y00388122*
X00951575*
Y00388531*
X00951712*
Y00388667*
X00951848*
Y00388804*
X00951984*
Y00389076*
X00952121*
Y00389349*
X00952257*
Y00389758*
X00952393*
Y00390031*
X0095253*
Y0039044*
X00952666*
Y00391121*
X00952802*
Y00393576*
X00952666*
Y00394121*
X0095253*
Y0039453*
X00952393*
Y00394939*
X00952257*
Y00395212*
X00952121*
Y0039562*
X00951984*
Y00395757*
X00951848*
Y00395893*
X00951712*
Y00396166*
X00951575*
Y00396439*
X00951439*
Y00396575*
X00951303*
Y00396711*
X00951166*
Y00396984*
X0095103*
Y0039712*
X00950894*
Y00397393*
X00950757*
Y00397529*
X00950621*
Y00397802*
X00950485*
Y00398075*
X00950348*
Y00398484*
X00950212*
Y00398893*
X00950076*
Y00399302*
X00949939*
Y00399847*
X00949803*
Y00400801*
X00949667*
Y00402165*
X00949803*
Y00403119*
X00949939*
Y00403665*
X00950076*
Y00403937*
X00950212*
Y00404482*
X00950348*
Y00404892*
X00950485*
Y00405164*
X00950621*
Y00405437*
X00950757*
Y00405573*
X00950894*
Y00405846*
X0095103*
Y00405982*
X00951166*
Y00406255*
X00951303*
Y00406391*
X00951439*
Y00406528*
X00951575*
Y00406391*
G37*
G36*
X00945713D02*
X00945985D01*
Y00406255*
X00946122*
Y00406118*
X00946258*
Y00405982*
X00946531*
Y00405846*
X00946804*
Y00405709*
X0094694*
Y00405437*
X00946804*
Y00405164*
X00946667*
Y00405028*
X00946531*
Y00404755*
X00946394*
Y00404619*
X00946258*
Y0040421*
X00946122*
Y00403937*
X00945985*
Y00403528*
X00945849*
Y00403119*
X00945713*
Y0040271*
X00945576*
Y00400256*
X00945713*
Y00399847*
X00945849*
Y00399438*
X00945985*
Y00399029*
X00946122*
Y00398756*
X00946258*
Y00398347*
X00946394*
Y00398211*
X00946531*
Y00397938*
X00946667*
Y00397802*
X00946804*
Y00397529*
X0094694*
Y00397256*
X00947076*
Y0039712*
X00947213*
Y00396984*
X00947349*
Y00396711*
X00947485*
Y00396575*
X00947622*
Y00396302*
X00947758*
Y0039603*
Y00395893*
X00947894*
Y0039562*
X00948031*
Y00395348*
X00948167*
Y00395075*
X00948303*
Y00394666*
X0094844*
Y00393984*
X00948576*
Y00392894*
X00948712*
Y00391668*
X00948576*
Y00390576*
X0094844*
Y00390031*
X00948303*
Y00389485*
X00948167*
Y00389349*
X00948031*
Y00389076*
X00947894*
Y00388667*
X00947758*
Y00388395*
X00947622*
Y00388122*
X00947485*
Y00387849*
X00947349*
Y00387713*
X00947213*
Y0038744*
X00947076*
Y00387304*
X00946804*
Y0038744*
X00946531*
Y00387577*
X00946394*
Y00387713*
X00946258*
Y00387849*
X00946122*
Y00387986*
X00945985*
Y00388122*
X00945713*
Y00388531*
X00945849*
Y00388667*
X00945985*
Y00388804*
X00946122*
Y00389076*
X00946258*
Y00389349*
X00946394*
Y00389758*
X00946531*
Y00390031*
X00946667*
Y00390303*
X00946804*
Y00390712*
X0094694*
Y00393848*
X00946804*
Y00394393*
X00946667*
Y00394666*
X00946531*
Y00394939*
X00946394*
Y00395212*
X00946258*
Y0039562*
X00946122*
Y00395757*
X00945985*
Y00395893*
X00945849*
Y00396166*
X00945713*
Y00396439*
X00945576*
Y00396575*
X0094544*
Y00396848*
X00945304*
Y00396984*
X00945168*
Y0039712*
X00945031*
Y00397393*
X00944895*
Y00397666*
X00944759*
Y00397938*
X00944622*
Y00398211*
X00944486*
Y00398484*
X00944349*
Y00399029*
X00944213*
Y00399438*
X00944077*
Y0040012*
X0094394*
Y00402846*
X00944077*
Y00403528*
X00944213*
Y00403937*
X00944349*
Y00404482*
X00944486*
Y00404619*
X00944622*
Y00405028*
X00944759*
Y00405301*
X00944895*
Y00405573*
X00945031*
Y00405846*
X00945168*
Y00405982*
X00945304*
Y00406118*
X0094544*
Y00406391*
X00945576*
Y00406528*
X00945713*
Y00406391*
G37*
G36*
X0093985D02*
X00940123D01*
Y00406255*
X00940259*
Y00406118*
X00940396*
Y00405982*
X00940532*
Y00405846*
X00940805*
Y00405709*
X00941077*
Y00405301*
X00940941*
Y00405164*
X00940805*
Y00404892*
X00940668*
Y00404755*
X00940532*
Y00404619*
X00940396*
Y0040421*
X00940259*
Y00403937*
X00940123*
Y00403528*
X00939987*
Y00402983*
X0093985*
Y00402437*
X00939714*
Y00400529*
X0093985*
Y00399847*
X00939987*
Y00399438*
X00940123*
Y00399029*
X00940259*
Y00398756*
X00940396*
Y00398347*
X00940532*
Y00398211*
X00940668*
Y00398075*
X00940805*
Y00397938*
X00940941*
Y00397666*
X00941077*
Y00397256*
X00941214*
Y0039712*
X0094135*
Y00396984*
X00941486*
Y00396711*
X00941623*
Y00396575*
X00941759*
Y00396439*
X00941895*
Y00396166*
X00942032*
Y00395757*
X00942168*
Y00395484*
X00942304*
Y00394939*
X00942441*
Y00394666*
X00942577*
Y00394393*
X00942713*
Y00393712*
X0094285*
Y00390985*
X00942713*
Y00390303*
X00942577*
Y00390031*
X00942441*
Y00389622*
X00942304*
Y00389213*
X00942168*
Y00388804*
X00942032*
Y00388531*
X00941895*
Y00388258*
X00941759*
Y00387986*
X00941623*
Y00387849*
X00941486*
Y00387713*
X0094135*
Y0038744*
X00941214*
Y00387304*
X00940941*
Y0038744*
X00940668*
Y00387577*
X00940532*
Y00387713*
X00940396*
Y00387849*
X00940259*
Y00387986*
X00940123*
Y00388122*
X0093985*
Y00388258*
X00939714*
Y00388395*
X0093985*
Y00388531*
X00939987*
Y00388667*
X00940123*
Y00388804*
X00940259*
Y00389076*
X00940396*
Y00389349*
X00940532*
Y00389758*
X00940668*
Y00390031*
X00940805*
Y00390303*
X00940941*
Y00390712*
X00941077*
Y00393848*
X00940941*
Y00394393*
X00940805*
Y00394666*
X00940668*
Y00394939*
X00940532*
Y00395212*
X00940396*
Y0039562*
X00940259*
Y00395893*
X00940123*
Y0039603*
X00939987*
Y00396166*
X0093985*
Y00396302*
X00939714*
Y00396575*
X00939578*
Y00396711*
X00939441*
Y00396984*
X00939305*
Y00397256*
X00939169*
Y00397393*
X00939032*
Y00397802*
X00938896*
Y00397938*
X0093876*
Y00398347*
X00938623*
Y0039862*
X00938487*
Y00399165*
X00938351*
Y00399847*
X00938214*
Y00400801*
X00938078*
Y00402165*
X00938214*
Y00403119*
X00938351*
Y00403801*
X00938487*
Y00404346*
X00938623*
Y00404619*
X0093876*
Y00404892*
Y00405028*
X00938896*
Y00405164*
X00939032*
Y00405573*
X00939169*
Y00405846*
X00939305*
Y00405982*
X00939441*
Y00406255*
X00939578*
Y00406391*
X00939714*
Y00406528*
X0093985*
Y00406391*
G37*
G36*
X00958119Y0038335D02*
X00934397D01*
Y00385804*
X00958119*
Y0038335*
G37*
%LNpcb1-4*%
%LPC*%
G36*
X00870727Y00411299D02*
X00870182D01*
Y00406255*
X00870591*
Y00406391*
X00871136*
Y00406528*
X00871272*
Y00406664*
X00871409*
Y004068*
X00871545*
Y00407073*
X00871682*
Y00407482*
X00871818*
Y00410072*
X00871682*
Y00410481*
X00871545*
Y00410618*
Y00410754*
X00871409*
Y0041089*
X00871272*
Y00411027*
X00871136*
Y00411163*
X00870727*
Y00411299*
G37*
G36*
X00893904D02*
X00893223D01*
Y00411163*
X00893086*
Y00411027*
X0089295*
Y00410618*
X00892814*
Y00409254*
X00892678*
Y00408436*
X00892814*
Y00406937*
X0089295*
Y00406664*
X00893086*
Y00406391*
X00893359*
Y00406255*
X00893904*
Y00406391*
X00894177*
Y00406664*
X00894313*
Y00406937*
X0089445*
Y00408164*
X00894586*
Y00409527*
X0089445*
Y00410618*
X00894313*
Y0041089*
X00894177*
Y00411163*
X00893904*
Y00411299*
G37*
G36*
X00878089D02*
X00877408D01*
Y00411163*
X00877271*
Y00411027*
X00877135*
Y0041089*
X00876999*
Y00410481*
X00876862*
Y00407209*
X00876999*
Y00406664*
X00877135*
Y00406528*
X00877271*
Y00406391*
X00877408*
Y00406255*
X00877953*
Y00406391*
X00878226*
Y00406528*
X00878362*
Y004068*
X00878498*
Y00407618*
X00878635*
Y00408845*
Y00408982*
Y00409936*
X00878498*
Y00410754*
X00878362*
Y00411027*
X00878226*
Y00411163*
X00878089*
Y00411299*
G37*
G36*
X00875908Y00400801D02*
X00875226D01*
Y00400665*
X0087509*
Y00400529*
X00874954*
Y00400256*
X00874817*
Y00399165*
X00874681*
Y00397393*
X00874817*
Y00396439*
X00874954*
Y0039603*
X0087509*
Y00395893*
X00875363*
Y00395757*
X00875908*
Y00395893*
X00876044*
Y0039603*
X00876181*
Y00396166*
X00876317*
Y00396575*
X00876453*
Y0040012*
X00876317*
Y00400392*
X00876181*
Y00400665*
X00875908*
Y00400801*
G37*
%LNpcb1-5*%
%LPD*%
G54D10*
X00977997Y00294788D02*
Y00321534D01*
X00913805Y00294788D02*
X00977997D01*
X00913805D02*
Y00321534D01*
X00977997*
G54D11*
X01001715Y00332635D02*
X00995717D01*
X01001715Y00338633*
Y00340133*
X01000216Y00341632*
X00997217*
X00995717Y00340133*
X01004714Y00338633D02*
X01010713Y00332635D01*
X01007713Y00335634*
X01010713Y00338633*
X01004714Y00332635*
X0101971D02*
X01013711D01*
X0101971Y00338633*
Y00340133*
X0101821Y00341632*
X01015211*
X01013711Y00340133*
G54D12*
X00947248Y00483904D03*
M02*